<?xml version='1.0' encoding='UTF-8' standalone='no'?>
<svg height="84.6667mm" version="1.2" width="84.6667mm" xmlns="http://www.w3.org/2000/svg" baseProfile="tiny" viewBox="0 0 1000 1000" xmlns:xlink="http://www.w3.org/1999/xlink">
 <title>Qt SVG Document</title>
 <desc>Generated with Qt</desc>
 <defs/>
 <g stroke="black" stroke-linecap="square" fill="none" stroke-linejoin="bevel" stroke-width="1" fill-rule="evenodd">
  <g transform="matrix(1,0,0,1,0,0)" stroke="#000000" stroke-linecap="square" font-weight="400" fill="none" stroke-linejoin="bevel" stroke-opacity="1" stroke-width="1" font-family=".SF NS Text" font-size="54.1667" font-style="normal"/>
  <g transform="matrix(1,0,0,1,0,0)" stroke="#000000" stroke-linecap="square" font-weight="400" fill="none" stroke-linejoin="bevel" stroke-opacity="1" stroke-width="1" font-family=".SF NS Text" font-size="54.1667" font-style="normal"/>
  <g transform="matrix(11.811,0,0,11.811,0,0)" stroke="#000000" stroke-linecap="square" font-weight="400" fill="none" stroke-linejoin="bevel" stroke-opacity="1" stroke-width="1" font-family=".SF NS Text" font-size="54.1667" font-style="normal"/>
  <g transform="matrix(11.811,0,0,11.811,0,0)" stroke="#000000" stroke-linecap="square" font-weight="400" fill="none" stroke-linejoin="bevel" stroke-opacity="1" stroke-width="1" font-family=".SF NS Text" font-size="54.1667" font-style="normal"/>
  <g transform="matrix(11.811,0,0,11.811,0,0)" stroke="#000000" stroke-linecap="square" font-weight="400" fill="none" stroke-linejoin="bevel" stroke-opacity="1" stroke-width="1" font-family=".SF NS Text" font-size="54.1667" font-style="normal"/>
  <g transform="matrix(1,0,0,1,0,0)" stroke="#000000" stroke-linecap="square" font-weight="400" fill="none" stroke-linejoin="bevel" stroke-opacity="1" stroke-width="1" font-family=".SF NS Text" font-size="54.1667" font-style="normal"/>
  <g transform="matrix(1,0,0,1,0,0)" stroke="none" font-weight="400" fill="#ffffff" font-family=".SF NS Text" font-size="54.1667" font-style="normal" fill-opacity="1">
   <path vector-effect="none" d="M-2,-2 L1003,-2 L1003,1003 L-2,1003 L-2,-2" fill-rule="evenodd"/>
  </g>
  <g transform="matrix(1,0,0,1,0,0)" stroke="#000000" stroke-linecap="square" font-weight="400" fill="none" stroke-linejoin="bevel" stroke-opacity="1" stroke-width="1" font-family=".SF NS Text" font-size="54.1667" font-style="normal"/>
  <g transform="matrix(11.811,0,0,11.811,0,0)" stroke="#000000" stroke-linecap="square" font-weight="400" fill="none" stroke-linejoin="bevel" stroke-opacity="1" stroke-width="1" font-family=".SF NS Text" font-size="54.1667" font-style="normal"/>
  <g transform="matrix(11.811,0,0,11.811,0,0)" stroke="#000000" stroke-linecap="square" font-weight="400" fill="none" stroke-linejoin="bevel" stroke-opacity="1" stroke-width="1" font-family=".SF NS Text" font-size="54.1667" font-style="normal"/>
  <g transform="matrix(11.811,0,0,11.811,0,0)" stroke="#000000" stroke-linecap="square" font-weight="400" fill="none" stroke-linejoin="bevel" stroke-opacity="1" stroke-width="1" font-family=".SF NS Text" font-size="54.1667" font-style="normal"/>
  <g transform="matrix(11.811,0,0,11.811,0,0)" stroke="#000000" stroke-linecap="square" font-weight="400" fill="none" stroke-linejoin="bevel" stroke-opacity="1" stroke-width="1" font-family=".SF NS Text" font-size="54.1667" font-style="normal"/>
  <g transform="matrix(11.811,0,0,11.811,0,0)" stroke="#000000" stroke-linecap="square" font-weight="400" fill="none" stroke-linejoin="bevel" stroke-opacity="1" stroke-width="1" font-family=".SF NS Text" font-size="54.1667" font-style="normal"/>
  <g transform="matrix(11.811,0,0,11.811,0,0)" stroke="#000000" stroke-linecap="square" font-weight="400" fill="none" stroke-linejoin="bevel" stroke-opacity="1" stroke-width="1" font-family=".SF NS Text" font-size="54.1667" font-style="normal"/>
  <g transform="matrix(1,0,0,1,0,0)" stroke="none" font-weight="400" fill="#000000" font-family=".SF NS Text" font-size="54.1667" font-style="normal" fill-opacity="0">
   <rect y="0" height="1000" x="0" width="1000"/>
  </g>
  <g transform="matrix(1,0,0,1,0,0)" stroke="#e1e1e1" stroke-linecap="square" font-weight="400" fill="none" stroke-linejoin="round" stroke-opacity="1" stroke-width="59.0551" font-family=".SF NS Text" font-size="54.1667" font-style="normal">
   <path vector-effect="none" d="M749.504,282.427 L750.374,283.233 L753.516,287.734 L755.177,289.273 L759.2,292.133 L760.4,294.646 L763.096,297.538 L764.717,300.657 L764.284,306.133 L767.398,308.568 L768.447,311.485 L770.939,313.829 L772.167,316.372 L773.617,317.672 L774.745,317.963 L777.048,317.454 L781.272,317.58 L784.318,313.962 L789.391,312.688 L792.157,309.851 L793.068,309.748 L793.987,310.149 L795.088,311.294 L795.922,313.247 L796.735,314.387 L796.57,315.993 L795.936,317.929 L793.399,320.362 L792.099,323.41 L791.393,326.017 L789.506,327.661 L783.509,328.061 L780.867,329.027 L776.162,329.329 L775.434,330.258 L774.408,330.877 L771.133,331.461 L769.541,332.746 L766.868,337.741 L764.586,339.494 L762.089,340.576 L755.071,341.646 L753.569,342.123 L757.001,344.167 L759.115,345.933 L760.723,348.52 L761.394,351.07 L761.954,352.195 L763.711,354.293 L764.422,356.048 L764.371,357.654 L763.733,359.089 L759.813,361.094 L759.639,362.505 L758.272,363.905 L761.011,366.307 L761.554,368.815 L762.822,369.077 L764.568,367.877 L771.104,365.197 L774.228,363.102 L775.373,360.553 L779.444,356.762 L780.177,355.47 L781.281,354.429 L785.595,352.254 L789.503,349.231 L792.915,348.82 L796.046,348.952 L803.295,348.429 L806.879,347.154 L808.074,345.881 L809.713,344.936 L816.14,342.101 L817.159,341.974 L811.46,352.658 L809.721,355.21 L811.279,359.674 L812.163,360.146 L813.325,359.934 L815.281,358.909 L816.126,358.806 L816.494,359.705 L816.868,362.381 L818.686,365.183 L819.189,366.586 L818.767,370.286 L818.975,372.315 L820.43,373.814 L821.405,375.587 L822.421,376.703 L822.894,377.939 L824.902,380.661 L826.198,382.06 L827.882,383.045 L829.222,384.724 L829.921,385.712 L831.096,388.745 L831.015,390.882 L830.717,391.662 L826.419,397.594 L824.309,398.658 L822.398,399.098 L818.099,399.145 L816.568,399.533 L814.347,400.751 L812.852,402.077 L811.638,402.707 L808.877,402.745 L808.536,403.314 L810.603,406.315 L812.331,409.662 L812.16,410.527 L808.875,412.963 L804.463,415.515 L803.001,416.912 L801.921,418.439 L801.06,418.766 L799.911,418.235 L798.719,417.3 L797.72,417.318 L797.569,417.918 L798.526,419.871 L798.59,422.025 L797.685,422.28 L793.046,421.995 L790.537,422.543 L788.775,424.021 L787.467,425.965 L786.049,426.663 L785.835,427.234 L790.271,429.642 L792.371,431.228 L793.163,432.468 L793.349,433.98 L792.417,435.144 L788.454,436.614 L787.476,437.736 L785.736,438.935 L778.08,443.741 L776.755,444.82 L776.416,445.39 L776.978,445.884 L780.14,446.124 L782.743,446.75 L784.389,449.286 L785.094,449.639 L793.002,448.389 L793.607,449.486 L794.397,453.088 L796.276,453.316 L797.392,456.139 L799.453,455.797 L801.027,455.142 L801.669,453.206 L802.457,448.81 L803.567,447.367 L806.532,444.548 L809.899,443.717 L812.49,443.886 L814.583,444.706 L816.113,443.927 L818.242,442.176 L820.919,441.004 L822.225,439.327 L825.334,437.77 L828.285,437.288 L834.564,437.628 L838.494,437.383 L841.101,439.653 L844.928,441.797 L846.578,442.503 L849.23,442.845 L851.865,444.262 L852.861,445.24 L853.734,446.984 L854.376,449.243 L855.46,451.674 L856.73,452.251 L858.977,452.238 L861.216,452.617 L867.51,452.591 L869.104,451.048 L873.979,449.843 L874.706,449.882 L876.501,452.142 L877.996,453.394 L878.139,455.13 L878.908,456.245 L883.069,457.044 L886.357,459.579 L888.361,459.818 L889.83,460.749 L893.889,459.2 L896.011,457.276 L897.402,454.879 L898.41,454.266 L900.628,454.047 L904.724,452.476 L907.852,454.159 L909.885,454.582 L910.485,455.332 L913.91,458.041 L914.962,459.148 L916.591,462.989 L917.289,463.487 L920.184,464.22 L925.087,463.377 L926.62,466.351 L927.707,467.234 L931.874,466.759 L934.031,467.075 L937.781,468.996 L937.984,469.907 L938.816,470.886 L941.04,471.049 L942.025,471.527 L944.743,473.627 L946.851,474.054 L948.346,474.99 L952.349,478.902 L952.324,479.99 L951.053,480.346 L947.928,478.908 L946.619,479.515 L945.945,480.761 L941.533,484.709 L940.584,486.998 L940.892,488.024 L942.951,490.685 L942.791,491.464 L938.317,495.539 L937.933,498.048 L938.557,499.161 L939.649,499.613 L941.632,499.884 L946.955,499.472 L948.114,499.143 L948.182,500.332 L947.248,501.909 L948.654,503.986 L949.445,503.819 L951.979,504.771 L954.545,506.338 L953.995,507.726 L950.831,508.215 L949.519,511.239 L948.788,512.218 L948.853,515.783 L948.395,518.709 L950.254,520.837 L950.257,521.479 L948.842,522.81 L949.029,523.652 L950.227,525.042 L950.453,526.178 L948.821,526.68 L947.713,527.639 L946.7,527.915 L943.408,526.518 L939.945,527.215 L940.381,523.743 L940.111,523.067 L938.96,521.665 L938.03,520.922 L929.933,524.074 L928.498,524.944 L926.878,527.111 L921.574,531.065 L919.546,533.227 L919.154,533.935 L918.355,534.577 L916.182,535.424 L916.349,536.489 L915.022,537.544 L911.46,538.705 L910.93,540.04 L909.428,541.274 L906.05,542.054 L905.42,542.806 L906.402,544.889 L905.844,546.125 L905.885,547.396 L904.361,549.926 L903.907,550.003 L902.431,549.484 L902.35,549.192 L901.911,549.227 L900.298,547.688 L899.522,547.863 L898.624,548.974 L898.131,549.133 L897.504,548.635 L897.009,547.77 L895.652,547.554 L895.645,548.578 L895.338,548.798 L894.247,548.703 L893.755,549.095 L893.321,549.966 L893.714,550.399 L893.574,550.919 L893.005,551.312 L892.17,552.541 L892.068,553.633 L891.246,554.036 L890.598,555.007 L889.718,555.647 L889.283,556.776 L888.501,557.415 L888.114,558.299 L887.879,559.86 L888.131,560.418 L887.248,560.85 L886.049,560.212 L885.536,561.023 L883.154,560.737 L882.475,561.077 L882.078,560.842 L880.706,561.168 L880.381,562.505 L879.929,563.22 L879.97,563.68 L878.891,564.627 L878.579,565.622 L877.208,566.258 L877.009,566.549 L877.07,567.26 L875.811,568.578 L875.069,568.241 L874.158,568.259 L873.683,569.814 L874.008,570.413 L874.104,572.122 L873.745,573.921 L876.073,573.556 L876.56,573.92 L876.688,574.388 L876.314,575.661 L876.766,577.133 L876.464,577.724 L876.299,579.356 L878.296,580.539 L879.373,582.036 L879.287,583.039 L879.556,584.343 L880.74,584.937 L879.295,584.989 L878.544,585.783 L878.548,586.162 L877.95,586.725 L877.307,587.985 L876.885,588.29 L876.839,589.163 L876.407,589.591 L876.375,590.182 L875.964,590.768 L875.786,593.544 L876.552,594.245 L877.801,594.535 L879.016,595.916 L880.277,596.866 L880.466,597.624 L880.121,598.099 L880.157,598.684 L880.647,599.35 L881.478,599.661 L882.093,600.361 L883.582,600.658 L884.637,601.111 L884.931,601.474 L884.622,602.569 L885.068,603.515 L885.569,603.924 L885.744,604.642 L884.887,605.921 L886.234,606.992 L887.449,608.489 L887.818,610.121 L889.25,610.396 L889.66,611.64 L890.121,612.144 L890.05,613.377 L890.517,614.313 L891.893,615.094 L892.112,615.597 L893.075,615.207 L894.526,616.258 L895.117,615.91 L895.395,616.488 L895.221,616.971 L896.169,617.983 L896.601,619.367 L897.047,619.983 L898.031,620.215 L898.582,620.646 L898.627,620.995 L899.244,621.071 L899.273,622.594 L901.343,623.83 L902.198,624.816 L902.194,625.41 L904.437,626.706 L904.754,627.356 L904.777,628.404 L905.101,628.754 L904.79,630.623 L905.344,630.814 L906.616,632.095 L907.392,632.488 L907.913,633.201 L909.653,634.217 L909.597,635.245 L910.068,636.647 L910.744,637.194 L911.273,637.28 L911.889,638.08 L912.525,638.313 L913.542,638.102 L914.17,640.578 L915.376,640.961 L916.116,641.687 L916.446,642.783 L915.694,643.744 L915.809,644.624 L914.916,645.33 L913.943,645.495 L913.671,646.153 L913.724,647.071 L913.087,647.647 L913.073,648.24 L912.185,649.545 L911.79,649.154 L910.138,648.882 L909.656,648.492 L909.23,647.555 L907.105,647.505 L906.329,646.836 L905.452,647.604 L905.95,648.427 L905.769,648.729 L904.405,648.95 L903.421,648.451 L903.016,648.619 L902.634,648.349 L902.334,648.527 L902.099,649.443 L901.753,649.802 L901.019,649.422 L900.596,649.501 L900.368,648.351 L899.845,648.215 L898.836,647.244 L898.265,647.353 L897.657,646.924 L897.652,646.243 L897.198,645.778 L896.011,645.359 L896.376,644.481 L895.499,643.363 L894.973,643.657 L894.617,643.253 L893.845,643.118 L892.106,641.996 L889.658,641.99 L889.294,641.008 L888.307,639.799 L885.387,639.236 L885.178,638.726 L883.924,638.27 L883.482,638.581 L881.917,638.311 L881.301,638.632 L880.107,638.673 L879.539,638.352 L878.895,638.342 L878.694,638.091 L877.286,637.991 L876.658,637.604 L875.469,637.599 L870.25,635.094 L869.866,634.601 L868.563,633.892 L868.501,633.525 L868.839,633.027 L868.785,632.101 L868.238,631.055 L869.083,631.074 L870.167,629.972 L871.645,629.522 L873.032,628.551 L872.967,627.714 L873.373,627.219 L872.574,627.049 L872.393,626.55 L872.538,626.051 L873.312,625.617 L873.386,625.322 L873.196,624.405 L872.812,624.067 L872.825,623.396 L870.465,623.638 L869.501,623.478 L868.534,622.904 L867.688,621.907 L867.028,621.621 L867.524,620.609 L867.213,618.716 L865.757,617.666 L865.686,617.211 L865.262,616.801 L863.197,615.81 L861.763,613.79 L860.545,612.685 L860.11,611.305 L859.257,610.123 L858.1,610.126 L856.95,609.415 L855.789,609.126 L854.619,608.336 L853.851,608.883 L853.033,608.789 L852.217,609.066 L851.801,608.568 L851.465,608.601 L851.269,608.17 L850.431,608.277 L848.83,608.017 L848.844,607.612 L847.521,607.372 L846.052,606.37 L844.916,606.025 L844.409,607.522 L844.622,607.919 L843.903,608.281 L840.48,607.706 L840.305,608.2 L839.996,608.282 L839.428,607.637 L838.845,607.728 L838.116,607.242 L836.048,608.024 L832.743,606.927 L829.638,607.022 L829.227,608.098 L828.665,608.568 L828.842,608.718 L827.391,609.791 L828.069,610.945 L828.165,612.022 L826.982,611.685 L825.644,612.461 L824.82,613.516 L823.696,613.795 L823.235,614.344 L822.206,614.371 L821.772,614.075 L821.151,614.389 L821.183,615.118 L819.845,615.841 L819.936,616.848 L819.656,617.194 L818.833,617.344 L818.151,617.792 L816.924,619.35 L816.231,619.28 L815.995,619.467 L815.707,618.866 L815.122,618.417 L815.072,617.78 L814.652,617.712 L814.437,617.379 L813.453,617.404 L811.745,616.835 L811.521,617.029 L811.617,617.769 L811.43,617.821 L810.838,617.482 L808.615,617.098 L807.449,616.282 L806.706,616.196 L806.308,616.827 L805.653,617.04 L805.37,616.793 L804.614,616.921 L804.062,616.243 L803.309,616.859 L801.077,617.002 L798.956,619.124 L798.157,618.273 L797.976,618.604 L795.628,619.59 L794.987,619.294 L793.854,619.544 L793.429,618.943 L792.988,618.769 L792.637,619.276 L791.229,618.753 L790.359,618.018 L789.889,618.317 L789.851,618.987 L789.378,619.489 L788.492,619.571 L787.04,619.206 L786.93,618.802 L786.25,618.955 L785.851,618.697 L783.919,618.434 L783.416,618.122 L781.41,618.566 L779.75,619.57 L778.262,619.8 L778.442,620.385 L777.836,621.659 L776.283,621.385 L775.935,621.527 L775.369,621.139 L774.204,621.446 L773.798,620.852 L771.707,620.906 L771.193,620.511 L770.532,621.467 L769.029,622.527 L768.486,622.617 L768.23,623.214 L767.821,623.16 L767.541,623.396 L765.817,623.194 L764.484,625.104 L760.136,625.374 L759.802,625.222 L758.714,626.122 L756.886,626.329 L755.93,627.095 L755.047,627.208 L754.41,627.847 L753.103,627.81 L751.113,628.996 L749.697,629.124 L749.546,629.603 L748.627,630.624 L747.84,631.098 L747.722,631.454 L746.854,631.956 L745.688,631.823 L745.561,632.148 L744.661,632.474 L744.134,633.36 L741.314,634.902 L740.679,634.891 L739.27,635.833 L738.541,637.474 L738.643,638.655 L738.109,639.542 L738.199,640.02 L737.258,641.131 L737.334,641.666 L735.917,642.735 L735.58,642.74 L734.509,644.67 L733.791,645.285 L733.386,646.311 L732.481,646.804 L730.708,648.463 L730.669,648.93 L730.098,649.343 L730.272,650.281 L728.903,651.639 L728.467,653.521 L727.35,655.761 L726.83,655.714 L726.539,656.118 L726.203,656.053 L725.55,656.558 L724.283,656.765 L723.662,657.284 L721.833,658.056 L720.884,657.67 L720.381,658.705 L719.328,659.726 L718.59,660.015 L718.058,659.666 L717.008,660.2 L716.511,660.649 L716.46,661.411 L715.644,661.692 L714.508,661.598 L713.731,661.889 L712.651,661.457 L711.368,661.518 L709.562,662.565 L708.845,662.189 L706.869,661.835 L706.694,661.483 L705.11,661.39 L704.88,661.775 L705.069,662.715 L704.155,664.016 L702.192,665.259 L701.845,667.184 L699.864,667.294 L699.362,668.568 L698.611,669.331 L698.665,670.079 L698.418,670.626 L697.822,670.864 L698.396,672.069 L698.533,673.538 L697.925,673.891 L697.826,674.677 L696.69,675.175 L696.933,675.504 L696.601,675.643 L696.465,676.827 L697.1,677.828 L696.495,678.565 L696.23,679.806 L695.542,680.182 L694.612,680.164 L692.835,682.097 L691.833,682.497 L690.159,682.24 L690.189,681.964 L688.405,680.456 L687.158,679.958 L686.132,679.932 L685.406,679.051 L684.18,678.775 L682.958,680.079 L681.947,680.565 L681.71,681.142 L680.9,681.629 L680.571,682.935 L679.679,682.863 L678.648,683.296 L679.063,684.127 L677.829,685.128 L678.272,685.752 L677.884,688.092 L676.965,689.771 L675.62,690.96 L675.001,692.681 L673.867,693.001 L672.853,692.385 L671.555,692.069 L669.051,692.194 L668.334,691.766 L667.009,690.131 L667.027,689.668 L666.343,689.83 L664.952,689.233 L664.203,689.882 L663.86,690.543 L663.12,690.514 L662.081,691.214 L661.728,692.628 L660.416,693.223 L659.36,693.364 L659.387,693.952 L658.876,695.463 L658.992,695.891 L658.528,696.786 L657.985,697.261 L657.43,698.588 L657.013,698.918 L656.591,700.379 L655.866,701.176 L655.435,702.426 L655.563,702.977 L654.211,703.963 L653.186,703.451 L651.95,703.583 L651.01,705.127 L649.805,706.37 L648.306,707.268 L647.758,707.865 L647.522,709.232 L647.82,709.833 L647.501,710.223 L645.545,711.239 L643.267,711.09 L642.922,711.96 L641.901,712.575 L638.735,712.704 L637.583,714.062 L636.595,714.732 L634.755,714.471 L634.752,714.139 L634.153,714.059 L632.705,714.313 L632.619,714.584 L631.444,715.128 L631.323,715.721 L630.015,715.685 L629.387,716.003 L627.786,717.846 L626.585,717.529 L626.225,717.638 L623.272,716.609 L620.994,717.147 L620.512,716.137 L620.77,714.54 L620.648,713.926 L619.392,712.723 L617.962,712.991 L616.851,712.809 L616.438,711.156 L616.632,710.651 L616.484,710.097 L616.847,709.329 L616.463,708.745 L615.752,708.637 L615.94,707.731 L615.178,706.76 L613.298,705.802 L614.772,703.124 L614.233,703.04 L614.061,702.762 L614.313,701.604 L614.983,701.533 L615.535,700.669 L616.578,700.143 L616.798,699.655 L616.075,699.194 L616.224,698.548 L616.775,698.424 L616.74,698.188 L617.207,698.344 L617.245,697.977 L618.258,697.692 L618.3,697.296 L617.656,697.427 L617.553,697.169 L617.849,697.092 L617.697,696.933 L616.851,696.764 L616.205,696.973 L615.544,696.541 L614.435,696.399 L613.043,695.487 L612.92,695.048 L613.572,695.049 L613.619,694.805 L613.115,694.173 L612.493,693.998 L611.783,692.53 L611.764,691.827 L611.344,691.226 L611.659,690.399 L611.249,689.999 L611.466,689.282 L611.292,689.131 L612.302,687.939 L612.213,687.542 L611.754,687.825 L610.743,687.262 L610.772,687.713 L609.738,687.318 L609.448,686.29 L608.806,686.041 L608.897,685.23 L609.588,684.538 L611.689,683.726 L613.01,682.477 L613.102,681.964 L614.063,681.767 L615.019,682.237 L616.109,682.207 L616.45,681.754 L616.349,680.6 L615.892,680.031 L616.213,679.872 L616.395,679.123 L616.751,678.787 L616.221,677.933 L616.445,677.407 L616.187,677.219 L616.775,676.752 L616.705,676.171 L616.33,676.018 L616.416,675.718 L615.119,674.814 L613.645,674.559 L613.075,672.951 L612.795,672.718 L612.939,671.858 L613.242,671.771 L613.163,671.38 L612.829,671.254 L613.162,671.082 L612.164,670.589 L612.077,670.226 L612.263,670.276 L612.523,669.757 L612.98,669.761 L613.111,669.338 L613.517,669.256 L613.51,668.953 L612.737,668.396 L612.539,668.472 L612.258,668.146 L612.317,667.785 L612.008,667.774 L611.957,667.278 L612.346,667.252 L612.484,666.971 L612.124,666.512 L611.861,666.431 L611.748,666.729 L611.401,666.359 L611.072,666.54 L610.441,666.073 L610.674,665.825 L610.389,665.791 L610.485,665.083 L610.289,664.827 L611.288,664.215 L610.93,658.871 L611.153,658.775 L611.227,657.978 L612.244,658.15 L612.468,657.865 L612.562,658.687 L612.865,658.699 L612.91,658.992 L613.392,658.911 L613.215,659 L613.402,659.288 L613.893,658.912 L614.132,659.036 L614.719,658.758 L615.392,658.121 L615.909,658.375 L616.444,658.177 L616.563,657.652 L616.291,657.275 L616.741,657.084 L616.863,657.902 L617.864,658.071 L618.541,659.672 L618.943,660.021 L620.514,658.997 L620.888,659.018 L620.803,658.469 L621.055,658.201 L621.57,658.275 L622.84,657.328 L623.7,657.143 L623.501,656.879 L623.786,656.221 L623.407,655.966 L623.575,655.622 L625.979,653.405 L627.252,652.853 L629.85,650.875 L631.782,650.124 L635.734,647.605 L637.306,646.942 L637.918,647.034 L637.128,647.816 L638.282,648.088 L638.114,649.065 L638.819,649.346 L640.113,648.489 L639.953,648.167 L640.365,647.352 L642.52,646.859 L645.946,644.214 L648.885,644.194 L649.039,643.756 L649.679,643.748 L649.32,643.345 L649.628,642.752 L650.387,642.849 L650.404,643.61 L651.003,643.648 L651.761,642.328 L651.514,641.925 L651.655,641.37 L652.389,640.514 L651.991,639.881 L651.01,639.324 L652.436,638.646 L652.9,637.925 L652.775,637.018 L651.971,636.478 L653.069,635.557 L652.072,634.054 L652.427,633.583 L651.913,633.419 L651.801,632.682 L651.409,632.319 L651.67,631.349 L653.155,630.639 L653.215,629.872 L653.974,629.776 L653.824,629.189 L654.751,628.563 L655.093,627.912 L654.967,627.431 L655.599,627.05 L655.807,626.317 L657.019,625.652 L658.189,625.553 L658.97,625.06 L659.668,623.095 L660.024,623.115 L660.889,623.796 L662.181,622.834 L662.569,622.933 L662.879,622.707 L662.939,623.201 L663.305,623.183 L663.596,622.7 L663.694,623.17 L663.998,623.022 L664.76,623.563 L665.24,623.413 L665.764,623.826 L665.722,624.35 L666.298,624.472 L666.149,624.891 L666.544,625.138 L667.248,625.119 L668.213,625.787 L669.816,625.946 L669.902,626.545 L670.223,626.809 L669.803,627.385 L670.375,627.74 L670.717,628.4 L671.108,628.292 L671.35,628.853 L671.82,629.155 L674.338,628.956 L675.392,628.432 L675.637,628.027 L676.496,627.913 L676.696,627.676 L678.759,628.11 L685.53,625.431 L686.384,624.691 L688.062,624.463 L689.48,625.182 L690.467,624.952 L691.103,624.52 L691.382,624.924 L692.378,625.042 L693.451,623.465 L694.623,623.351 L694.854,622.906 L695.773,622.379 L696.639,622.52 L698.059,622.071 L699.348,622.285 L700.91,621.798 L701.581,621.899 L701.737,621.479 L702.913,620.818 L702.871,620.52 L704.005,619.918 L704.674,619.948 L704.884,619.649 L705.152,619.854 L704.66,620.845 L705.603,620.962 L705.545,621.403 L707.129,620.537 L708.36,620.486 L712.573,619.289 L713.938,619.191 L713.088,620.435 L713.492,621.696 L714.639,622.412 L715.499,623.407 L716.603,623.467 L717.35,624.045 L719.073,624.142 L719.344,623.889 L719.413,623.255 L719.248,622.237 L720.161,622.065 L720.258,621.202 L720.92,621.253 L719.795,620.226 L719.814,619.975 L720.418,619.703 L721.185,619.967 L721.358,618.92 L722.32,618.895 L722.536,618.449 L723.035,618.553 L724.915,617.168 L726.068,617.083 L726.713,616.4 L727.473,616.624 L728.527,615.827 L729.552,615.513 L729.013,615.263 L728.779,614.471 L729.705,614.662 L729.974,613.624 L730.96,613.738 L731.957,613.419 L731.42,612.957 L730.743,613.231 L730.367,612.889 L731.253,612.124 L731.34,611.546 L732.109,611.417 L733.712,610.141 L734.073,608.454 L734.706,608.231 L735.203,608.474 L736.131,607.796 L736.914,607.813 L737.715,607.131 L738.498,607.148 L738.517,606.449 L735.462,603.587 L735.199,602.547 L734.737,602.269 L734.217,601.345 L733.353,601.021 L733.157,599.876 L731.724,599.949 L731.13,599.4 L731.217,599.102 L731.894,599.004 L731.932,598.705 L731.729,598.348 L731.037,598.069 L730.996,597.388 L730.393,597.524 L730.253,598.912 L729.824,598.918 L730.043,597.492 L729.599,597.211 L729.042,597.604 L728.732,598.669 L728.172,597.996 L727.25,597.582 L727.6,596.596 L726.649,595.93 L725.584,596.186 L724.567,595.747 L723.072,596.328 L721.934,596.166 L721.483,596.386 L720.247,598.298 L720.039,599.717 L718.85,601.522 L718.034,601.997 L717.77,601.322 L718.432,600.317 L718.322,599.903 L717.759,599.537 L717.912,596.731 L717.645,596.236 L716.952,596.112 L716.474,596.318 L715.733,597.626 L713.603,598.629 L713.584,599.286 L714.426,599.923 L714.434,600.246 L714.068,600.468 L712.955,599.988 L712.499,598.95 L711.645,598.365 L711.309,597.41 L712.076,596.101 L712.004,595.733 L712.414,595.261 L713.543,594.747 L713.011,592.89 L713.511,592.215 L715.704,591.379 L715.835,589.914 L716.199,589.131 L716.052,587.64 L716.263,587.257 L717.151,586.671 L718.209,586.663 L717.812,586.048 L716.961,585.453 L716.502,584.285 L716.914,583.303 L716.627,579.346 L716.495,579.005 L716.171,578.925 L715.644,579.192 L714.454,579.178 L714.161,579.529 L712.947,578.028 L711.144,576.592 L710.373,577.025 L709.916,576.907 L708.38,574.666 L706.969,574.702 L706.595,573.311 L706.885,572.419 L707.607,571.425 L707.196,570.916 L705.611,570.564 L704.022,571.072 L703.296,570.765 L703.108,570.09 L703.249,568.891 L702.443,568.291 L701.652,568.134 L701.387,567.707 L701.418,566.993 L701.58,566.736 L703.119,566.632 L702.933,565.309 L703.883,564.685 L703.996,564.692 L704.055,564.825 L704.132,564.842 L704.093,564.242 L703.22,563.772 L702.862,563.897 L702.61,563.531 L700.767,562.836 L700.164,561.766 L700.558,561.094 L700.403,560.776 L700.893,559.191 L701.501,558.731 L703.269,558.288 L702.602,558.039 L702.442,557.514 L702.113,557.59 L702.101,557.192 L701.217,557.14 L700.61,557.551 L699.766,557.227 L699.656,556.685 L699.382,556.641 L699.132,556.178 L699.435,555.587 L699.253,555.257 L699.791,554.886 L698.996,553.813 L699.194,553.486 L698.936,553.17 L699.378,552.938 L697.646,552.355 L697.348,551.968 L697.382,551.454 L697.64,551.226 L698.396,551.019 L699.411,551.12 L701.551,549.985 L701.732,549.488 L701.334,548.628 L701.027,546.898 L702.715,545.961 L703.879,544.503 L704.801,543.787 L705.354,542.097 L706.228,541.403 L706.439,540.248 L707.328,539.293 L708.868,538.359 L710.649,538.124 L710.6,535.972 L713.178,535.056 L715.66,534.646 L717.714,532.564 L718.458,530.941 L718.875,530.898 L718.736,530.411 L719.525,530.817 L719.434,530.099 L721.01,530.082 L720.474,529.406 L720.51,529.097 L720.767,529.029 L721.267,529.481 L721.578,529.06 L721.378,528.791 L721.906,528.83 L721.815,528.486 L722.501,527.968 L722.886,527.238 L722.658,526.727 L723.261,527.217 L724.136,527.05 L723.466,526.591 L722.852,526.536 L722.651,525.855 L722.988,525.749 L723.922,526.054 L723.229,524.978 L724.273,524.933 L724.329,524.383 L724.565,524.411 L724.663,524.964 L726.098,524.489 L725.173,524.188 L724.871,523.785 L726.61,523.341 L725.755,523.049 L726.161,522.268 L726.859,522.553 L727.552,521.505 L728.415,521.095 L727.773,520.429 L728.736,519.374 L727.88,519.373 L727.734,518.457 L728.705,517.834 L730.354,516.202 L731.297,514.488 L708.449,513.131 L674.566,515.744 L672.772,516.96 L671.595,518.517 L670.027,518.056 L668.879,518.645 L668.294,519.672 L668.097,521.224 L666.591,522.082 L665.171,522.529 L664.787,523.238 L665.109,524.244 L664.438,524.758 L663.523,524.498 L662.302,525.664 L661.7,526.851 L660.535,527.386 L660.51,527.869 L660.535,527.386 L639.582,533.637 L628.605,529.168 L619.348,531.95 L557.86,550.931 L557.25,552.558 L557.161,554.347 L556.097,555.115 L552.968,556.438 L551.03,556.454 L549.278,555.887 L548.775,555.957 L548.486,557.056 L548.049,557.507 L547.283,557.705 L546.439,558.356 L544.967,558.384 L543.69,560.628 L542.664,561.325 L540.66,561.427 L539.784,560.9 L538.738,560.708 L538.143,560.014 L537.426,560.337 L536.73,561.792 L535.648,561.94 L534.323,561.185 L532.836,561.141 L532.373,560.613 L531.736,561.383 L532.178,562.807 L531.562,563.596 L531.009,563.711 L530.022,563.391 L528.458,563.684 L527.644,564.233 L525.981,564.809 L525.159,566.146 L523.891,566.965 L523.158,566.906 L522.385,566.4 L521.981,566.842 L520.976,566.995 L519.768,567.824 L519.194,567.419 L518.749,567.894 L518.063,567.66 L516.817,567.849 L515.607,568.803 L515.158,569.797 L514.73,570.12 L513.875,570.347 L512.89,569.95 L511.821,570.593 L510.157,570.55 L508.82,571.868 L508.228,571.552 L507.831,572.045 L506.658,572.039 L506.58,573.105 L505.393,573.793 L503.629,574.211 L503.465,574.742 L503.085,575.024 L499.806,574.408 L498.272,576.732 L497.315,577.647 L496.495,576.935 L496.262,575.887 L495.703,575.087 L493.884,573.621 L492.913,572.505 L492.661,572.009 L492.657,570.658 L490.607,571.095 L487.996,573.039 L486.566,572.411 L485.977,573.067 L484.94,573.562 L484.104,573.442 L483.079,574.623 L482.168,574.686 L481.413,574.286 L480.101,574.257 L479.209,573.479 L478.173,573.621 L477.976,573.936 L477.335,572.732 L476.016,573.094 L475.777,572.471 L473.682,572.139 L472.528,570.552 L471.977,570.41 L470.673,571.305 L470.432,572.375 L468.743,572.347 L468.187,571.489 L468.317,570.737 L467.98,570.254 L465.489,569.081 L465.156,568.504 L465.222,568.263 L466.193,567.904 L466.136,567.32 L466.528,566.95 L466.911,566.958 L467.148,566.47 L467.195,566.139 L466.311,565.15 L465.18,565.184 L464.722,564.876 L464.259,565.439 L462.569,565.644 L460.278,568.941 L459.437,569.586 L458.232,569.329 L458.22,569.922 L458.819,570.679 L460.876,571.06 L460.285,572.539 L460.614,574.725 L462.142,575.49 L463.987,575.443 L465.845,577.614 L465.954,578.607 L465.561,579.745 L465.658,580.47 L467.326,582.98 L459.974,585.392 L458.915,586.086 L458.149,587.368 L456.846,587.004 L455.084,587.389 L454.297,588.28 L453.061,588.977 L451.961,589.12 L451.25,589.809 L450.029,590.107 L450.457,592.159 L449.784,592.55 L449.83,592.88 L446.122,595.368 L445.538,596.349 L444.014,597.109 L442.011,599.544 L439.633,600.618 L437.487,603.31 L436.473,605.823 L435.178,607.088 L435.272,607.332 L435.017,607.672 L434.122,607.858 L432.032,609.227 L430.538,609.709 L430.436,610.133 L430.061,609.95 L429.744,610.26 L429.173,610.049 L427.54,611.243 L424.39,612.817 L418.812,618.255 L414.623,622.756 L410.153,626.652 L404.7,633.307 L404.026,633.722 L400.745,636.998 L398.674,637.596 L395.674,640.653 L395.581,642.456 L394.121,642.376 L393.889,642.86 L394.267,643.725 L395.24,643.13 L395.834,643.458 L396.624,643.386 L396.75,643.67 L396.208,644.592 L396.922,644.912 L397.836,644.684 L398.63,645.665 L398.868,646.341 L398.707,647.654 L398.879,648.68 L399.613,649.619 L399.628,650.26 L400.6,650.478 L399.891,651.069 L400.264,651.59 L400.274,652.195 L399.364,653.175 L399.18,653.038 L399.275,653.355 L398.994,653.49 L398.153,653.206 L398.033,653.729 L397.069,654.185 L396.41,653.253 L396.048,653.492 L396.511,654.575 L395.935,654.441 L395.266,654.712 L394.255,653.594 L394.013,652.48 L393.781,652.498 L393.667,653.128 L394.557,654.04 L394.78,654.743 L394.005,654.875 L393.879,654.113 L393.789,655.26 L393.105,655.868 L392.233,655.735 L392.116,653.736 L391.829,653.555 L391.814,654.594 L391.578,654.712 L391.379,656.126 L390.23,654.095 L390.382,655.329 L389.764,655.762 L389.783,655.271 L389.588,655.51 L389.696,657.598 L385.992,659.418 L384.357,659.69 L382.869,660.485 L380.626,662.454 L378.264,665.417 L375.474,667.65 L373.829,668.592 L366.027,669.864 L361.678,671.388 L357.493,671.041 L355.863,671.46 L355.21,671.27 L354.601,671.62 L352.084,671.689 L349.373,672.4 L346.555,673.604 L346.115,672.658 L344.328,673.116 L343.695,673.538 L342.431,673.339 L340.304,671.34 L329.721,670.032 L320.98,669.899 L309.002,671.268 L301.892,672.512 L297.491,673.632 L287.387,675.218 L284.42,676.98 L280.465,675.759 L274.132,677.131 L267.937,673.624 L257.902,669.457 L257.652,667.754 L258.098,666.454 L253.169,663.75 L248.621,663.457 L245.769,662.96 L243.424,662.263 L238.733,660.17 L236.389,660.173 L234.044,659.477 L232.483,660.18 L229.358,660.185 L227.797,660.888 L226.233,660.191 L223.889,660.196 L223.106,659.498 L222.325,659.5 L220.76,658.803 L219.979,658.805 L219.199,659.507 L215.688,665.778 L206.162,669.982 L201.644,670.308 L192.758,669.388 L185.102,670.095 L181.744,672.85 L179.606,672.583 L177.485,675.384 L172.645,674.765 L172.039,673.857 L162.657,675.701 L162.704,678.104 L158.538,678.902 L155.298,677.722 L152.637,678.313 L145.938,680.767 L142.072,680.505 L134.347,680.919 L133.425,680.169 L133.13,680.475 L132.521,680.303 L132.677,678.195 L133.95,674.319 L133.163,671.69 L134.009,670.008 L133.369,667.599 L131.955,667.292 L131.653,666.473 L131.838,662.636 L130.905,662.36 L129.501,661.2 L128.204,660.638 L127.719,657.653 L125.762,655.735 L122.808,655.77 L122.337,654.465 L121.083,653.777 L121.467,652.944 L120.165,651.642 L120.135,648.758 L119.355,647.054 L119.31,646.005 L120.244,644.683 L120.67,643.611 L121.207,643.277 L121.527,642.361 L120.287,640.456 L119.646,639.91 L119.504,638.653 L119.792,637.192 L122.24,635.711 L123.793,635.243 L124.601,634.43 L124.763,632.339 L126.232,630.503 L126.683,629.151 L126.092,625.846 L124.029,624.784 L123.602,624.037 L122.094,623.23 L122.042,622.474 L123.477,621.715 L126.757,620.82 L128.016,621.059 L128.785,621.645 L130.628,621.494 L131.647,622.103 L132.926,621.348 L133.744,621.457 L134.344,621.053 L134.594,619.242 L134.086,618.427 L131.811,617.089 L127.999,615.714 L126.323,614.475 L125.032,613.089 L125.255,610.285 L123.429,608.266 L123.121,606.705 L123.075,605.013 L124.383,601.78 L124.147,601.155 L123.275,600.781 L122.465,599.806 L122.758,597.867 L122.576,596.989 L121.959,596.134 L119.664,595.344 L118.932,594.409 L118.559,592.793 L119.034,591.23 L118.875,589.427 L117.705,589.103 L114.284,590.27 L112.725,591.716 L110.614,591.428 L108.944,592.261 L108.131,592.35 L106.579,592.384 L104.007,590.719 L101.873,590.74 L100.254,591.195 L99.0873,590.424 L96.1865,590.485 L94.7657,589.052 L92.6139,588.975 L89.4122,591.077 L87.7747,590.934 L86.4612,590.515 L83.2442,591.038 L80.9444,591.764 L79.2405,591.467 L78.2835,590.399 L77.2289,590.255 L76.007,590.312 L74.6735,590.876 L72.6185,590.854 L71.6609,590.345 L71.1719,587.613 L69.52,586.954 L67.9949,585.828 L66.9924,585.881 L65.5697,587.118 L62.2819,588.891 L61.3798,588.618 L60.8722,586.406 L60.0654,585.684 L58.4124,584.996 L57.2257,584.185 L55.4895,579.793 L54.8981,579.471 L54.2373,579.921 L53.1918,580.113 L51.1976,576.582 L48.9211,574.609 L48.1857,573.185 L50.4829,570.805 L50.3767,569.45 L48.3717,567.638 L47.5361,565.546 L48.9519,562.601 L52.5039,559.601 L52.8267,557.83 L53.8632,557.315 L53.5354,556.384 L54.4829,556.011 L55.6565,556.332 L56.3493,555.854 L56.5874,554.924 L57.7779,554.307 L57.7177,552.854 L58.6133,550.299 L58.699,547.946 L60.313,546.24 L60.2472,545.122 L58.942,544.133 L58.4869,539.596 L56.469,537.979 L53.952,536.489 L51.6789,536.81 L50.7283,537.563 L49.9463,537.75 L48.7856,537.344 L48.0155,536.398 L47.3368,534.861 L45.7499,532.453 L45.4545,531.102 L46.7935,530.635 L47.7568,531.703 L48.633,531.541 L49.4593,530.303 L50.6032,530.106 L51.7336,531.001 L53.2315,530.096 L55.2858,531.348 L57.4891,530.776 L58.3638,531.104 L60.6228,531.33 L63.7361,530.693 L64.8778,530.932 L66.464,532.881 L68.7084,536.297 L71.0965,537.667 L76.7767,539.212 L78.6106,539.532 L80.6255,539.541 L85.7352,538.358 L86.7228,539.274 L87.4608,539.214 L88.8458,538.133 L89.4247,538.567 L89.569,540.257 L90.2746,542.858 L92.0861,543.517 L93.0147,545.16 L93.9987,548.693 L94.4465,549.523 L95.9826,549.907 L97.2505,551.866 L100.907,551.055 L101.853,551.175 L103.459,552.915 L105.821,551.912 L107.535,550.809 L109.169,547.401 L110.754,547.282 L113.553,544.406 L116.096,544.799 L121.898,546.394 L123.581,546.429 L124.626,546.098 L129.148,542.896 L134.637,538.119 L140.243,534.028 L147.089,530.92 L148.654,530.624 L154.211,529.924 L155.585,530.134 L156.955,530.793 L157.475,531.411 L160.141,538.608 L163.65,543.004 L164.976,543.161 L170.292,541.237 L174.869,540.563 L175.36,537.376 L179.049,536.369 L180.147,536.221 L184.776,539.677 L186.498,539.295 L192.325,534.093 L193.693,533.367 L195.823,533.568 L200.277,537.098 L201.881,536.973 L202.878,536.548 L206.767,530.993 L209.765,527.792 L212.136,526.715 L216.972,525.4 L219.704,524.291 L224.678,519.07 L226.63,516.672 L229.107,513.16 L230.611,510.448 L228.806,508.574 L227.797,506.267 L225.99,503.639 L223.812,501.295 L221.617,499.709 L218.781,499.057 L218.512,498.292 L219.455,496.653 L221.466,490.488 L222.529,489.28 L225.255,487.612 L230.21,485.29 L237.415,480.301 L239.993,477.433 L241.219,477.147 L242.553,477.532 L243.039,478.183 L242.781,480.216 L243.334,481.83 L244.368,482.206 L246.175,480.988 L254.798,477.076 L256.361,475.428 L257.548,472.359 L259.089,471.188 L262.009,470.248 L264.146,468.747 L265.542,468.208 L267.08,468.55 L268.858,469.839 L268.995,471.208 L269.475,472.461 L270.2,473.108 L271.082,473.026 L274.18,469.691 L276.266,468.011 L274.439,462.299 L274.714,461.791 L278.208,461.908 L282.204,460.858 L284.537,461.331 L285.814,461.2 L288.416,459.891 L290.376,458.142 L292.184,458.44 L295.046,459.437 L301.055,459.511 L303.096,458.701 L304.965,457.08 L305.548,455.94 L305.021,452.77 L305.485,450.217 L306.929,446.686 L306.056,445.506 L300.566,442.752 L299.126,441.707 L299.375,440.583 L303.236,438.686 L306.573,434.697 L307.543,433.956 L310.433,432.59 L313.837,430.531 L315.862,424.544 L317.19,422.345 L318.404,421 L318.108,419.353 L317.216,416.999 L317.578,415.832 L320.634,414.676 L321.884,414.478 L322.614,410.538 L323.329,409.535 L325.488,409.732 L331.503,408.095 L334.936,407.565 L337.722,406.106 L340.181,403.979 L341.894,405.163 L343.438,407.693 L344.591,407.457 L345.37,404.146 L346.056,403.355 L347.222,402.754 L347.903,402.746 L350.021,403.396 L351.446,404.331 L351.718,405.602 L352.377,406.28 L353.826,406.657 L358.073,406.543 L365.154,407.128 L367.181,406.842 L370.089,406.197 L374.827,404.64 L377.319,403.496 L379.508,403.406 L384.454,401.96 L386.892,402.905 L389.048,404.242 L391.2,405.188 L392.766,404.743 L397.96,401.101 L400.561,399.609 L401.872,399.165 L405.163,399.739 L411.169,403.944 L413.559,404.921 L414.572,404.702 L415.88,403.88 L419.358,399.601 L420.696,396.721 L420.635,393.658 L421.162,392.353 L422.58,391.126 L424.553,390.146 L426.27,388.607 L426.304,387.251 L423.775,385.072 L423.827,383.756 L426.063,381.739 L425.287,378.386 L426.516,377.51 L428.37,376.867 L430.734,376.515 L432.898,373.352 L436.396,369.899 L438.306,368.39 L447.244,363.031 L450.137,360.802 L450.416,360.087 L450.637,357.805 L451.949,356.705 L452.907,355.05 L452.762,352.573 L453.271,350.598 L454.793,347.706 L459.407,340.728 L462.26,338.837 L466.076,335.656 L469.163,332.771 L470.742,330.79 L472.271,330.418 L480.411,330.479 L481.46,330.111 L482.509,329.392 L483.122,327.976 L483.85,324.266 L484.563,323.605 L490.302,320.785 L492.986,318.591 L502.782,320.179 L508.758,319.866 L512.61,318.287 L514.086,316.437 L514.814,314.924 L515.104,311.104 L515.706,310.234 L516.647,309.938 L519.988,307.72 L520.816,307.073 L522.104,305.265 L522.841,301.543 L522.821,300.172 L523.538,299.709 L525.598,299.969 L529.387,302.325 L531.128,302.938 L533.816,305.101 L536.356,306.594 L540.303,310.072 L542.095,312.517 L544.922,314.611 L546.599,316.428 L547.43,317.658 L548.675,318.747 L549.379,319.907 L549.763,321.264 L549.543,323.517 L548.973,325.868 L548.976,327.518 L549.757,328.315 L551.541,327.992 L557.292,325.468 L561.195,325.269 L562.646,325.66 L566.632,328.037 L568.463,328.694 L576.031,329.1 L576.541,329.645 L580.268,332.025 L582.752,333.201 L584.552,333.636 L584.999,333.174 L583.853,331.718 L581.688,329.424 L579.791,328.163 L578.981,326.961 L580.654,327.044 L587.183,330.252 L593.125,331.32 L596.263,331.603 L596.899,332.177 L598.599,335.117 L599.872,335.887 L603.613,335.991 L608.502,337.091 L611.462,337.249 L618.248,336.772 L619.839,336.903 L619.387,339.405 L619.925,340.651 L619.727,343.323 L620.868,344.346 L622.267,345.021 L625.31,344.315 L627.874,344.209 L630.272,345.432 L634.485,346.829 L638.875,347.585 L640.543,348.093 L644.488,348.707 L646.258,347.608 L647.468,347.599 L648.914,348.235 L650.265,348.421 L651.333,348.271 L652.1,347.322 L652.969,345.535 L654.394,343.779 L655.783,342.972 L656.234,342.177 L657.183,337.063 L657.179,334.811 L657.877,332.227 L658.995,331.812 L665.688,334.05 L665.481,325.98 L664.906,323.431 L664.23,321.681 L664.315,320.786 L671.763,320.176 L672.057,316.388 L672.898,314.546 L673.782,313.361 L674.772,313.268 L678.81,315.359 L679.863,315.237 L680.619,314.278 L686.862,310.984 L688.276,309.55 L689.776,307.392 L691.83,307.724 L693.671,307.079 L696.224,304.941 L696.526,302.942 L701.525,298.709 L702.372,298.713 L703.591,301.587 L704.436,301.831 L709.138,298.827 L711.228,299.135 L712.463,298.374 L714.12,297 L717.522,293.277 L729.326,294.665 L730.691,293.934 L732.563,291.907 L733.995,290.912 L734.928,290.357 L736.368,290.107 L738.235,288.667 L741.371,285.309 L744.608,282.917 L746.756,282.32 L748.484,282.154 L749.504,282.427" fill-rule="evenodd"/>
  </g>
  <g transform="matrix(1,0,0,1,0,0)" stroke="none" font-weight="400" fill="#787878" font-family=".SF NS Text" font-size="54.1667" font-style="normal" fill-opacity="1">
   <path vector-effect="none" d="M749.504,282.427 L750.374,283.233 L753.516,287.734 L755.177,289.273 L759.2,292.133 L760.4,294.646 L763.096,297.538 L764.717,300.657 L764.284,306.133 L767.398,308.568 L768.447,311.485 L770.939,313.829 L772.167,316.372 L773.617,317.672 L774.745,317.963 L777.048,317.454 L781.272,317.58 L784.318,313.962 L789.391,312.688 L792.157,309.851 L793.068,309.748 L793.987,310.149 L795.088,311.294 L795.922,313.247 L796.735,314.387 L796.57,315.993 L795.936,317.929 L793.399,320.362 L792.099,323.41 L791.393,326.017 L789.506,327.661 L783.509,328.061 L780.867,329.027 L776.162,329.329 L775.434,330.258 L774.408,330.877 L771.133,331.461 L769.541,332.746 L766.868,337.741 L764.586,339.494 L762.089,340.576 L755.071,341.646 L753.569,342.123 L757.001,344.167 L759.115,345.933 L760.723,348.52 L761.394,351.07 L761.954,352.195 L763.711,354.293 L764.422,356.048 L764.371,357.654 L763.733,359.089 L759.813,361.094 L759.639,362.505 L758.272,363.905 L761.011,366.307 L761.554,368.815 L762.822,369.077 L764.568,367.877 L771.104,365.197 L774.228,363.102 L775.373,360.553 L779.444,356.762 L780.177,355.47 L781.281,354.429 L785.595,352.254 L789.503,349.231 L792.915,348.82 L796.046,348.952 L803.295,348.429 L806.879,347.154 L808.074,345.881 L809.713,344.936 L816.14,342.101 L817.159,341.974 L811.46,352.658 L809.721,355.21 L811.279,359.674 L812.163,360.146 L813.325,359.934 L815.281,358.909 L816.126,358.806 L816.494,359.705 L816.868,362.381 L818.686,365.183 L819.189,366.586 L818.767,370.286 L818.975,372.315 L820.43,373.814 L821.405,375.587 L822.421,376.703 L822.894,377.939 L824.902,380.661 L826.198,382.06 L827.882,383.045 L829.222,384.724 L829.921,385.712 L831.096,388.745 L831.015,390.882 L830.717,391.662 L826.419,397.594 L824.309,398.658 L822.398,399.098 L818.099,399.145 L816.568,399.533 L814.347,400.751 L812.852,402.077 L811.638,402.707 L808.877,402.745 L808.536,403.314 L810.603,406.315 L812.331,409.662 L812.16,410.527 L808.875,412.963 L804.463,415.515 L803.001,416.912 L801.921,418.439 L801.06,418.766 L799.911,418.235 L798.719,417.3 L797.72,417.318 L797.569,417.918 L798.526,419.871 L798.59,422.025 L797.685,422.28 L793.046,421.995 L790.537,422.543 L788.775,424.021 L787.467,425.965 L786.049,426.663 L785.835,427.234 L790.271,429.642 L792.371,431.228 L793.163,432.468 L793.349,433.98 L792.417,435.144 L788.454,436.614 L787.476,437.736 L785.736,438.935 L778.08,443.741 L776.755,444.82 L776.416,445.39 L776.978,445.884 L780.14,446.124 L782.743,446.75 L784.389,449.286 L785.094,449.639 L793.002,448.389 L793.607,449.486 L794.397,453.088 L796.276,453.316 L797.392,456.139 L799.453,455.797 L801.027,455.142 L801.669,453.206 L802.457,448.81 L803.567,447.367 L806.532,444.548 L809.899,443.717 L812.49,443.886 L814.583,444.706 L816.113,443.927 L818.242,442.176 L820.919,441.004 L822.225,439.327 L825.334,437.77 L828.285,437.288 L834.564,437.628 L838.494,437.383 L841.101,439.653 L844.928,441.797 L846.578,442.503 L849.23,442.845 L851.865,444.262 L852.861,445.24 L853.734,446.984 L854.376,449.243 L855.46,451.674 L856.73,452.251 L858.977,452.238 L861.216,452.617 L867.51,452.591 L869.104,451.048 L873.979,449.843 L874.706,449.882 L876.501,452.142 L877.996,453.394 L878.139,455.13 L878.908,456.245 L883.069,457.044 L886.357,459.579 L888.361,459.818 L889.83,460.749 L893.889,459.2 L896.011,457.276 L897.402,454.879 L898.41,454.266 L900.628,454.047 L904.724,452.476 L907.852,454.159 L909.885,454.582 L910.485,455.332 L913.91,458.041 L914.962,459.148 L916.591,462.989 L917.289,463.487 L920.184,464.22 L925.087,463.377 L926.62,466.351 L927.707,467.234 L931.874,466.759 L934.031,467.075 L937.781,468.996 L937.984,469.907 L938.816,470.886 L941.04,471.049 L942.025,471.527 L944.743,473.627 L946.851,474.054 L948.346,474.99 L952.349,478.902 L952.324,479.99 L951.053,480.346 L947.928,478.908 L946.619,479.515 L945.945,480.761 L941.533,484.709 L940.584,486.998 L940.892,488.024 L942.951,490.685 L942.791,491.464 L938.317,495.539 L937.933,498.048 L938.557,499.161 L939.649,499.613 L941.632,499.884 L946.955,499.472 L948.114,499.143 L948.182,500.332 L947.248,501.909 L948.654,503.986 L949.445,503.819 L951.979,504.771 L954.545,506.338 L953.995,507.726 L950.831,508.215 L949.519,511.239 L948.788,512.218 L948.853,515.783 L948.395,518.709 L950.254,520.837 L950.257,521.479 L948.842,522.81 L949.029,523.652 L950.227,525.042 L950.453,526.178 L948.821,526.68 L947.713,527.639 L946.7,527.915 L943.408,526.518 L939.945,527.215 L940.381,523.743 L940.111,523.067 L938.96,521.665 L938.03,520.922 L929.933,524.074 L928.498,524.944 L926.878,527.111 L921.574,531.065 L919.546,533.227 L919.154,533.935 L918.355,534.577 L916.182,535.424 L916.349,536.489 L915.022,537.544 L911.46,538.705 L910.93,540.04 L909.428,541.274 L906.05,542.054 L905.42,542.806 L906.402,544.889 L905.844,546.125 L905.885,547.396 L904.361,549.926 L903.907,550.003 L902.431,549.484 L902.35,549.192 L901.911,549.227 L900.298,547.688 L899.522,547.863 L898.624,548.974 L898.131,549.133 L897.504,548.635 L897.009,547.77 L895.652,547.554 L895.645,548.578 L895.338,548.798 L894.247,548.703 L893.755,549.095 L893.321,549.966 L893.714,550.399 L893.574,550.919 L893.005,551.312 L892.17,552.541 L892.068,553.633 L891.246,554.036 L890.598,555.007 L889.718,555.647 L889.283,556.776 L888.501,557.415 L888.114,558.299 L887.879,559.86 L888.131,560.418 L887.248,560.85 L886.049,560.212 L885.536,561.023 L883.154,560.737 L882.475,561.077 L882.078,560.842 L880.706,561.168 L880.381,562.505 L879.929,563.22 L879.97,563.68 L878.891,564.627 L878.579,565.622 L877.208,566.258 L877.009,566.549 L877.07,567.26 L875.811,568.578 L875.069,568.241 L874.158,568.259 L873.683,569.814 L874.008,570.413 L874.104,572.122 L873.745,573.921 L876.073,573.556 L876.56,573.92 L876.688,574.388 L876.314,575.661 L876.766,577.133 L876.464,577.724 L876.299,579.356 L878.296,580.539 L879.373,582.036 L879.287,583.039 L879.556,584.343 L880.74,584.937 L879.295,584.989 L878.544,585.783 L878.548,586.162 L877.95,586.725 L877.307,587.985 L876.885,588.29 L876.839,589.163 L876.407,589.591 L876.375,590.182 L875.964,590.768 L875.786,593.544 L876.552,594.245 L877.801,594.535 L879.016,595.916 L880.277,596.866 L880.466,597.624 L880.121,598.099 L880.157,598.684 L880.647,599.35 L881.478,599.661 L882.093,600.361 L883.582,600.658 L884.637,601.111 L884.931,601.474 L884.622,602.569 L885.068,603.515 L885.569,603.924 L885.744,604.642 L884.887,605.921 L886.234,606.992 L887.449,608.489 L887.818,610.121 L889.25,610.396 L889.66,611.64 L890.121,612.144 L890.05,613.377 L890.517,614.313 L891.893,615.094 L892.112,615.597 L893.075,615.207 L894.526,616.258 L895.117,615.91 L895.395,616.488 L895.221,616.971 L896.169,617.983 L896.601,619.367 L897.047,619.983 L898.031,620.215 L898.582,620.646 L898.627,620.995 L899.244,621.071 L899.273,622.594 L901.343,623.83 L902.198,624.816 L902.194,625.41 L904.437,626.706 L904.754,627.356 L904.777,628.404 L905.101,628.754 L904.79,630.623 L905.344,630.814 L906.616,632.095 L907.392,632.488 L907.913,633.201 L909.653,634.217 L909.597,635.245 L910.068,636.647 L910.744,637.194 L911.273,637.28 L911.889,638.08 L912.525,638.313 L913.542,638.102 L914.17,640.578 L915.376,640.961 L916.116,641.687 L916.446,642.783 L915.694,643.744 L915.809,644.624 L914.916,645.33 L913.943,645.495 L913.671,646.153 L913.724,647.071 L913.087,647.647 L913.073,648.24 L912.185,649.545 L911.79,649.154 L910.138,648.882 L909.656,648.492 L909.23,647.555 L907.105,647.505 L906.329,646.836 L905.452,647.604 L905.95,648.427 L905.769,648.729 L904.405,648.95 L903.421,648.451 L903.016,648.619 L902.634,648.349 L902.334,648.527 L902.099,649.443 L901.753,649.802 L901.019,649.422 L900.596,649.501 L900.368,648.351 L899.845,648.215 L898.836,647.244 L898.265,647.353 L897.657,646.924 L897.652,646.243 L897.198,645.778 L896.011,645.359 L896.376,644.481 L895.499,643.363 L894.973,643.657 L894.617,643.253 L893.845,643.118 L892.106,641.996 L889.658,641.99 L889.294,641.008 L888.307,639.799 L885.387,639.236 L885.178,638.726 L883.924,638.27 L883.482,638.581 L881.917,638.311 L881.301,638.632 L880.107,638.673 L879.539,638.352 L878.895,638.342 L878.694,638.091 L877.286,637.991 L876.658,637.604 L875.469,637.599 L870.25,635.094 L869.866,634.601 L868.563,633.892 L868.501,633.525 L868.839,633.027 L868.785,632.101 L868.238,631.055 L869.083,631.074 L870.167,629.972 L871.645,629.522 L873.032,628.551 L872.967,627.714 L873.373,627.219 L872.574,627.049 L872.393,626.55 L872.538,626.051 L873.312,625.617 L873.386,625.322 L873.196,624.405 L872.812,624.067 L872.825,623.396 L870.465,623.638 L869.501,623.478 L868.534,622.904 L867.688,621.907 L867.028,621.621 L867.524,620.609 L867.213,618.716 L865.757,617.666 L865.686,617.211 L865.262,616.801 L863.197,615.81 L861.763,613.79 L860.545,612.685 L860.11,611.305 L859.257,610.123 L858.1,610.126 L856.95,609.415 L855.789,609.126 L854.619,608.336 L853.851,608.883 L853.033,608.789 L852.217,609.066 L851.801,608.568 L851.465,608.601 L851.269,608.17 L850.431,608.277 L848.83,608.017 L848.844,607.612 L847.521,607.372 L846.052,606.37 L844.916,606.025 L844.409,607.522 L844.622,607.919 L843.903,608.281 L840.48,607.706 L840.305,608.2 L839.996,608.282 L839.428,607.637 L838.845,607.728 L838.116,607.242 L836.048,608.024 L832.743,606.927 L829.638,607.022 L829.227,608.098 L828.665,608.568 L828.842,608.718 L827.391,609.791 L828.069,610.945 L828.165,612.022 L826.982,611.685 L825.644,612.461 L824.82,613.516 L823.696,613.795 L823.235,614.344 L822.206,614.371 L821.772,614.075 L821.151,614.389 L821.183,615.118 L819.845,615.841 L819.936,616.848 L819.656,617.194 L818.833,617.344 L818.151,617.792 L816.924,619.35 L816.231,619.28 L815.995,619.467 L815.707,618.866 L815.122,618.417 L815.072,617.78 L814.652,617.712 L814.437,617.379 L813.453,617.404 L811.745,616.835 L811.521,617.029 L811.617,617.769 L811.43,617.821 L810.838,617.482 L808.615,617.098 L807.449,616.282 L806.706,616.196 L806.308,616.827 L805.653,617.04 L805.37,616.793 L804.614,616.921 L804.062,616.243 L803.309,616.859 L801.077,617.002 L798.956,619.124 L798.157,618.273 L797.976,618.604 L795.628,619.59 L794.987,619.294 L793.854,619.544 L793.429,618.943 L792.988,618.769 L792.637,619.276 L791.229,618.753 L790.359,618.018 L789.889,618.317 L789.851,618.987 L789.378,619.489 L788.492,619.571 L787.04,619.206 L786.93,618.802 L786.25,618.955 L785.851,618.697 L783.919,618.434 L783.416,618.122 L781.41,618.566 L779.75,619.57 L778.262,619.8 L778.442,620.385 L777.836,621.659 L776.283,621.385 L775.935,621.527 L775.369,621.139 L774.204,621.446 L773.798,620.852 L771.707,620.906 L771.193,620.511 L770.532,621.467 L769.029,622.527 L768.486,622.617 L768.23,623.214 L767.821,623.16 L767.541,623.396 L765.817,623.194 L764.484,625.104 L760.136,625.374 L759.802,625.222 L758.714,626.122 L756.886,626.329 L755.93,627.095 L755.047,627.208 L754.41,627.847 L753.103,627.81 L751.113,628.996 L749.697,629.124 L749.546,629.603 L748.627,630.624 L747.84,631.098 L747.722,631.454 L746.854,631.956 L745.688,631.823 L745.561,632.148 L744.661,632.474 L744.134,633.36 L741.314,634.902 L740.679,634.891 L739.27,635.833 L738.541,637.474 L738.643,638.655 L738.109,639.542 L738.199,640.02 L737.258,641.131 L737.334,641.666 L735.917,642.735 L735.58,642.74 L734.509,644.67 L733.791,645.285 L733.386,646.311 L732.481,646.804 L730.708,648.463 L730.669,648.93 L730.098,649.343 L730.272,650.281 L728.903,651.639 L728.467,653.521 L727.35,655.761 L726.83,655.714 L726.539,656.118 L726.203,656.053 L725.55,656.558 L724.283,656.765 L723.662,657.284 L721.833,658.056 L720.884,657.67 L720.381,658.705 L719.328,659.726 L718.59,660.015 L718.058,659.666 L717.008,660.2 L716.511,660.649 L716.46,661.411 L715.644,661.692 L714.508,661.598 L713.731,661.889 L712.651,661.457 L711.368,661.518 L709.562,662.565 L708.845,662.189 L706.869,661.835 L706.694,661.483 L705.11,661.39 L704.88,661.775 L705.069,662.715 L704.155,664.016 L702.192,665.259 L701.845,667.184 L699.864,667.294 L699.362,668.568 L698.611,669.331 L698.665,670.079 L698.418,670.626 L697.822,670.864 L698.396,672.069 L698.533,673.538 L697.925,673.891 L697.826,674.677 L696.69,675.175 L696.933,675.504 L696.601,675.643 L696.465,676.827 L697.1,677.828 L696.495,678.565 L696.23,679.806 L695.542,680.182 L694.612,680.164 L692.835,682.097 L691.833,682.497 L690.159,682.24 L690.189,681.964 L688.405,680.456 L687.158,679.958 L686.132,679.932 L685.406,679.051 L684.18,678.775 L682.958,680.079 L681.947,680.565 L681.71,681.142 L680.9,681.629 L680.571,682.935 L679.679,682.863 L678.648,683.296 L679.063,684.127 L677.829,685.128 L678.272,685.752 L677.884,688.092 L676.965,689.771 L675.62,690.96 L675.001,692.681 L673.867,693.001 L672.853,692.385 L671.555,692.069 L669.051,692.194 L668.334,691.766 L667.009,690.131 L667.027,689.668 L666.343,689.83 L664.952,689.233 L664.203,689.882 L663.86,690.543 L663.12,690.514 L662.081,691.214 L661.728,692.628 L660.416,693.223 L659.36,693.364 L659.387,693.952 L658.876,695.463 L658.992,695.891 L658.528,696.786 L657.985,697.261 L657.43,698.588 L657.013,698.918 L656.591,700.379 L655.866,701.176 L655.435,702.426 L655.563,702.977 L654.211,703.963 L653.186,703.451 L651.95,703.583 L651.01,705.127 L649.805,706.37 L648.306,707.268 L647.758,707.865 L647.522,709.232 L647.82,709.833 L647.501,710.223 L645.545,711.239 L643.267,711.09 L642.922,711.96 L641.901,712.575 L638.735,712.704 L637.583,714.062 L636.595,714.732 L634.755,714.471 L634.752,714.139 L634.153,714.059 L632.705,714.313 L632.619,714.584 L631.444,715.128 L631.323,715.721 L630.015,715.685 L629.387,716.003 L627.786,717.846 L626.585,717.529 L626.225,717.638 L623.272,716.609 L620.994,717.147 L620.512,716.137 L620.77,714.54 L620.648,713.926 L619.392,712.723 L617.962,712.991 L616.851,712.809 L616.438,711.156 L616.632,710.651 L616.484,710.097 L616.847,709.329 L616.463,708.745 L615.752,708.637 L615.94,707.731 L615.178,706.76 L613.298,705.802 L614.772,703.124 L614.233,703.04 L614.061,702.762 L614.313,701.604 L614.983,701.533 L615.535,700.669 L616.578,700.143 L616.798,699.655 L616.075,699.194 L616.224,698.548 L616.775,698.424 L616.74,698.188 L617.207,698.344 L617.245,697.977 L618.258,697.692 L618.3,697.296 L617.656,697.427 L617.553,697.169 L617.849,697.092 L617.697,696.933 L616.851,696.764 L616.205,696.973 L615.544,696.541 L614.435,696.399 L613.043,695.487 L612.92,695.048 L613.572,695.049 L613.619,694.805 L613.115,694.173 L612.493,693.998 L611.783,692.53 L611.764,691.827 L611.344,691.226 L611.659,690.399 L611.249,689.999 L611.466,689.282 L611.292,689.131 L612.302,687.939 L612.213,687.542 L611.754,687.825 L610.743,687.262 L610.772,687.713 L609.738,687.318 L609.448,686.29 L608.806,686.041 L608.897,685.23 L609.588,684.538 L611.689,683.726 L613.01,682.477 L613.102,681.964 L614.063,681.767 L615.019,682.237 L616.109,682.207 L616.45,681.754 L616.349,680.6 L615.892,680.031 L616.213,679.872 L616.395,679.123 L616.751,678.787 L616.221,677.933 L616.445,677.407 L616.187,677.219 L616.775,676.752 L616.705,676.171 L616.33,676.018 L616.416,675.718 L615.119,674.814 L613.645,674.559 L613.075,672.951 L612.795,672.718 L612.939,671.858 L613.242,671.771 L613.163,671.38 L612.829,671.254 L613.162,671.082 L612.164,670.589 L612.077,670.226 L612.263,670.276 L612.523,669.757 L612.98,669.761 L613.111,669.338 L613.517,669.256 L613.51,668.953 L612.737,668.396 L612.539,668.472 L612.258,668.146 L612.317,667.785 L612.008,667.774 L611.957,667.278 L612.346,667.252 L612.484,666.971 L612.124,666.512 L611.861,666.431 L611.748,666.729 L611.401,666.359 L611.072,666.54 L610.441,666.073 L610.674,665.825 L610.389,665.791 L610.485,665.083 L610.289,664.827 L611.288,664.215 L610.93,658.871 L611.153,658.775 L611.227,657.978 L612.244,658.15 L612.468,657.865 L612.562,658.687 L612.865,658.699 L612.91,658.992 L613.392,658.911 L613.215,659 L613.402,659.288 L613.893,658.912 L614.132,659.036 L614.719,658.758 L615.392,658.121 L615.909,658.375 L616.444,658.177 L616.563,657.652 L616.291,657.275 L616.741,657.084 L616.863,657.902 L617.864,658.071 L618.541,659.672 L618.943,660.021 L620.514,658.997 L620.888,659.018 L620.803,658.469 L621.055,658.201 L621.57,658.275 L622.84,657.328 L623.7,657.143 L623.501,656.879 L623.786,656.221 L623.407,655.966 L623.575,655.622 L625.979,653.405 L627.252,652.853 L629.85,650.875 L631.782,650.124 L635.734,647.605 L637.306,646.942 L637.918,647.034 L637.128,647.816 L638.282,648.088 L638.114,649.065 L638.819,649.346 L640.113,648.489 L639.953,648.167 L640.365,647.352 L642.52,646.859 L645.946,644.214 L648.885,644.194 L649.039,643.756 L649.679,643.748 L649.32,643.345 L649.628,642.752 L650.387,642.849 L650.404,643.61 L651.003,643.648 L651.761,642.328 L651.514,641.925 L651.655,641.37 L652.389,640.514 L651.991,639.881 L651.01,639.324 L652.436,638.646 L652.9,637.925 L652.775,637.018 L651.971,636.478 L653.069,635.557 L652.072,634.054 L652.427,633.583 L651.913,633.419 L651.801,632.682 L651.409,632.319 L651.67,631.349 L653.155,630.639 L653.215,629.872 L653.974,629.776 L653.824,629.189 L654.751,628.563 L655.093,627.912 L654.967,627.431 L655.599,627.05 L655.807,626.317 L657.019,625.652 L658.189,625.553 L658.97,625.06 L659.668,623.095 L660.024,623.115 L660.889,623.796 L662.181,622.834 L662.569,622.933 L662.879,622.707 L662.939,623.201 L663.305,623.183 L663.596,622.7 L663.694,623.17 L663.998,623.022 L664.76,623.563 L665.24,623.413 L665.764,623.826 L665.722,624.35 L666.298,624.472 L666.149,624.891 L666.544,625.138 L667.248,625.119 L668.213,625.787 L669.816,625.946 L669.902,626.545 L670.223,626.809 L669.803,627.385 L670.375,627.74 L670.717,628.4 L671.108,628.292 L671.35,628.853 L671.82,629.155 L674.338,628.956 L675.392,628.432 L675.637,628.027 L676.496,627.913 L676.696,627.676 L678.759,628.11 L685.53,625.431 L686.384,624.691 L688.062,624.463 L689.48,625.182 L690.467,624.952 L691.103,624.52 L691.382,624.924 L692.378,625.042 L693.451,623.465 L694.623,623.351 L694.854,622.906 L695.773,622.379 L696.639,622.52 L698.059,622.071 L699.348,622.285 L700.91,621.798 L701.581,621.899 L701.737,621.479 L702.913,620.818 L702.871,620.52 L704.005,619.918 L704.674,619.948 L704.884,619.649 L705.152,619.854 L704.66,620.845 L705.603,620.962 L705.545,621.403 L707.129,620.537 L708.36,620.486 L712.573,619.289 L713.938,619.191 L713.088,620.435 L713.492,621.696 L714.639,622.412 L715.499,623.407 L716.603,623.467 L717.35,624.045 L719.073,624.142 L719.344,623.889 L719.413,623.255 L719.248,622.237 L720.161,622.065 L720.258,621.202 L720.92,621.253 L719.795,620.226 L719.814,619.975 L720.418,619.703 L721.185,619.967 L721.358,618.92 L722.32,618.895 L722.536,618.449 L723.035,618.553 L724.915,617.168 L726.068,617.083 L726.713,616.4 L727.473,616.624 L728.527,615.827 L729.552,615.513 L729.013,615.263 L728.779,614.471 L729.705,614.662 L729.974,613.624 L730.96,613.738 L731.957,613.419 L731.42,612.957 L730.743,613.231 L730.367,612.889 L731.253,612.124 L731.34,611.546 L732.109,611.417 L733.712,610.141 L734.073,608.454 L734.706,608.231 L735.203,608.474 L736.131,607.796 L736.914,607.813 L737.715,607.131 L738.498,607.148 L738.517,606.449 L735.462,603.587 L735.199,602.547 L734.737,602.269 L734.217,601.345 L733.353,601.021 L733.157,599.876 L731.724,599.949 L731.13,599.4 L731.217,599.102 L731.894,599.004 L731.932,598.705 L731.729,598.348 L731.037,598.069 L730.996,597.388 L730.393,597.524 L730.253,598.912 L729.824,598.918 L730.043,597.492 L729.599,597.211 L729.042,597.604 L728.732,598.669 L728.172,597.996 L727.25,597.582 L727.6,596.596 L726.649,595.93 L725.584,596.186 L724.567,595.747 L723.072,596.328 L721.934,596.166 L721.483,596.386 L720.247,598.298 L720.039,599.717 L718.85,601.522 L718.034,601.997 L717.77,601.322 L718.432,600.317 L718.322,599.903 L717.759,599.537 L717.912,596.731 L717.645,596.236 L716.952,596.112 L716.474,596.318 L715.733,597.626 L713.603,598.629 L713.584,599.286 L714.426,599.923 L714.434,600.246 L714.068,600.468 L712.955,599.988 L712.499,598.95 L711.645,598.365 L711.309,597.41 L712.076,596.101 L712.004,595.733 L712.414,595.261 L713.543,594.747 L713.011,592.89 L713.511,592.215 L715.704,591.379 L715.835,589.914 L716.199,589.131 L716.052,587.64 L716.263,587.257 L717.151,586.671 L718.209,586.663 L717.812,586.048 L716.961,585.453 L716.502,584.285 L716.914,583.303 L716.627,579.346 L716.495,579.005 L716.171,578.925 L715.644,579.192 L714.454,579.178 L714.161,579.529 L712.947,578.028 L711.144,576.592 L710.373,577.025 L709.916,576.907 L708.38,574.666 L706.969,574.702 L706.595,573.311 L706.885,572.419 L707.607,571.425 L707.196,570.916 L705.611,570.564 L704.022,571.072 L703.296,570.765 L703.108,570.09 L703.249,568.891 L702.443,568.291 L701.652,568.134 L701.387,567.707 L701.418,566.993 L701.58,566.736 L703.119,566.632 L702.933,565.309 L703.883,564.685 L703.996,564.692 L704.055,564.825 L704.132,564.842 L704.093,564.242 L703.22,563.772 L702.862,563.897 L702.61,563.531 L700.767,562.836 L700.164,561.766 L700.558,561.094 L700.403,560.776 L700.893,559.191 L701.501,558.731 L703.269,558.288 L702.602,558.039 L702.442,557.514 L702.113,557.59 L702.101,557.192 L701.217,557.14 L700.61,557.551 L699.766,557.227 L699.656,556.685 L699.382,556.641 L699.132,556.178 L699.435,555.587 L699.253,555.257 L699.791,554.886 L698.996,553.813 L699.194,553.486 L698.936,553.17 L699.378,552.938 L697.646,552.355 L697.348,551.968 L697.382,551.454 L697.64,551.226 L698.396,551.019 L699.411,551.12 L701.551,549.985 L701.732,549.488 L701.334,548.628 L701.027,546.898 L702.715,545.961 L703.879,544.503 L704.801,543.787 L705.354,542.097 L706.228,541.403 L706.439,540.248 L707.328,539.293 L708.868,538.359 L710.649,538.124 L710.6,535.972 L713.178,535.056 L715.66,534.646 L717.714,532.564 L718.458,530.941 L718.875,530.898 L718.736,530.411 L719.525,530.817 L719.434,530.099 L721.01,530.082 L720.474,529.406 L720.51,529.097 L720.767,529.029 L721.267,529.481 L721.578,529.06 L721.378,528.791 L721.906,528.83 L721.815,528.486 L722.501,527.968 L722.886,527.238 L722.658,526.727 L723.261,527.217 L724.136,527.05 L723.466,526.591 L722.852,526.536 L722.651,525.855 L722.988,525.749 L723.922,526.054 L723.229,524.978 L724.273,524.933 L724.329,524.383 L724.565,524.411 L724.663,524.964 L726.098,524.489 L725.173,524.188 L724.871,523.785 L726.61,523.341 L725.755,523.049 L726.161,522.268 L726.859,522.553 L727.552,521.505 L728.415,521.095 L727.773,520.429 L728.736,519.374 L727.88,519.373 L727.734,518.457 L728.705,517.834 L730.354,516.202 L731.297,514.488 L708.449,513.131 L674.566,515.744 L672.772,516.96 L671.595,518.517 L670.027,518.056 L668.879,518.645 L668.294,519.672 L668.097,521.224 L666.591,522.082 L665.171,522.529 L664.787,523.238 L665.109,524.244 L664.438,524.758 L663.523,524.498 L662.302,525.664 L661.7,526.851 L660.535,527.386 L660.51,527.869 L660.535,527.386 L639.582,533.637 L628.605,529.168 L619.348,531.95 L557.86,550.931 L557.25,552.558 L557.161,554.347 L556.097,555.115 L552.968,556.438 L551.03,556.454 L549.278,555.887 L548.775,555.957 L548.486,557.056 L548.049,557.507 L547.283,557.705 L546.439,558.356 L544.967,558.384 L543.69,560.628 L542.664,561.325 L540.66,561.427 L539.784,560.9 L538.738,560.708 L538.143,560.014 L537.426,560.337 L536.73,561.792 L535.648,561.94 L534.323,561.185 L532.836,561.141 L532.373,560.613 L531.736,561.383 L532.178,562.807 L531.562,563.596 L531.009,563.711 L530.022,563.391 L528.458,563.684 L527.644,564.233 L525.981,564.809 L525.159,566.146 L523.891,566.965 L523.158,566.906 L522.385,566.4 L521.981,566.842 L520.976,566.995 L519.768,567.824 L519.194,567.419 L518.749,567.894 L518.063,567.66 L516.817,567.849 L515.607,568.803 L515.158,569.797 L514.73,570.12 L513.875,570.347 L512.89,569.95 L511.821,570.593 L510.157,570.55 L508.82,571.868 L508.228,571.552 L507.831,572.045 L506.658,572.039 L506.58,573.105 L505.393,573.793 L503.629,574.211 L503.465,574.742 L503.085,575.024 L499.806,574.408 L498.272,576.732 L497.315,577.647 L496.495,576.935 L496.262,575.887 L495.703,575.087 L493.884,573.621 L492.913,572.505 L492.661,572.009 L492.657,570.658 L490.607,571.095 L487.996,573.039 L486.566,572.411 L485.977,573.067 L484.94,573.562 L484.104,573.442 L483.079,574.623 L482.168,574.686 L481.413,574.286 L480.101,574.257 L479.209,573.479 L478.173,573.621 L477.976,573.936 L477.335,572.732 L476.016,573.094 L475.777,572.471 L473.682,572.139 L472.528,570.552 L471.977,570.41 L470.673,571.305 L470.432,572.375 L468.743,572.347 L468.187,571.489 L468.317,570.737 L467.98,570.254 L465.489,569.081 L465.156,568.504 L465.222,568.263 L466.193,567.904 L466.136,567.32 L466.528,566.95 L466.911,566.958 L467.148,566.47 L467.195,566.139 L466.311,565.15 L465.18,565.184 L464.722,564.876 L464.259,565.439 L462.569,565.644 L460.278,568.941 L459.437,569.586 L458.232,569.329 L458.22,569.922 L458.819,570.679 L460.876,571.06 L460.285,572.539 L460.614,574.725 L462.142,575.49 L463.987,575.443 L465.845,577.614 L465.954,578.607 L465.561,579.745 L465.658,580.47 L467.326,582.98 L459.974,585.392 L458.915,586.086 L458.149,587.368 L456.846,587.004 L455.084,587.389 L454.297,588.28 L453.061,588.977 L451.961,589.12 L451.25,589.809 L450.029,590.107 L450.457,592.159 L449.784,592.55 L449.83,592.88 L446.122,595.368 L445.538,596.349 L444.014,597.109 L442.011,599.544 L439.633,600.618 L437.487,603.31 L436.473,605.823 L435.178,607.088 L435.272,607.332 L435.017,607.672 L434.122,607.858 L432.032,609.227 L430.538,609.709 L430.436,610.133 L430.061,609.95 L429.744,610.26 L429.173,610.049 L427.54,611.243 L424.39,612.817 L418.812,618.255 L414.623,622.756 L410.153,626.652 L404.7,633.307 L404.026,633.722 L400.745,636.998 L398.674,637.596 L395.674,640.653 L395.581,642.456 L394.121,642.376 L393.889,642.86 L394.267,643.725 L395.24,643.13 L395.834,643.458 L396.624,643.386 L396.75,643.67 L396.208,644.592 L396.922,644.912 L397.836,644.684 L398.63,645.665 L398.868,646.341 L398.707,647.654 L398.879,648.68 L399.613,649.619 L399.628,650.26 L400.6,650.478 L399.891,651.069 L400.264,651.59 L400.274,652.195 L399.364,653.175 L399.18,653.038 L399.275,653.355 L398.994,653.49 L398.153,653.206 L398.033,653.729 L397.069,654.185 L396.41,653.253 L396.048,653.492 L396.511,654.575 L395.935,654.441 L395.266,654.712 L394.255,653.594 L394.013,652.48 L393.781,652.498 L393.667,653.128 L394.557,654.04 L394.78,654.743 L394.005,654.875 L393.879,654.113 L393.789,655.26 L393.105,655.868 L392.233,655.735 L392.116,653.736 L391.829,653.555 L391.814,654.594 L391.578,654.712 L391.379,656.126 L390.23,654.095 L390.382,655.329 L389.764,655.762 L389.783,655.271 L389.588,655.51 L389.696,657.598 L385.992,659.418 L384.357,659.69 L382.869,660.485 L380.626,662.454 L378.264,665.417 L375.474,667.65 L373.829,668.592 L366.027,669.864 L361.678,671.388 L357.493,671.041 L355.863,671.46 L355.21,671.27 L354.601,671.62 L352.084,671.689 L349.373,672.4 L346.555,673.604 L346.115,672.658 L344.328,673.116 L343.695,673.538 L342.431,673.339 L340.304,671.34 L329.721,670.032 L320.98,669.899 L309.002,671.268 L301.892,672.512 L297.491,673.632 L287.387,675.218 L284.42,676.98 L280.465,675.759 L274.132,677.131 L267.937,673.624 L257.902,669.457 L257.652,667.754 L258.098,666.454 L253.169,663.75 L248.621,663.457 L245.769,662.96 L243.424,662.263 L238.733,660.17 L236.389,660.173 L234.044,659.477 L232.483,660.18 L229.358,660.185 L227.797,660.888 L226.233,660.191 L223.889,660.196 L223.106,659.498 L222.325,659.5 L220.76,658.803 L219.979,658.805 L219.199,659.507 L215.688,665.778 L206.162,669.982 L201.644,670.308 L192.758,669.388 L185.102,670.095 L181.744,672.85 L179.606,672.583 L177.485,675.384 L172.645,674.765 L172.039,673.857 L162.657,675.701 L162.704,678.104 L158.538,678.902 L155.298,677.722 L152.637,678.313 L145.938,680.767 L142.072,680.505 L134.347,680.919 L133.425,680.169 L133.13,680.475 L132.521,680.303 L132.677,678.195 L133.95,674.319 L133.163,671.69 L134.009,670.008 L133.369,667.599 L131.955,667.292 L131.653,666.473 L131.838,662.636 L130.905,662.36 L129.501,661.2 L128.204,660.638 L127.719,657.653 L125.762,655.735 L122.808,655.77 L122.337,654.465 L121.083,653.777 L121.467,652.944 L120.165,651.642 L120.135,648.758 L119.355,647.054 L119.31,646.005 L120.244,644.683 L120.67,643.611 L121.207,643.277 L121.527,642.361 L120.287,640.456 L119.646,639.91 L119.504,638.653 L119.792,637.192 L122.24,635.711 L123.793,635.243 L124.601,634.43 L124.763,632.339 L126.232,630.503 L126.683,629.151 L126.092,625.846 L124.029,624.784 L123.602,624.037 L122.094,623.23 L122.042,622.474 L123.477,621.715 L126.757,620.82 L128.016,621.059 L128.785,621.645 L130.628,621.494 L131.647,622.103 L132.926,621.348 L133.744,621.457 L134.344,621.053 L134.594,619.242 L134.086,618.427 L131.811,617.089 L127.999,615.714 L126.323,614.475 L125.032,613.089 L125.255,610.285 L123.429,608.266 L123.121,606.705 L123.075,605.013 L124.383,601.78 L124.147,601.155 L123.275,600.781 L122.465,599.806 L122.758,597.867 L122.576,596.989 L121.959,596.134 L119.664,595.344 L118.932,594.409 L118.559,592.793 L119.034,591.23 L118.875,589.427 L117.705,589.103 L114.284,590.27 L112.725,591.716 L110.614,591.428 L108.944,592.261 L108.131,592.35 L106.579,592.384 L104.007,590.719 L101.873,590.74 L100.254,591.195 L99.0873,590.424 L96.1865,590.485 L94.7657,589.052 L92.6139,588.975 L89.4122,591.077 L87.7747,590.934 L86.4612,590.515 L83.2442,591.038 L80.9444,591.764 L79.2405,591.467 L78.2835,590.399 L77.2289,590.255 L76.007,590.312 L74.6735,590.876 L72.6185,590.854 L71.6609,590.345 L71.1719,587.613 L69.52,586.954 L67.9949,585.828 L66.9924,585.881 L65.5697,587.118 L62.2819,588.891 L61.3798,588.618 L60.8722,586.406 L60.0654,585.684 L58.4124,584.996 L57.2257,584.185 L55.4895,579.793 L54.8981,579.471 L54.2373,579.921 L53.1918,580.113 L51.1976,576.582 L48.9211,574.609 L48.1857,573.185 L50.4829,570.805 L50.3767,569.45 L48.3717,567.638 L47.5361,565.546 L48.9519,562.601 L52.5039,559.601 L52.8267,557.83 L53.8632,557.315 L53.5354,556.384 L54.4829,556.011 L55.6565,556.332 L56.3493,555.854 L56.5874,554.924 L57.7779,554.307 L57.7177,552.854 L58.6133,550.299 L58.699,547.946 L60.313,546.24 L60.2472,545.122 L58.942,544.133 L58.4869,539.596 L56.469,537.979 L53.952,536.489 L51.6789,536.81 L50.7283,537.563 L49.9463,537.75 L48.7856,537.344 L48.0155,536.398 L47.3368,534.861 L45.7499,532.453 L45.4545,531.102 L46.7935,530.635 L47.7568,531.703 L48.633,531.541 L49.4593,530.303 L50.6032,530.106 L51.7336,531.001 L53.2315,530.096 L55.2858,531.348 L57.4891,530.776 L58.3638,531.104 L60.6228,531.33 L63.7361,530.693 L64.8778,530.932 L66.464,532.881 L68.7084,536.297 L71.0965,537.667 L76.7767,539.212 L78.6106,539.532 L80.6255,539.541 L85.7352,538.358 L86.7228,539.274 L87.4608,539.214 L88.8458,538.133 L89.4247,538.567 L89.569,540.257 L90.2746,542.858 L92.0861,543.517 L93.0147,545.16 L93.9987,548.693 L94.4465,549.523 L95.9826,549.907 L97.2505,551.866 L100.907,551.055 L101.853,551.175 L103.459,552.915 L105.821,551.912 L107.535,550.809 L109.169,547.401 L110.754,547.282 L113.553,544.406 L116.096,544.799 L121.898,546.394 L123.581,546.429 L124.626,546.098 L129.148,542.896 L134.637,538.119 L140.243,534.028 L147.089,530.92 L148.654,530.624 L154.211,529.924 L155.585,530.134 L156.955,530.793 L157.475,531.411 L160.141,538.608 L163.65,543.004 L164.976,543.161 L170.292,541.237 L174.869,540.563 L175.36,537.376 L179.049,536.369 L180.147,536.221 L184.776,539.677 L186.498,539.295 L192.325,534.093 L193.693,533.367 L195.823,533.568 L200.277,537.098 L201.881,536.973 L202.878,536.548 L206.767,530.993 L209.765,527.792 L212.136,526.715 L216.972,525.4 L219.704,524.291 L224.678,519.07 L226.63,516.672 L229.107,513.16 L230.611,510.448 L228.806,508.574 L227.797,506.267 L225.99,503.639 L223.812,501.295 L221.617,499.709 L218.781,499.057 L218.512,498.292 L219.455,496.653 L221.466,490.488 L222.529,489.28 L225.255,487.612 L230.21,485.29 L237.415,480.301 L239.993,477.433 L241.219,477.147 L242.553,477.532 L243.039,478.183 L242.781,480.216 L243.334,481.83 L244.368,482.206 L246.175,480.988 L254.798,477.076 L256.361,475.428 L257.548,472.359 L259.089,471.188 L262.009,470.248 L264.146,468.747 L265.542,468.208 L267.08,468.55 L268.858,469.839 L268.995,471.208 L269.475,472.461 L270.2,473.108 L271.082,473.026 L274.18,469.691 L276.266,468.011 L274.439,462.299 L274.714,461.791 L278.208,461.908 L282.204,460.858 L284.537,461.331 L285.814,461.2 L288.416,459.891 L290.376,458.142 L292.184,458.44 L295.046,459.437 L301.055,459.511 L303.096,458.701 L304.965,457.08 L305.548,455.94 L305.021,452.77 L305.485,450.217 L306.929,446.686 L306.056,445.506 L300.566,442.752 L299.126,441.707 L299.375,440.583 L303.236,438.686 L306.573,434.697 L307.543,433.956 L310.433,432.59 L313.837,430.531 L315.862,424.544 L317.19,422.345 L318.404,421 L318.108,419.353 L317.216,416.999 L317.578,415.832 L320.634,414.676 L321.884,414.478 L322.614,410.538 L323.329,409.535 L325.488,409.732 L331.503,408.095 L334.936,407.565 L337.722,406.106 L340.181,403.979 L341.894,405.163 L343.438,407.693 L344.591,407.457 L345.37,404.146 L346.056,403.355 L347.222,402.754 L347.903,402.746 L350.021,403.396 L351.446,404.331 L351.718,405.602 L352.377,406.28 L353.826,406.657 L358.073,406.543 L365.154,407.128 L367.181,406.842 L370.089,406.197 L374.827,404.64 L377.319,403.496 L379.508,403.406 L384.454,401.96 L386.892,402.905 L389.048,404.242 L391.2,405.188 L392.766,404.743 L397.96,401.101 L400.561,399.609 L401.872,399.165 L405.163,399.739 L411.169,403.944 L413.559,404.921 L414.572,404.702 L415.88,403.88 L419.358,399.601 L420.696,396.721 L420.635,393.658 L421.162,392.353 L422.58,391.126 L424.553,390.146 L426.27,388.607 L426.304,387.251 L423.775,385.072 L423.827,383.756 L426.063,381.739 L425.287,378.386 L426.516,377.51 L428.37,376.867 L430.734,376.515 L432.898,373.352 L436.396,369.899 L438.306,368.39 L447.244,363.031 L450.137,360.802 L450.416,360.087 L450.637,357.805 L451.949,356.705 L452.907,355.05 L452.762,352.573 L453.271,350.598 L454.793,347.706 L459.407,340.728 L462.26,338.837 L466.076,335.656 L469.163,332.771 L470.742,330.79 L472.271,330.418 L480.411,330.479 L481.46,330.111 L482.509,329.392 L483.122,327.976 L483.85,324.266 L484.563,323.605 L490.302,320.785 L492.986,318.591 L502.782,320.179 L508.758,319.866 L512.61,318.287 L514.086,316.437 L514.814,314.924 L515.104,311.104 L515.706,310.234 L516.647,309.938 L519.988,307.72 L520.816,307.073 L522.104,305.265 L522.841,301.543 L522.821,300.172 L523.538,299.709 L525.598,299.969 L529.387,302.325 L531.128,302.938 L533.816,305.101 L536.356,306.594 L540.303,310.072 L542.095,312.517 L544.922,314.611 L546.599,316.428 L547.43,317.658 L548.675,318.747 L549.379,319.907 L549.763,321.264 L549.543,323.517 L548.973,325.868 L548.976,327.518 L549.757,328.315 L551.541,327.992 L557.292,325.468 L561.195,325.269 L562.646,325.66 L566.632,328.037 L568.463,328.694 L576.031,329.1 L576.541,329.645 L580.268,332.025 L582.752,333.201 L584.552,333.636 L584.999,333.174 L583.853,331.718 L581.688,329.424 L579.791,328.163 L578.981,326.961 L580.654,327.044 L587.183,330.252 L593.125,331.32 L596.263,331.603 L596.899,332.177 L598.599,335.117 L599.872,335.887 L603.613,335.991 L608.502,337.091 L611.462,337.249 L618.248,336.772 L619.839,336.903 L619.387,339.405 L619.925,340.651 L619.727,343.323 L620.868,344.346 L622.267,345.021 L625.31,344.315 L627.874,344.209 L630.272,345.432 L634.485,346.829 L638.875,347.585 L640.543,348.093 L644.488,348.707 L646.258,347.608 L647.468,347.599 L648.914,348.235 L650.265,348.421 L651.333,348.271 L652.1,347.322 L652.969,345.535 L654.394,343.779 L655.783,342.972 L656.234,342.177 L657.183,337.063 L657.179,334.811 L657.877,332.227 L658.995,331.812 L665.688,334.05 L665.481,325.98 L664.906,323.431 L664.23,321.681 L664.315,320.786 L671.763,320.176 L672.057,316.388 L672.898,314.546 L673.782,313.361 L674.772,313.268 L678.81,315.359 L679.863,315.237 L680.619,314.278 L686.862,310.984 L688.276,309.55 L689.776,307.392 L691.83,307.724 L693.671,307.079 L696.224,304.941 L696.526,302.942 L701.525,298.709 L702.372,298.713 L703.591,301.587 L704.436,301.831 L709.138,298.827 L711.228,299.135 L712.463,298.374 L714.12,297 L717.522,293.277 L729.326,294.665 L730.691,293.934 L732.563,291.907 L733.995,290.912 L734.928,290.357 L736.368,290.107 L738.235,288.667 L741.371,285.309 L744.608,282.917 L746.756,282.32 L748.484,282.154 L749.504,282.427" fill-rule="evenodd"/>
  </g>
  <g transform="matrix(11.811,0,0,11.811,0,0)" stroke="#000000" stroke-linecap="square" font-weight="400" fill="none" stroke-linejoin="bevel" stroke-opacity="1" stroke-width="1" font-family=".SF NS Text" font-size="54.1667" font-style="normal"/>
  <g transform="matrix(11.811,0,0,11.811,0,0)" stroke="#000000" stroke-linecap="square" font-weight="400" fill="none" stroke-linejoin="bevel" stroke-opacity="1" stroke-width="1" font-family=".SF NS Text" font-size="54.1667" font-style="normal"/>
  <g transform="matrix(11.811,0,0,11.811,0,0)" stroke="#000000" stroke-linecap="square" font-weight="400" fill="none" stroke-linejoin="bevel" stroke-opacity="1" stroke-width="1" font-family=".SF NS Text" font-size="54.1667" font-style="normal"/>
  <g transform="matrix(1,0,0,1,0,0)" stroke="#000000" stroke-linecap="square" font-weight="400" fill="none" stroke-linejoin="bevel" stroke-opacity="1" stroke-width="1" font-family=".SF NS Text" font-size="54.1667" font-style="normal"/>
  <g transform="matrix(11.811,0,0,11.811,0,0)" stroke="#000000" stroke-linecap="square" font-weight="400" fill="none" stroke-linejoin="bevel" stroke-opacity="1" stroke-width="1" font-family=".SF NS Text" font-size="54.1667" font-style="normal"/>
  <g transform="matrix(11.811,0,0,11.811,0,0)" stroke="#000000" stroke-linecap="square" font-weight="400" fill="none" stroke-linejoin="bevel" stroke-opacity="1" stroke-width="1" font-family=".SF NS Text" font-size="54.1667" font-style="normal"/>
  <g transform="matrix(1,0,0,1,0,0)" stroke="#000000" stroke-linecap="square" font-weight="400" fill="none" stroke-linejoin="bevel" stroke-opacity="1" stroke-width="1" font-family=".SF NS Text" font-size="54.1667" font-style="normal"/>
 </g>
</svg>
