<?xml version='1.0' encoding='UTF-8' standalone='no'?>
<svg height="84.6667mm" version="1.2" width="84.6667mm" xmlns="http://www.w3.org/2000/svg" baseProfile="tiny" viewBox="0 0 1000 1000" xmlns:xlink="http://www.w3.org/1999/xlink">
 <title>Qt SVG Document</title>
 <desc>Generated with Qt</desc>
 <defs/>
 <g stroke="black" stroke-linecap="square" fill="none" stroke-linejoin="bevel" stroke-width="1" fill-rule="evenodd">
  <g transform="matrix(1,0,0,1,0,0)" stroke="#000000" stroke-linecap="square" font-weight="400" fill="none" stroke-linejoin="bevel" stroke-opacity="1" stroke-width="1" font-family=".SF NS Text" font-size="54.1667" font-style="normal"/>
  <g transform="matrix(1,0,0,1,0,0)" stroke="#000000" stroke-linecap="square" font-weight="400" fill="none" stroke-linejoin="bevel" stroke-opacity="1" stroke-width="1" font-family=".SF NS Text" font-size="54.1667" font-style="normal"/>
  <g transform="matrix(11.811,0,0,11.811,0,0)" stroke="#000000" stroke-linecap="square" font-weight="400" fill="none" stroke-linejoin="bevel" stroke-opacity="1" stroke-width="1" font-family=".SF NS Text" font-size="54.1667" font-style="normal"/>
  <g transform="matrix(11.811,0,0,11.811,0,0)" stroke="#000000" stroke-linecap="square" font-weight="400" fill="none" stroke-linejoin="bevel" stroke-opacity="1" stroke-width="1" font-family=".SF NS Text" font-size="54.1667" font-style="normal"/>
  <g transform="matrix(11.811,0,0,11.811,0,0)" stroke="#000000" stroke-linecap="square" font-weight="400" fill="none" stroke-linejoin="bevel" stroke-opacity="1" stroke-width="1" font-family=".SF NS Text" font-size="54.1667" font-style="normal"/>
  <g transform="matrix(1,0,0,1,0,0)" stroke="#000000" stroke-linecap="square" font-weight="400" fill="none" stroke-linejoin="bevel" stroke-opacity="1" stroke-width="1" font-family=".SF NS Text" font-size="54.1667" font-style="normal"/>
  <g transform="matrix(1,0,0,1,0,0)" stroke="none" font-weight="400" fill="#ffffff" font-family=".SF NS Text" font-size="54.1667" font-style="normal" fill-opacity="1">
   <path vector-effect="none" d="M-2,-2 L1003,-2 L1003,1003 L-2,1003 L-2,-2" fill-rule="evenodd"/>
  </g>
  <g transform="matrix(1,0,0,1,0,0)" stroke="#000000" stroke-linecap="square" font-weight="400" fill="none" stroke-linejoin="bevel" stroke-opacity="1" stroke-width="1" font-family=".SF NS Text" font-size="54.1667" font-style="normal"/>
  <g transform="matrix(11.811,0,0,11.811,0,0)" stroke="#000000" stroke-linecap="square" font-weight="400" fill="none" stroke-linejoin="bevel" stroke-opacity="1" stroke-width="1" font-family=".SF NS Text" font-size="54.1667" font-style="normal"/>
  <g transform="matrix(11.811,0,0,11.811,0,0)" stroke="#000000" stroke-linecap="square" font-weight="400" fill="none" stroke-linejoin="bevel" stroke-opacity="1" stroke-width="1" font-family=".SF NS Text" font-size="54.1667" font-style="normal"/>
  <g transform="matrix(11.811,0,0,11.811,0,0)" stroke="#000000" stroke-linecap="square" font-weight="400" fill="none" stroke-linejoin="bevel" stroke-opacity="1" stroke-width="1" font-family=".SF NS Text" font-size="54.1667" font-style="normal"/>
  <g transform="matrix(11.811,0,0,11.811,0,0)" stroke="#000000" stroke-linecap="square" font-weight="400" fill="none" stroke-linejoin="bevel" stroke-opacity="1" stroke-width="1" font-family=".SF NS Text" font-size="54.1667" font-style="normal"/>
  <g transform="matrix(11.811,0,0,11.811,0,0)" stroke="#000000" stroke-linecap="square" font-weight="400" fill="none" stroke-linejoin="bevel" stroke-opacity="1" stroke-width="1" font-family=".SF NS Text" font-size="54.1667" font-style="normal"/>
  <g transform="matrix(11.811,0,0,11.811,0,0)" stroke="#000000" stroke-linecap="square" font-weight="400" fill="none" stroke-linejoin="bevel" stroke-opacity="1" stroke-width="1" font-family=".SF NS Text" font-size="54.1667" font-style="normal"/>
  <g transform="matrix(1,0,0,1,0,0)" stroke="none" font-weight="400" fill="#000000" font-family=".SF NS Text" font-size="54.1667" font-style="normal" fill-opacity="0">
   <rect y="0" height="1000" x="0" width="1000"/>
  </g>
  <g transform="matrix(1,0,0,1,0,0)" stroke="#e1e1e1" stroke-linecap="square" font-weight="400" fill="none" stroke-linejoin="round" stroke-opacity="1" stroke-width="59.0551" font-family=".SF NS Text" font-size="54.1667" font-style="normal">
   <path vector-effect="none" d="M349.045,45.4545 L359.933,49.7248 L357.614,55.4058 L358.397,61.6865 L362.409,63.4722 L368.658,71.321 L372.404,72.422 L370.082,78.2123 L367.524,79.0871 L369.265,81.506 L364.796,87.9458 L367.998,96.0231 L371.272,97.7017 L378.906,96.9308 L385.683,98.4596 L392.092,101.925 L399.08,100.567 L400.018,98.459 L407.917,102.425 L425.554,102.534 L432.087,104.119 L436.459,121.584 L439.146,126.686 L445.284,130.741 L444.047,135.546 L440.778,137.608 L443.452,138.941 L442.084,145.222 L437.12,148.784 L444.87,150.026 L446.579,147.924 L452.906,148.043 L453.952,152.458 L457.533,156.332 L456.472,174.162 L459.292,178.171 L461.45,187.639 L454.666,200.093 L455.025,206.347 L460.969,212.929 L461.31,217.705 L464.437,220.734 L472.709,220.965 L484.684,236.617 L491.395,237.627 L497.228,236.405 L515.357,242.032 L520.742,238.343 L522.017,231.389 L525.266,225.298 L543.582,223.836 L561.796,218.474 L564.78,219.631 L573.451,217.069 L580.759,210.918 L589.717,206.117 L593.264,207.43 L599.053,202.774 L605.066,200.745 L608.212,201.713 L609.128,199.184 L614.333,195.278 L630.964,199.331 L636.592,196.577 L644.65,195.693 L649.96,197.785 L653.104,192.964 L660.124,194.153 L662.879,175.719 L667.391,173.629 L672.177,167.339 L676.841,165.221 L684.677,166.453 L686.812,168.45 L686.665,171.364 L682.052,173.222 L682.773,180.063 L700.163,183.87 L697.833,191.284 L701.24,196.644 L713.689,194.921 L718.233,192.12 L713.733,189.589 L711.138,185.03 L713.734,185.234 L714.262,183.202 L720.076,178.518 L720.902,181.272 L724.753,183.104 L726.146,181.146 L732.778,178.92 L735.854,182.93 L734.726,184.005 L739.474,185.125 L741.359,189.407 L747.004,190.36 L748.553,193.336 L740.658,221.819 L744.796,225.057 L750.318,221.183 L755.12,224.554 L755.234,227.198 L760.999,232.521 L756.672,241.529 L756.908,255.625 L745.33,268.082 L747.098,271.044 L741.704,281.914 L745.762,280.668 L754.973,286.871 L757.962,283.726 L759.84,284.61 L762.01,290.234 L774.751,302.615 L779.533,317.453 L778.573,322.789 L774.989,326.109 L775.311,331.533 L773.072,334.493 L768.027,338.571 L751.557,346.427 L748.86,349.914 L747.474,357.674 L760.67,377.099 L772.259,400.501 L774.193,409.281 L771.867,413.36 L773.715,414.617 L766.656,423.953 L765.525,430.887 L767.174,434.058 L771.123,436.456 L775.135,444.427 L772.685,458.672 L779.878,467.403 L795.746,468.418 L805.735,475.98 L820.484,482.821 L813.481,487.748 L813.251,490.604 L819.11,507.145 L814.442,515.649 L814.246,521.764 L821.724,541.161 L833.853,556.278 L823.462,567.957 L817.605,566.98 L816.657,568.252 L804.869,568.364 L791.245,562.472 L790.119,567.176 L784.363,567.807 L778.438,571.31 L772.922,568.164 L768.153,570.534 L757.468,591.741 L747.904,593.029 L751.296,597.557 L748.816,600.675 L756.197,610.733 L778.003,615.542 L783.616,619.029 L788.466,618.014 L798.68,627.583 L796.906,632.041 L798.413,634.76 L801.613,635.279 L802.853,642.678 L807.197,645.816 L805.757,650.353 L807.546,657.541 L814.181,666.042 L814.602,668.578 L811.375,671.957 L811.22,675.238 L792.453,701.775 L788.089,704.129 L781.987,703.985 L780.465,709.861 L782.089,716.073 L781.784,739.112 L779.746,740.275 L779.317,746.725 L773.148,748.098 L769.42,755.693 L772.041,757.258 L776.537,765.207 L777.584,784.658 L780.614,787.367 L786.453,788.691 L787.204,800.014 L791.607,804.498 L793.507,812.543 L785.054,817.379 L780.145,822.382 L780.294,830.397 L769.007,840.14 L763.192,847.374 L764.58,852.5 L750.061,856.368 L748.69,861.553 L754.328,866.045 L761.011,875.85 L757.562,878.209 L755.519,884.768 L751.71,884.411 L748.951,895.845 L745.556,895.898 L743.851,892.987 L732.896,888.016 L729.142,890.774 L728.114,901.257 L725.93,904.526 L722.053,904.57 L713.554,909.116 L709.662,907.377 L707.803,911.18 L708.811,914.484 L705.202,916.991 L697.389,929.549 L687.403,922.156 L690.462,917.959 L690.536,915.188 L686.998,910.071 L675.348,904.221 L673.973,901.318 L675.082,897.909 L660.614,896.373 L654.808,899.017 L653.972,905.357 L649.76,911.491 L654.185,924.63 L658.254,928.003 L661.622,936.379 L661.908,938.441 L657.569,943.268 L648.783,938.219 L641.01,936.393 L635.378,932.07 L630.224,933.216 L624.953,929.806 L619.297,929.952 L615.007,938.464 L609.591,936.99 L604.642,938.364 L603.428,941.446 L599.673,942.5 L596.477,939.584 L589.348,944.401 L585.017,952.087 L582.9,952.064 L580.542,954.545 L578.23,952.856 L578.351,947.866 L575.782,944.538 L565.865,947.473 L564.099,945.298 L561.335,947.841 L559.44,945.553 L555.031,944.479 L551.092,940.19 L538.469,937.494 L536.991,931.116 L540.274,929.739 L538.485,925.052 L541.413,923.935 L540.577,920.831 L541.938,920.278 L538.404,910.981 L539.608,909.121 L537.767,907.07 L539.697,906.405 L539.191,904.758 L542.484,904.258 L542.197,900.725 L544.35,895.423 L537.547,881.441 L534.826,872.019 L529.624,870.75 L533.69,869.41 L529.234,857.013 L526.662,854.402 L522.276,855.881 L524.364,853.089 L521.724,851.114 L518.372,851.59 L521.368,850.135 L521.532,848.546 L515.534,842.554 L510.801,841.401 L507.079,843.602 L500.721,836.591 L496.75,837.476 L495.375,834.473 L493.278,835.213 L491.138,832.294 L486.762,835.878 L482.839,833.576 L482.136,828.383 L479.192,827.481 L481.234,826.593 L479.461,824.413 L483.628,823.214 L484.023,819.753 L475.433,800.752 L475.763,798.748 L473.182,797.243 L473.201,800.101 L468.718,802.723 L465.599,801.394 L463.418,793.134 L460.152,790.166 L460.115,786.971 L456.423,786.932 L454.694,784.655 L447.476,782.342 L447.408,779.488 L434.831,778.442 L429.975,774.74 L425.161,774.281 L424.409,769.139 L418.785,766.787 L415.795,765.985 L410.268,769.491 L409.255,767.562 L405.221,767.641 L409.055,766.7 L409.649,764.099 L414.823,763.035 L417.84,757.537 L420.21,756.29 L418.29,747.433 L415.317,746.921 L415.153,744.992 L411.165,745.02 L419.129,743.074 L426.133,739.195 L428.73,740.94 L430.781,734.284 L433.902,733.917 L434.361,732.389 L433.317,723.144 L430.87,722.262 L429.329,718.956 L435.687,716.809 L438.46,713.068 L437.626,711.613 L439.383,710.111 L442.544,710.419 L443.095,707.917 L420.728,621.44 L415.651,608.2 L409.276,583.591 L387.842,519.105 L377.061,496.167 L367.163,480.539 L363.782,479.271 L352.47,480.416 L355.489,482.542 L354.895,483.923 L346.686,484.202 L344.698,485.48 L344.182,489.444 L334.169,490.299 L329.418,487.469 L325.639,480.176 L322.773,479.353 L321.821,481.01 L319.661,480.695 L314.371,478.916 L313.006,476.806 L307.953,476.471 L304.606,473.271 L300.327,473.33 L298.072,456.402 L295.784,454.564 L283.393,455.921 L281.794,452.44 L283.324,449.765 L281.293,449.115 L278.728,443.319 L275.629,441.126 L275.928,436.116 L286.835,435.681 L291.055,441.977 L295.953,444.58 L297.572,450.996 L299.497,450.963 L308.27,446.839 L309.376,439.559 L315.331,441.767 L314.958,446.499 L318.311,447.133 L320.92,446.911 L320.888,443.173 L323.954,444.796 L327.02,440.622 L332.741,439.589 L336.693,442.509 L337.083,445.815 L335.469,448.485 L339.036,452.063 L343.297,449.167 L346.72,449.05 L351.248,452.573 L354.14,449.344 L358.873,447.919 L362,448.642 L364.031,452.978 L366.706,453.875 L375.996,451.298 L380.335,447.764 L381.076,444.021 L385.125,441.438 L392.335,446.01 L396.192,446.691 L400.136,445.611 L399.757,441.156 L409.028,446.154 L433.25,441.486 L433.49,439.914 L422.706,436.64 L418.958,433.879 L419.322,427.486 L429.419,418.163 L428.734,412.677 L420.761,414.209 L415.198,418.521 L414.606,422.188 L411.539,424.009 L403.67,424.872 L402.578,430.347 L400.689,432.167 L390.129,431.41 L387.501,430.265 L384.423,424.314 L377.751,416.91 L373.399,414.797 L372.432,416.501 L374.617,418.923 L365.861,417.906 L357.837,421.041 L355.235,420.574 L353.027,407.976 L348.966,405.848 L341.85,397.342 L335.85,398.574 L334.723,401.653 L333.217,401.644 L322.927,396.144 L311.704,395.316 L308.694,396.994 L307.121,394.254 L304.848,393.629 L296.282,395.008 L295.184,399.358 L293.085,397.592 L293.36,395.691 L291.27,395.668 L279.797,387.089 L281.534,384.728 L289.578,389.355 L294.694,387.982 L300.069,377.122 L301.82,362.26 L306.856,357.641 L302.132,353.446 L293.643,353.423 L283.509,348.717 L280.987,348.797 L276.959,351.852 L274.428,351.237 L279.877,353.673 L279.32,355.128 L272.942,356.914 L269.809,356.049 L267.568,358.678 L261.035,357.867 L259.836,354.634 L257.9,354.606 L256.991,351.427 L258.563,351.337 L259.25,348.484 L246.598,302.327 L240.483,286.065 L236.659,287.085 L232.997,284.303 L233.069,277.814 L228.536,264.255 L226.119,259.472 L223.265,257.743 L225.776,254.344 L224.086,248.349 L225.385,244.514 L223.007,240.388 L229.514,239.418 L231.346,241.396 L228.931,230.992 L228.053,232.745 L225.666,231.958 L219.429,220.356 L214.203,217.111 L207.123,197.243 L204.928,195.006 L202.37,181.967 L196.251,170.346 L193.023,156.742 L191.468,154.82 L189.136,154.798 L188.596,150.609 L190.438,147.974 L188.358,148.889 L185.154,145.866 L184.986,141.1 L180.13,129.377 L181.16,124.876 L178.651,123.752 L177.454,126.437 L173.822,126.957 L173.662,124.788 L170.459,126.123 L169.552,125.207 L171.014,121.601 L166.147,119.93 L167.647,117.71 L176.81,117.271 L183.548,119.213 L185.21,124.223 L194.021,124.046 L202.286,121.135 L211.969,122.601 L215.6,126.315 L219.584,127.268 L222.502,125.523 L225.953,116.399 L233.939,111.254 L255.3,113.4 L265.225,118.793 L276.768,121.583 L280.327,118.716 L281.885,111.937 L286.233,110.525 L289.349,112.31 L292.86,111.816 L298.69,108.593 L301.12,104.324 L309.786,107.787 L315.36,106.959 L323.128,94.0609 L322.074,82.0488 L330.174,79.4465 L332.084,71.7044 L335.719,65.2814 L344.188,65.6323 L339.215,59.9193 L342.385,57.556 L345.207,49.0193 L349.045,45.4545" fill-rule="evenodd"/>
  </g>
  <g transform="matrix(1,0,0,1,0,0)" stroke="none" font-weight="400" fill="#787878" font-family=".SF NS Text" font-size="54.1667" font-style="normal" fill-opacity="1">
   <path vector-effect="none" d="M349.045,45.4545 L359.933,49.7248 L357.614,55.4058 L358.397,61.6865 L362.409,63.4722 L368.658,71.321 L372.404,72.422 L370.082,78.2123 L367.524,79.0871 L369.265,81.506 L364.796,87.9458 L367.998,96.0231 L371.272,97.7017 L378.906,96.9308 L385.683,98.4596 L392.092,101.925 L399.08,100.567 L400.018,98.459 L407.917,102.425 L425.554,102.534 L432.087,104.119 L436.459,121.584 L439.146,126.686 L445.284,130.741 L444.047,135.546 L440.778,137.608 L443.452,138.941 L442.084,145.222 L437.12,148.784 L444.87,150.026 L446.579,147.924 L452.906,148.043 L453.952,152.458 L457.533,156.332 L456.472,174.162 L459.292,178.171 L461.45,187.639 L454.666,200.093 L455.025,206.347 L460.969,212.929 L461.31,217.705 L464.437,220.734 L472.709,220.965 L484.684,236.617 L491.395,237.627 L497.228,236.405 L515.357,242.032 L520.742,238.343 L522.017,231.389 L525.266,225.298 L543.582,223.836 L561.796,218.474 L564.78,219.631 L573.451,217.069 L580.759,210.918 L589.717,206.117 L593.264,207.43 L599.053,202.774 L605.066,200.745 L608.212,201.713 L609.128,199.184 L614.333,195.278 L630.964,199.331 L636.592,196.577 L644.65,195.693 L649.96,197.785 L653.104,192.964 L660.124,194.153 L662.879,175.719 L667.391,173.629 L672.177,167.339 L676.841,165.221 L684.677,166.453 L686.812,168.45 L686.665,171.364 L682.052,173.222 L682.773,180.063 L700.163,183.87 L697.833,191.284 L701.24,196.644 L713.689,194.921 L718.233,192.12 L713.733,189.589 L711.138,185.03 L713.734,185.234 L714.262,183.202 L720.076,178.518 L720.902,181.272 L724.753,183.104 L726.146,181.146 L732.778,178.92 L735.854,182.93 L734.726,184.005 L739.474,185.125 L741.359,189.407 L747.004,190.36 L748.553,193.336 L740.658,221.819 L744.796,225.057 L750.318,221.183 L755.12,224.554 L755.234,227.198 L760.999,232.521 L756.672,241.529 L756.908,255.625 L745.33,268.082 L747.098,271.044 L741.704,281.914 L745.762,280.668 L754.973,286.871 L757.962,283.726 L759.84,284.61 L762.01,290.234 L774.751,302.615 L779.533,317.453 L778.573,322.789 L774.989,326.109 L775.311,331.533 L773.072,334.493 L768.027,338.571 L751.557,346.427 L748.86,349.914 L747.474,357.674 L760.67,377.099 L772.259,400.501 L774.193,409.281 L771.867,413.36 L773.715,414.617 L766.656,423.953 L765.525,430.887 L767.174,434.058 L771.123,436.456 L775.135,444.427 L772.685,458.672 L779.878,467.403 L795.746,468.418 L805.735,475.98 L820.484,482.821 L813.481,487.748 L813.251,490.604 L819.11,507.145 L814.442,515.649 L814.246,521.764 L821.724,541.161 L833.853,556.278 L823.462,567.957 L817.605,566.98 L816.657,568.252 L804.869,568.364 L791.245,562.472 L790.119,567.176 L784.363,567.807 L778.438,571.31 L772.922,568.164 L768.153,570.534 L757.468,591.741 L747.904,593.029 L751.296,597.557 L748.816,600.675 L756.197,610.733 L778.003,615.542 L783.616,619.029 L788.466,618.014 L798.68,627.583 L796.906,632.041 L798.413,634.76 L801.613,635.279 L802.853,642.678 L807.197,645.816 L805.757,650.353 L807.546,657.541 L814.181,666.042 L814.602,668.578 L811.375,671.957 L811.22,675.238 L792.453,701.775 L788.089,704.129 L781.987,703.985 L780.465,709.861 L782.089,716.073 L781.784,739.112 L779.746,740.275 L779.317,746.725 L773.148,748.098 L769.42,755.693 L772.041,757.258 L776.537,765.207 L777.584,784.658 L780.614,787.367 L786.453,788.691 L787.204,800.014 L791.607,804.498 L793.507,812.543 L785.054,817.379 L780.145,822.382 L780.294,830.397 L769.007,840.14 L763.192,847.374 L764.58,852.5 L750.061,856.368 L748.69,861.553 L754.328,866.045 L761.011,875.85 L757.562,878.209 L755.519,884.768 L751.71,884.411 L748.951,895.845 L745.556,895.898 L743.851,892.987 L732.896,888.016 L729.142,890.774 L728.114,901.257 L725.93,904.526 L722.053,904.57 L713.554,909.116 L709.662,907.377 L707.803,911.18 L708.811,914.484 L705.202,916.991 L697.389,929.549 L687.403,922.156 L690.462,917.959 L690.536,915.188 L686.998,910.071 L675.348,904.221 L673.973,901.318 L675.082,897.909 L660.614,896.373 L654.808,899.017 L653.972,905.357 L649.76,911.491 L654.185,924.63 L658.254,928.003 L661.622,936.379 L661.908,938.441 L657.569,943.268 L648.783,938.219 L641.01,936.393 L635.378,932.07 L630.224,933.216 L624.953,929.806 L619.297,929.952 L615.007,938.464 L609.591,936.99 L604.642,938.364 L603.428,941.446 L599.673,942.5 L596.477,939.584 L589.348,944.401 L585.017,952.087 L582.9,952.064 L580.542,954.545 L578.23,952.856 L578.351,947.866 L575.782,944.538 L565.865,947.473 L564.099,945.298 L561.335,947.841 L559.44,945.553 L555.031,944.479 L551.092,940.19 L538.469,937.494 L536.991,931.116 L540.274,929.739 L538.485,925.052 L541.413,923.935 L540.577,920.831 L541.938,920.278 L538.404,910.981 L539.608,909.121 L537.767,907.07 L539.697,906.405 L539.191,904.758 L542.484,904.258 L542.197,900.725 L544.35,895.423 L537.547,881.441 L534.826,872.019 L529.624,870.75 L533.69,869.41 L529.234,857.013 L526.662,854.402 L522.276,855.881 L524.364,853.089 L521.724,851.114 L518.372,851.59 L521.368,850.135 L521.532,848.546 L515.534,842.554 L510.801,841.401 L507.079,843.602 L500.721,836.591 L496.75,837.476 L495.375,834.473 L493.278,835.213 L491.138,832.294 L486.762,835.878 L482.839,833.576 L482.136,828.383 L479.192,827.481 L481.234,826.593 L479.461,824.413 L483.628,823.214 L484.023,819.753 L475.433,800.752 L475.763,798.748 L473.182,797.243 L473.201,800.101 L468.718,802.723 L465.599,801.394 L463.418,793.134 L460.152,790.166 L460.115,786.971 L456.423,786.932 L454.694,784.655 L447.476,782.342 L447.408,779.488 L434.831,778.442 L429.975,774.74 L425.161,774.281 L424.409,769.139 L418.785,766.787 L415.795,765.985 L410.268,769.491 L409.255,767.562 L405.221,767.641 L409.055,766.7 L409.649,764.099 L414.823,763.035 L417.84,757.537 L420.21,756.29 L418.29,747.433 L415.317,746.921 L415.153,744.992 L411.165,745.02 L419.129,743.074 L426.133,739.195 L428.73,740.94 L430.781,734.284 L433.902,733.917 L434.361,732.389 L433.317,723.144 L430.87,722.262 L429.329,718.956 L435.687,716.809 L438.46,713.068 L437.626,711.613 L439.383,710.111 L442.544,710.419 L443.095,707.917 L420.728,621.44 L415.651,608.2 L409.276,583.591 L387.842,519.105 L377.061,496.167 L367.163,480.539 L363.782,479.271 L352.47,480.416 L355.489,482.542 L354.895,483.923 L346.686,484.202 L344.698,485.48 L344.182,489.444 L334.169,490.299 L329.418,487.469 L325.639,480.176 L322.773,479.353 L321.821,481.01 L319.661,480.695 L314.371,478.916 L313.006,476.806 L307.953,476.471 L304.606,473.271 L300.327,473.33 L298.072,456.402 L295.784,454.564 L283.393,455.921 L281.794,452.44 L283.324,449.765 L281.293,449.115 L278.728,443.319 L275.629,441.126 L275.928,436.116 L286.835,435.681 L291.055,441.977 L295.953,444.58 L297.572,450.996 L299.497,450.963 L308.27,446.839 L309.376,439.559 L315.331,441.767 L314.958,446.499 L318.311,447.133 L320.92,446.911 L320.888,443.173 L323.954,444.796 L327.02,440.622 L332.741,439.589 L336.693,442.509 L337.083,445.815 L335.469,448.485 L339.036,452.063 L343.297,449.167 L346.72,449.05 L351.248,452.573 L354.14,449.344 L358.873,447.919 L362,448.642 L364.031,452.978 L366.706,453.875 L375.996,451.298 L380.335,447.764 L381.076,444.021 L385.125,441.438 L392.335,446.01 L396.192,446.691 L400.136,445.611 L399.757,441.156 L409.028,446.154 L433.25,441.486 L433.49,439.914 L422.706,436.64 L418.958,433.879 L419.322,427.486 L429.419,418.163 L428.734,412.677 L420.761,414.209 L415.198,418.521 L414.606,422.188 L411.539,424.009 L403.67,424.872 L402.578,430.347 L400.689,432.167 L390.129,431.41 L387.501,430.265 L384.423,424.314 L377.751,416.91 L373.399,414.797 L372.432,416.501 L374.617,418.923 L365.861,417.906 L357.837,421.041 L355.235,420.574 L353.027,407.976 L348.966,405.848 L341.85,397.342 L335.85,398.574 L334.723,401.653 L333.217,401.644 L322.927,396.144 L311.704,395.316 L308.694,396.994 L307.121,394.254 L304.848,393.629 L296.282,395.008 L295.184,399.358 L293.085,397.592 L293.36,395.691 L291.27,395.668 L279.797,387.089 L281.534,384.728 L289.578,389.355 L294.694,387.982 L300.069,377.122 L301.82,362.26 L306.856,357.641 L302.132,353.446 L293.643,353.423 L283.509,348.717 L280.987,348.797 L276.959,351.852 L274.428,351.237 L279.877,353.673 L279.32,355.128 L272.942,356.914 L269.809,356.049 L267.568,358.678 L261.035,357.867 L259.836,354.634 L257.9,354.606 L256.991,351.427 L258.563,351.337 L259.25,348.484 L246.598,302.327 L240.483,286.065 L236.659,287.085 L232.997,284.303 L233.069,277.814 L228.536,264.255 L226.119,259.472 L223.265,257.743 L225.776,254.344 L224.086,248.349 L225.385,244.514 L223.007,240.388 L229.514,239.418 L231.346,241.396 L228.931,230.992 L228.053,232.745 L225.666,231.958 L219.429,220.356 L214.203,217.111 L207.123,197.243 L204.928,195.006 L202.37,181.967 L196.251,170.346 L193.023,156.742 L191.468,154.82 L189.136,154.798 L188.596,150.609 L190.438,147.974 L188.358,148.889 L185.154,145.866 L184.986,141.1 L180.13,129.377 L181.16,124.876 L178.651,123.752 L177.454,126.437 L173.822,126.957 L173.662,124.788 L170.459,126.123 L169.552,125.207 L171.014,121.601 L166.147,119.93 L167.647,117.71 L176.81,117.271 L183.548,119.213 L185.21,124.223 L194.021,124.046 L202.286,121.135 L211.969,122.601 L215.6,126.315 L219.584,127.268 L222.502,125.523 L225.953,116.399 L233.939,111.254 L255.3,113.4 L265.225,118.793 L276.768,121.583 L280.327,118.716 L281.885,111.937 L286.233,110.525 L289.349,112.31 L292.86,111.816 L298.69,108.593 L301.12,104.324 L309.786,107.787 L315.36,106.959 L323.128,94.0609 L322.074,82.0488 L330.174,79.4465 L332.084,71.7044 L335.719,65.2814 L344.188,65.6323 L339.215,59.9193 L342.385,57.556 L345.207,49.0193 L349.045,45.4545" fill-rule="evenodd"/>
  </g>
  <g transform="matrix(11.811,0,0,11.811,0,0)" stroke="#000000" stroke-linecap="square" font-weight="400" fill="none" stroke-linejoin="bevel" stroke-opacity="1" stroke-width="1" font-family=".SF NS Text" font-size="54.1667" font-style="normal"/>
  <g transform="matrix(11.811,0,0,11.811,0,0)" stroke="#000000" stroke-linecap="square" font-weight="400" fill="none" stroke-linejoin="bevel" stroke-opacity="1" stroke-width="1" font-family=".SF NS Text" font-size="54.1667" font-style="normal"/>
  <g transform="matrix(11.811,0,0,11.811,0,0)" stroke="#000000" stroke-linecap="square" font-weight="400" fill="none" stroke-linejoin="bevel" stroke-opacity="1" stroke-width="1" font-family=".SF NS Text" font-size="54.1667" font-style="normal"/>
  <g transform="matrix(1,0,0,1,0,0)" stroke="#000000" stroke-linecap="square" font-weight="400" fill="none" stroke-linejoin="bevel" stroke-opacity="1" stroke-width="1" font-family=".SF NS Text" font-size="54.1667" font-style="normal"/>
  <g transform="matrix(11.811,0,0,11.811,0,0)" stroke="#000000" stroke-linecap="square" font-weight="400" fill="none" stroke-linejoin="bevel" stroke-opacity="1" stroke-width="1" font-family=".SF NS Text" font-size="54.1667" font-style="normal"/>
  <g transform="matrix(11.811,0,0,11.811,0,0)" stroke="#000000" stroke-linecap="square" font-weight="400" fill="none" stroke-linejoin="bevel" stroke-opacity="1" stroke-width="1" font-family=".SF NS Text" font-size="54.1667" font-style="normal"/>
  <g transform="matrix(1,0,0,1,0,0)" stroke="#000000" stroke-linecap="square" font-weight="400" fill="none" stroke-linejoin="bevel" stroke-opacity="1" stroke-width="1" font-family=".SF NS Text" font-size="54.1667" font-style="normal"/>
 </g>
</svg>
