<?xml version='1.0' encoding='UTF-8' standalone='no'?>
<svg height="84.6667mm" version="1.2" width="84.6667mm" xmlns="http://www.w3.org/2000/svg" baseProfile="tiny" viewBox="0 0 1000 1000" xmlns:xlink="http://www.w3.org/1999/xlink">
 <title>Qt SVG Document</title>
 <desc>Generated with Qt</desc>
 <defs/>
 <g stroke="black" stroke-linecap="square" fill="none" stroke-linejoin="bevel" stroke-width="1" fill-rule="evenodd">
  <g transform="matrix(1,0,0,1,0,0)" stroke="#000000" stroke-linecap="square" font-weight="400" fill="none" stroke-linejoin="bevel" stroke-opacity="1" stroke-width="1" font-family=".SF NS Text" font-size="54.1667" font-style="normal"/>
  <g transform="matrix(1,0,0,1,0,0)" stroke="#000000" stroke-linecap="square" font-weight="400" fill="none" stroke-linejoin="bevel" stroke-opacity="1" stroke-width="1" font-family=".SF NS Text" font-size="54.1667" font-style="normal"/>
  <g transform="matrix(11.811,0,0,11.811,0,0)" stroke="#000000" stroke-linecap="square" font-weight="400" fill="none" stroke-linejoin="bevel" stroke-opacity="1" stroke-width="1" font-family=".SF NS Text" font-size="54.1667" font-style="normal"/>
  <g transform="matrix(11.811,0,0,11.811,0,0)" stroke="#000000" stroke-linecap="square" font-weight="400" fill="none" stroke-linejoin="bevel" stroke-opacity="1" stroke-width="1" font-family=".SF NS Text" font-size="54.1667" font-style="normal"/>
  <g transform="matrix(11.811,0,0,11.811,0,0)" stroke="#000000" stroke-linecap="square" font-weight="400" fill="none" stroke-linejoin="bevel" stroke-opacity="1" stroke-width="1" font-family=".SF NS Text" font-size="54.1667" font-style="normal"/>
  <g transform="matrix(1,0,0,1,0,0)" stroke="#000000" stroke-linecap="square" font-weight="400" fill="none" stroke-linejoin="bevel" stroke-opacity="1" stroke-width="1" font-family=".SF NS Text" font-size="54.1667" font-style="normal"/>
  <g transform="matrix(1,0,0,1,0,0)" stroke="none" font-weight="400" fill="#ffffff" font-family=".SF NS Text" font-size="54.1667" font-style="normal" fill-opacity="1">
   <path vector-effect="none" d="M-2,-2 L1003,-2 L1003,1003 L-2,1003 L-2,-2" fill-rule="evenodd"/>
  </g>
  <g transform="matrix(1,0,0,1,0,0)" stroke="#000000" stroke-linecap="square" font-weight="400" fill="none" stroke-linejoin="bevel" stroke-opacity="1" stroke-width="1" font-family=".SF NS Text" font-size="54.1667" font-style="normal"/>
  <g transform="matrix(11.811,0,0,11.811,0,0)" stroke="#000000" stroke-linecap="square" font-weight="400" fill="none" stroke-linejoin="bevel" stroke-opacity="1" stroke-width="1" font-family=".SF NS Text" font-size="54.1667" font-style="normal"/>
  <g transform="matrix(11.811,0,0,11.811,0,0)" stroke="#000000" stroke-linecap="square" font-weight="400" fill="none" stroke-linejoin="bevel" stroke-opacity="1" stroke-width="1" font-family=".SF NS Text" font-size="54.1667" font-style="normal"/>
  <g transform="matrix(11.811,0,0,11.811,0,0)" stroke="#000000" stroke-linecap="square" font-weight="400" fill="none" stroke-linejoin="bevel" stroke-opacity="1" stroke-width="1" font-family=".SF NS Text" font-size="54.1667" font-style="normal"/>
  <g transform="matrix(11.811,0,0,11.811,0,0)" stroke="#000000" stroke-linecap="square" font-weight="400" fill="none" stroke-linejoin="bevel" stroke-opacity="1" stroke-width="1" font-family=".SF NS Text" font-size="54.1667" font-style="normal"/>
  <g transform="matrix(11.811,0,0,11.811,0,0)" stroke="#000000" stroke-linecap="square" font-weight="400" fill="none" stroke-linejoin="bevel" stroke-opacity="1" stroke-width="1" font-family=".SF NS Text" font-size="54.1667" font-style="normal"/>
  <g transform="matrix(11.811,0,0,11.811,0,0)" stroke="#000000" stroke-linecap="square" font-weight="400" fill="none" stroke-linejoin="bevel" stroke-opacity="1" stroke-width="1" font-family=".SF NS Text" font-size="54.1667" font-style="normal"/>
  <g transform="matrix(1,0,0,1,0,0)" stroke="none" font-weight="400" fill="#000000" font-family=".SF NS Text" font-size="54.1667" font-style="normal" fill-opacity="0">
   <rect y="0" height="1000" x="0" width="1000"/>
  </g>
  <g transform="matrix(1,0,0,1,0,0)" stroke="#e1e1e1" stroke-linecap="square" font-weight="400" fill="none" stroke-linejoin="round" stroke-opacity="1" stroke-width="59.0551" font-family=".SF NS Text" font-size="54.1667" font-style="normal">
   <path vector-effect="none" d="M364.527,116.77 L366.275,116.921 L367.212,117.528 L368.349,119.86 L371.836,122.245 L372.512,121.963 L372.924,120.103 L374.691,118.721 L378.018,119.457 L378.325,120.616 L375.051,123.967 L373.899,125.702 L373.979,127.024 L373.288,127.766 L374.953,128.494 L374.819,129.209 L375.603,129.609 L375.617,130.537 L374.214,131.047 L372.768,132.494 L371.113,133.41 L372.447,136.022 L371.499,137.162 L370.089,137.888 L369.939,139.433 L371.097,140.685 L370.979,142.556 L373.164,145.591 L374.403,146.068 L374.643,147.195 L376.749,147.461 L378.297,148.459 L377.874,150.345 L380.376,151.342 L380.504,151.862 L379.598,153.082 L381.184,154.665 L383.081,155.055 L385.198,154.871 L386.627,153.564 L389.14,152.708 L390.742,154.551 L391.229,155.679 L391.101,156.915 L392.29,158.005 L392.466,158.747 L395.547,160.037 L395.773,161.073 L394.428,162.846 L394.582,164.119 L396.051,164.856 L396.083,165.962 L396.849,166.949 L396.833,168.077 L399.865,172.387 L400.198,173.78 L399.962,174.673 L400.722,176.566 L401.863,177.51 L404.151,177.536 L406.577,180.181 L409.102,181.006 L409.53,182.036 L409.305,182.67 L412.154,184.974 L414.624,185.12 L416.789,184.436 L417.701,184.605 L418.718,185.883 L421.713,187.183 L422.452,187.995 L426.41,187.263 L428.496,187.66 L430.384,185.574 L432.756,185.35 L435.438,187.475 L438.734,189.224 L440.981,189.523 L441.564,191.609 L442.627,192.46 L443.886,192.28 L445.132,192.801 L449.236,191.702 L449.498,190.566 L450.626,189.152 L454.016,190.254 L455.755,190.521 L457.628,190.15 L458.71,190.862 L459.572,190.912 L459.473,193.622 L459.076,194.229 L459.393,196.791 L462.545,197.611 L462.849,198.631 L462.142,201.441 L463.359,201.87 L462.651,203.298 L463.421,206.686 L462.422,208.252 L461.547,208.605 L465.029,208.854 L466.334,207.904 L467.22,205.658 L469.832,204.043 L470.983,205.873 L471.139,207.308 L472.647,209.307 L475.496,210.468 L478.103,210.692 L481.987,213.384 L484.509,213.689 L482.808,216.794 L484.378,218.135 L484.577,218.922 L485.346,219.263 L486.154,218.995 L486.756,219.537 L487.647,220.597 L487.427,221.335 L489.616,221.292 L490.897,219.783 L492.658,218.694 L495.836,221.123 L496.95,223.087 L499.894,225.079 L504.914,224.429 L505.576,224.717 L507.208,226.907 L506.309,228.912 L506.784,229.963 L507.55,230.264 L507.94,231.281 L509.17,231.706 L509.368,233.28 L509.919,233.864 L513.458,234.153 L515.645,233.642 L519.141,231.989 L519.905,228.56 L520.671,227.952 L520.866,226.324 L519.83,225.354 L519.389,223.768 L521.324,221.806 L522.987,221.39 L524.645,219.366 L525.146,217.73 L527.617,216.199 L529.826,215.968 L533.793,218.242 L538.126,217.13 L539.008,218.36 L538.958,219.688 L540.078,221.247 L542.44,222.354 L544.575,222.78 L546.263,221.898 L547.689,219.578 L549.115,218.773 L550.279,217.301 L552.019,216.996 L552.282,215.944 L553.193,215.546 L556.216,217.71 L558.463,217.217 L563.266,215.232 L565.121,213.681 L566.248,211.592 L569.813,208.414 L573.134,207.959 L578.3,204.446 L580.07,200.315 L590.883,199.326 L591.023,198.593 L593.617,196.994 L594.292,196.032 L596.568,196.179 L599.061,195.497 L599.161,193.79 L600.445,193.124 L601.302,191.615 L600.932,189.399 L601.409,188.1 L603.285,188.321 L604.722,189.546 L605.463,189.686 L605.339,190.549 L609.547,189.735 L609.837,191.474 L611.303,193.426 L612.841,193.187 L614.251,191.893 L614.876,192.674 L616.912,193.335 L617.901,195.23 L619.361,196.381 L619.637,197.177 L622.966,198.608 L623.776,199.419 L623.341,200.056 L623.649,200.698 L628.929,204.695 L629.397,205.485 L631.414,206.53 L632.696,208.482 L635.592,209.916 L635.834,210.423 L635.497,211.807 L634.386,212.964 L633.2,213.492 L630.883,213.535 L629.849,214.221 L629.397,215.359 L628.414,216.304 L627.621,220.879 L630.558,223.488 L631.95,223.318 L634.196,225.078 L636.953,225.46 L639.631,228.688 L641.32,228.677 L641.972,227.57 L643.114,227.124 L645.128,227.947 L648.099,230.045 L651.135,231.146 L651.672,232.351 L653.63,233.262 L654.523,235.612 L654.231,237.197 L656.102,238.692 L655.081,241.613 L657.167,242.885 L657.746,244.037 L660.325,245.836 L663.518,245.278 L666.193,245.788 L666.762,247.703 L668.284,248.794 L668.454,250.06 L667.751,251.544 L668.043,252.584 L667.077,253.674 L667.459,255.136 L666.54,255.255 L666.318,255.699 L667.654,256.441 L668.451,258.066 L666.777,259.068 L665.874,260.493 L665.904,261.846 L665.088,262.724 L665.285,265.174 L664.159,265.968 L664.247,267.445 L666.627,268.773 L667.562,269.77 L668.471,269.966 L670.098,271.866 L670.58,273.992 L671.617,275.167 L673.11,275.902 L676.774,276.217 L678.117,276.879 L678.602,277.524 L677.988,279.14 L681.824,280.493 L684.377,284.111 L686.708,285.007 L689.071,284.918 L689.406,285.811 L690.158,286.327 L693.661,285.366 L692.694,284.315 L694.876,282.554 L695.007,281.761 L697.405,280.847 L698.407,279.604 L701.041,282.415 L702.205,284.597 L704.017,284.538 L705.709,283.389 L707.616,284.653 L709.166,285.1 L710.443,283.968 L712.273,283.497 L712.29,281.705 L711.428,279.664 L710.586,278.882 L715.382,274.919 L716.823,275.519 L718.094,275.468 L719.887,277.705 L722.255,277.088 L725.219,277.139 L725.274,272.528 L723.92,269.804 L725.557,269.849 L728.005,269.22 L731.514,270.179 L732.637,270.031 L738.385,272.869 L739.656,272.903 L740.262,273.714 L744.37,274.361 L747.812,272.487 L751.418,272.462 L753.302,267.344 L759.302,265.15 L762.934,265.151 L766.171,264.126 L769.065,262.522 L769.824,260.676 L769.704,259.321 L768.783,257.51 L766.928,255.852 L773.938,252.886 L774.637,251.694 L780.885,249.607 L783.311,250.713 L789.163,249.806 L788.623,251.69 L789.182,256.969 L790.168,259.915 L790.931,260.807 L788.193,266.08 L787.147,269.808 L786.999,273.415 L789.056,282.437 L790.375,284.715 L793.81,286.416 L780.96,294.448 L778.593,296.628 L774.922,297.868 L769.231,298.584 L769.887,311.441 L768.784,313.254 L764.373,317.121 L771.74,325.172 L772.849,325.659 L785.109,315.879 L792.058,311.356 L795.24,311.656 L796.484,312.232 L797.106,314.42 L799.171,316.059 L800.717,316.332 L803.563,316.058 L805.172,316.528 L806.954,317.841 L807.55,319.124 L808.716,319.826 L809.695,321.897 L808.901,324.044 L806.651,326.981 L806.142,329.244 L806.85,330.891 L813.207,333.132 L814.306,333.888 L817.493,339.037 L824.011,338.942 L826.384,339.614 L828.312,341 L827.749,342.601 L822.672,347.197 L821.69,351.975 L821.084,353.045 L818.738,355.019 L814.755,357.119 L813.707,358.654 L812.804,362.651 L813.85,367.071 L814.455,374.734 L814.231,376.83 L813.737,378.493 L812.166,380.792 L807.486,385.458 L807.036,386.833 L813.67,386.973 L818.657,387.731 L823.633,387.042 L826.926,386.057 L833.723,385.916 L842.905,390.892 L847.953,394.267 L848.533,394.798 L848.54,396.184 L847.472,398.191 L847.299,399.874 L848.281,402.312 L848.147,403.927 L846.824,406.835 L843.767,408.549 L842.972,410.264 L847.02,413.753 L848.257,416.383 L849.084,420.019 L851.442,421.232 L857.409,421.912 L860.335,422.667 L862.537,423.996 L863.006,426.242 L864.858,428.622 L865.684,427.966 L868.291,428.346 L867.504,429.921 L869.686,432.355 L873.784,433.585 L873.964,435.902 L875.662,439.072 L878.151,440.745 L877.803,443.191 L878.751,444.413 L878.881,446.005 L879.943,447.24 L881.267,447.834 L881.164,449.778 L882.371,451.013 L884.799,450.924 L885.645,450.393 L887.003,450.852 L889.851,450.584 L890.597,451.36 L890.482,451.857 L893.896,453.057 L892.426,454.657 L892.567,456.263 L891.921,458.182 L893.971,460.544 L890.845,461.487 L890.129,462.101 L889.799,463.449 L889.746,465.187 L891.128,466.62 L890.716,468.222 L891.283,470.239 L890.4,471.315 L888.606,472.003 L886.317,474.372 L885.421,476.283 L883.38,477.59 L885,479.959 L883.221,481.88 L884.35,483.984 L885.567,484.942 L884.309,486.299 L884.064,487.572 L883.339,488.338 L883.629,489.318 L884.368,490.012 L883.808,490.834 L884.291,494.05 L883.752,494.354 L883.584,495.211 L881.519,495.533 L881.391,496.23 L879.999,496.5 L877.117,498.274 L873.021,502.613 L872.928,503.237 L873.67,504.576 L873.287,506.263 L874.268,508.496 L873.657,509.601 L873.71,510.953 L874.348,512.001 L877.406,513.84 L877.528,514.877 L878.248,514.89 L879.177,515.66 L879.712,520.269 L880.438,522.001 L880.193,522.454 L881.477,524.332 L881.423,524.916 L883.787,526.469 L884.298,529.822 L886.678,532.458 L886.458,534.307 L885.447,535.1 L885.726,536.155 L887.2,537.283 L889.342,537.956 L895.645,537.166 L898.531,535.917 L899.255,537.108 L898.536,539.061 L898.973,541.28 L898.602,542.29 L899.384,545.045 L901.536,547.602 L904.034,547.843 L906.204,549.964 L906.891,551.244 L909.791,551.703 L911.421,555.677 L910.024,557.687 L909.895,558.783 L908.535,558.61 L907.17,559.416 L905.137,561.932 L904.478,563.465 L903.603,563.961 L900.727,563.825 L900.437,565.947 L899.707,566.933 L893.55,569.595 L892.397,572.802 L890.811,572.739 L888.627,571.378 L887.542,573.185 L886.379,573.634 L884.056,573.482 L882.801,574.581 L881.593,574.828 L880.4,575.986 L879.475,579.869 L878.274,580.986 L877.747,582.506 L878.692,584.966 L878.618,586.168 L879.588,587.132 L879.002,588.735 L879.433,589.059 L882.058,589.092 L883.11,589.609 L885.232,588.616 L886.336,589.179 L887.932,589.099 L889.108,590.245 L889.426,591.205 L890.738,591.869 L892.13,594.87 L891.967,595.805 L893.242,597.369 L895.636,598.045 L898.325,599.495 L897.851,601.329 L895.978,601.918 L895.339,603.072 L894.278,603.564 L893.405,605.446 L891.722,606.908 L890.617,609.57 L888.474,610.866 L888.67,611.866 L886.348,614.943 L886.678,616.453 L887.534,617.241 L887.543,618.27 L885.636,619.346 L885.521,620.07 L887.253,622.029 L888.738,622.592 L890.668,624.287 L890.491,625.177 L889.487,625.83 L889.348,626.434 L891.953,628.891 L890.39,629.982 L890.752,631.168 L892.838,632.217 L893.252,633.034 L893.11,634.332 L896.163,635.743 L896.679,636.472 L901.592,635.657 L902.648,636.188 L903.354,637.726 L906.178,638.666 L909.146,639.076 L910.398,638.551 L912.998,638.977 L913.753,638.769 L913.995,637.566 L912.75,636.437 L912.671,634.755 L913.293,634.068 L915.357,633.37 L917.075,635.525 L919.15,636.836 L920.235,640.905 L920.755,641.207 L920.718,642.646 L921.727,644.233 L921.674,645.824 L923.726,647.564 L927.17,649.265 L929.835,651.348 L931.414,655.889 L931.42,657.547 L932.493,658.136 L932.483,658.942 L933.836,660.012 L938.254,659.819 L938.509,660.742 L937.218,662.559 L938.07,663.542 L938.326,664.682 L941.073,666.85 L940.865,667.855 L944.892,669.633 L946.634,669.871 L947.059,670.634 L947.84,670.64 L948.42,671.252 L949.642,674.598 L949.034,676.475 L949.729,678.086 L948.865,679.384 L949.712,680.777 L952.064,681.673 L953.147,685.173 L953.981,685.976 L954.545,688.267 L952.746,687.602 L951.786,688.26 L949.52,688.64 L944.981,688.757 L942.341,690.595 L939.054,691.446 L937.56,690.757 L934.129,690.727 L932.451,688.397 L931.024,688.054 L928.937,688.875 L928.825,690.354 L927.838,691.212 L925.665,690.964 L923.057,691.735 L921.67,691.249 L918.33,688.551 L916.295,685.583 L913.173,685.03 L911.706,684.223 L909.965,682.999 L909.078,680.701 L907.233,680.101 L906.203,676.901 L905.037,675.537 L905.55,674.002 L903.735,672.865 L902.397,672.57 L901.78,671.775 L901.712,669.541 L902.732,667.602 L903.553,667.052 L903.293,665.786 L901.564,664.743 L898.058,665.241 L893.376,667.243 L889.654,668.078 L887.32,667.525 L879.858,667.042 L877.182,667.544 L874.884,667.028 L873.197,667.214 L870.97,666.371 L868.778,664.882 L866.663,665.284 L864.821,665.117 L863.608,666.749 L862.11,667.155 L861.121,668.269 L861.654,666.662 L860.731,665.998 L860.938,665.425 L858.743,663.709 L858.802,661.394 L858.202,660.368 L855.408,660.337 L852.591,659.53 L851.687,657.879 L848.165,656.497 L845.922,656.807 L844.817,657.598 L842.882,657.187 L839.885,657.562 L838.984,658.637 L837.178,659.189 L836.49,660.698 L832.799,664.311 L826.116,665.228 L821.069,665.386 L814.729,664.57 L814.867,663.964 L814.116,663.087 L813.676,660.618 L811.828,659.376 L808.869,654.696 L807.796,654.23 L807.264,653.366 L805.741,653.467 L804.037,652.48 L802.171,649.879 L801.55,649.756 L800.726,650.244 L799.329,652.505 L797.952,652.559 L796.212,653.743 L794.282,653.055 L793.185,651.537 L794.339,649.322 L791.823,646.658 L791.412,644.237 L789.64,644.531 L788.783,645.27 L788.049,642.329 L784.528,641.302 L779.644,642.828 L777.951,642.833 L776.433,642.277 L774.292,643.625 L770.609,643.276 L770.275,642.582 L768.779,642.152 L767.949,644.177 L768.486,644.563 L768.589,645.36 L767.493,648.342 L766.487,648.575 L764.856,648.013 L763.647,648.328 L761.247,646.66 L760.472,647.655 L759.425,647.91 L758.752,649.407 L757.577,650.358 L757.469,651.353 L755.86,652.257 L755.285,653.705 L753.931,654.035 L752.365,653.627 L752.684,655.42 L751.685,656.192 L750.678,656.487 L749.059,655.591 L746.222,654.967 L744.596,655.251 L743.513,656.379 L743.224,658.43 L742.497,659.078 L741.622,658.93 L739.046,659.707 L738.028,659.041 L737.102,657.696 L735.731,657.086 L733.795,657.46 L732.211,657.144 L730.44,657.726 L728.596,657.505 L728.029,659.255 L726.835,659.438 L725.453,660.642 L725.255,661.468 L721.449,662.07 L720.176,664.082 L718.812,664.248 L713.525,668.181 L711.799,668.491 L709.296,667.685 L703.498,667.705 L699.571,669.642 L697.29,670.012 L696.865,671.498 L694.946,672.354 L693.848,673.845 L694.016,677.343 L691.427,677.187 L689.786,675.529 L688.235,674.721 L686.156,674.418 L683.526,674.925 L681.87,675.749 L680.77,674.374 L678.822,673.3 L677.238,671.38 L674.997,672.031 L673.589,673.354 L673.023,674.591 L670.806,674.603 L668.676,676.351 L665.915,677.486 L665.044,677.474 L663.524,676.566 L661.41,676.526 L659.664,677.115 L658.978,677.539 L659.434,679.676 L657.721,681.87 L656.398,682.131 L656.89,684.993 L656.422,685.721 L654.632,686.196 L654.129,686.974 L653.467,686.912 L653.578,686.566 L652.189,686.928 L649.682,688.648 L648.79,690.489 L649.661,692.52 L646.332,698.004 L642.824,698.195 L640.393,702.024 L639.178,702.775 L638.562,702.844 L638.804,701.918 L635.715,701.802 L637.163,702.444 L636.961,704.229 L638.447,705.1 L638.38,706.158 L640.631,709.88 L638.782,709.741 L637.341,708.741 L635.741,709.115 L634.556,710.41 L634.691,713.22 L635.338,714.611 L639.349,714.928 L638.546,716.393 L641.162,719.136 L639.127,720.619 L639.383,721.507 L639.098,722.735 L638.664,723.781 L637.03,724.782 L636.519,727.711 L639.13,728.956 L641.261,728.295 L642.726,729.469 L642.7,730.004 L641.937,730.304 L640.312,729.972 L639.177,730.716 L636.413,729.828 L631.005,725.856 L625.339,724.366 L624.483,724.408 L623.796,725.488 L620.47,726.994 L619.115,729.922 L619.58,732.58 L620.456,734.165 L620.109,735.16 L623.092,736.054 L622.787,739.32 L623.609,738.921 L624.044,739.547 L625.182,739.205 L628.073,739.705 L628.626,739.594 L629.105,738.766 L630.515,738.374 L634.003,737.879 L635.761,737.964 L636.232,738.338 L635.603,739.732 L636.916,741.412 L636.76,742.993 L635.041,745.039 L633.059,745.937 L632.387,752.668 L633.648,753.482 L634.204,756.616 L629.028,755.567 L627.161,754.711 L626.669,753.97 L626.338,750.707 L625.612,750.14 L622.896,749.378 L621.569,750.337 L621.003,751.435 L621.295,754.814 L620.494,756.015 L618.279,757.174 L617.788,758.379 L621.424,761.431 L622.383,763.844 L618.947,765.024 L618.209,767.284 L615.378,769.59 L614.838,770.498 L614.554,772.949 L611.756,777.229 L610.095,778.578 L607.074,780.059 L608.453,783.433 L607.444,783.887 L606.716,785.09 L607.413,786.026 L608.409,786.833 L611.799,786.333 L613.618,788.317 L614.905,788 L615.999,789.33 L615.81,790.977 L618.499,792.156 L618.691,792.888 L618.213,793.715 L620.929,795.564 L619.486,797.377 L620.066,798.3 L618.564,798.889 L618.956,800.67 L618.515,801.923 L618.69,802.772 L621.818,803.857 L621.977,804.573 L623.164,805.175 L625.373,805.635 L625.924,806.788 L627.684,808.065 L628.552,808.175 L629.897,807.464 L630.702,808.406 L630.693,808.873 L629.195,809.392 L628.973,810.235 L627.696,811.606 L629.162,812.928 L629.067,814.26 L630.195,814.978 L628.979,816.061 L629.001,817.528 L630.708,818.462 L631.695,820.397 L629.156,820.221 L627.434,820.613 L625,819.671 L624.422,820.166 L624.989,821.227 L624.762,822.726 L625.345,824.416 L625.15,824.855 L623.202,825.116 L620.88,822.782 L619.885,823.557 L618.341,822.994 L617.584,823.633 L618.527,824.706 L617.583,825.053 L617.557,825.866 L618.949,826.306 L621.147,827.863 L622.218,830.016 L623.943,831.711 L624.045,833.257 L625.777,835.255 L628.319,834.724 L631.123,836.491 L631.94,836.261 L632.597,835.303 L634.388,836.146 L636.417,834.659 L637.445,834.407 L638.708,836.336 L638.001,838.188 L640.059,841.938 L639.831,843.265 L639.416,843.747 L638.075,844.001 L637.321,848.97 L634.898,849.38 L632.655,850.371 L628.185,850.5 L626.214,852.169 L623.203,853.029 L616.559,857.04 L614.513,857.806 L611.654,857.841 L607.985,861.505 L605.52,862.406 L603.472,864.493 L598.286,865.512 L596.213,864.754 L593.389,864.485 L592.491,865.258 L592.399,866.544 L591.444,868.612 L590.493,868.813 L589.295,868.442 L587.942,868.959 L586.354,868.041 L585.483,868.05 L578.414,870.013 L577.272,871.046 L575.768,871.532 L572.596,873.715 L572.075,874.496 L572.82,877.488 L575.372,881.195 L575.618,882.736 L574.646,882.819 L574.397,883.23 L568.514,880.46 L566.283,878.611 L566.094,878.178 L566.595,877.557 L564.423,875.635 L561.429,871.829 L560.466,868.993 L560.632,867.538 L559.001,865.703 L557.749,865.753 L554.557,869.961 L554.264,874.859 L553.485,876.049 L551.391,876.015 L549.997,874.465 L546.534,875.928 L544.975,877.224 L542.951,876.836 L542.186,877.229 L540.053,877.272 L537.712,878.518 L535.922,876.439 L531.903,876.426 L532.143,874.703 L533.836,874.46 L534.711,873.084 L537.613,872.657 L537.967,871.556 L539.859,869.642 L539.93,868.769 L541.894,868.541 L541.862,866.145 L543.093,864.562 L541.237,862.473 L540.489,862.36 L539.319,865.013 L538.814,864.954 L537.725,865.918 L535.285,869.012 L531.665,870.99 L530.49,870.923 L529.892,872.774 L528.438,873.516 L528.454,874.951 L527.458,874.991 L525.64,872.98 L527.111,871.759 L527.023,870.935 L527.575,870.866 L528.139,870.061 L526.902,869.502 L526.048,870.039 L525.733,869.373 L523.762,869.299 L523.324,868.501 L523.535,866.785 L522.777,866.631 L520.226,866.921 L517.524,866.574 L516.686,868.6 L516.551,866.308 L514.318,863.092 L514,861.786 L512.218,862.541 L510.976,861.997 L508.596,862.584 L507.452,863.079 L506.843,864.131 L505.129,865.091 L505.034,864.278 L504.182,864.451 L501.884,862.949 L501.025,863.039 L501.12,862.106 L499.286,861.195 L499.24,860.14 L498.394,859.568 L497.057,860.547 L495.316,859.91 L494.357,860.379 L493.415,860.193 L493.635,858.324 L493.315,857.373 L492.129,855.967 L491.302,855.64 L489.884,855.576 L488.467,856.606 L486.588,856.383 L485.676,857.133 L485.278,856.802 L484.524,857.158 L482.767,856.387 L480.802,856.05 L480.457,856.378 L480.004,855.874 L478.38,856.744 L476.547,859.812 L475.812,860.048 L475.025,857.48 L474.996,854.875 L475.47,853.596 L475.076,853.214 L474.77,849.121 L471.804,844.648 L471.075,843.855 L469.053,843.558 L467.295,842.389 L465.611,842.07 L465.349,841.336 L464.692,841.063 L460.036,840.82 L458.236,840.266 L455.734,838.569 L453.732,835.028 L452.404,833.807 L456.487,831.81 L456.229,831.18 L456.853,830.375 L456.877,829.527 L458.973,829.847 L460.205,828.181 L461.429,827.998 L462.309,827.305 L461.869,826.72 L463.461,826.014 L463.126,825.297 L465.583,823.698 L464.821,822.718 L465.181,822.89 L465.625,821.552 L465.124,820.453 L465.656,818.923 L465.327,816.671 L465.743,815.299 L466.489,815.06 L466.806,814.19 L464.299,812.744 L463.575,811.597 L463.581,810.357 L463.221,810.491 L463.089,809.334 L463.604,808.974 L463.986,807.489 L464.595,807.172 L464.652,805.468 L463.896,803.753 L462.539,802.68 L462.859,802.214 L463.886,802.15 L463.296,801.736 L464.218,801.695 L462.626,799.825 L460.926,799.38 L459.074,797.551 L457.561,797.552 L456.341,795.763 L454.008,794.548 L453.776,793.126 L452.802,791.608 L451.706,792.415 L450.019,792.611 L450.503,791.357 L450.066,789.939 L446.628,788.359 L445.216,787.102 L440.823,786.606 L438.249,787.399 L436.832,786.174 L434.994,786.239 L432.849,784.293 L433.157,785.257 L432.23,784.632 L431.632,784.643 L431.35,785.099 L432.444,787.301 L429.311,787.568 L429.204,787.996 L427.63,788.455 L425.174,786.761 L425.237,785.504 L426.101,785.349 L426.077,784.921 L425.996,784.49 L425.321,784.471 L425.213,783.586 L424.047,784.055 L424.744,782.925 L424.661,780.036 L423.616,779.416 L422.479,779.638 L421.874,779.091 L420.003,778.777 L423.5,777.34 L424.654,776.105 L424.527,774.449 L423.167,773.802 L423.732,772.701 L422.894,770.739 L422.968,768.166 L422.482,768.028 L420.371,769.1 L419.316,767.644 L414.713,766.988 L412.76,765.85 L412.228,764.619 L411.281,764.027 L410.323,763.957 L409.45,765.321 L408.699,764.123 L407.213,765.66 L406.544,767.137 L405.313,765.884 L404.433,766.146 L406.114,764.281 L404.795,760.761 L406.726,757.336 L406.325,756.619 L404.849,756.128 L404.718,755.037 L402.937,752.432 L403.299,751.779 L402.772,750.933 L401.897,750.968 L400.639,751.771 L399.65,751.119 L399.033,749.362 L397.717,748.567 L397.022,746.404 L397.522,745.917 L397.573,743.959 L395.619,744.963 L395.375,745.719 L392.84,746.108 L391.737,746.715 L391.832,747.633 L389.708,748.016 L389.167,748.699 L386.678,749.248 L387.324,750.622 L384.982,751.319 L384.346,750.544 L383.23,750.122 L382.539,748.511 L381.383,748.359 L380.059,746.839 L378.329,747.023 L377.384,746.384 L375.52,742.967 L374.439,742.262 L373.501,740.668 L374.258,739.738 L373.396,738.665 L373.75,738.514 L373.153,737.149 L372.423,736.565 L369.425,737.773 L365.968,740.107 L362.953,740.612 L360.091,742.574 L360.242,742.752 L360.27,743.037 L360.088,742.626 L358.854,742.295 L359.023,741.661 L357.646,739.764 L357.422,738.624 L355.823,738.132 L355.693,737.235 L354.996,736.814 L353.1,736.872 L352.316,735.645 L350.475,734.727 L350.42,734.04 L349.738,733.561 L349.438,731.468 L349.736,730.971 L348.821,731.047 L345.771,727.912 L344.327,728.242 L342.869,726.889 L342.396,725.603 L339.77,725.297 L335.478,726.098 L332.711,725.853 L332.957,725.469 L332.624,724.426 L331.412,723.731 L330.723,722.679 L329.852,722.268 L329.52,722.641 L328.945,722.495 L326.945,720.824 L323.341,720.139 L322.217,718.638 L319.798,717.868 L320.357,714.654 L320.332,711.672 L320.957,711.29 L317.745,709.606 L317.474,707.819 L316.137,705.339 L319.24,702.904 L319.022,702.43 L319.446,702.24 L317.992,698.859 L318.02,696.728 L319.379,696.357 L320.049,693.227 L321.783,691.499 L321.706,690.926 L323.281,689.934 L323.492,688.775 L322.821,686.573 L321.998,686.79 L321.4,686.438 L319.891,686.9 L319.665,686.501 L317.736,686.626 L316.777,685.005 L313.754,684.598 L313.655,683.318 L314.331,682.773 L314.366,681.917 L316.048,680.118 L315.599,679.449 L316.517,678.093 L315.863,677.768 L315.155,678.014 L314.963,677.181 L313.695,676.78 L314.625,674.905 L314.047,673.622 L315.625,671.417 L315.225,671.116 L315.256,670.192 L313.679,670.763 L313.214,670.029 L316.204,669.009 L317.945,666.196 L325.304,661.881 L324.478,660.519 L322.413,659.554 L323.029,659.595 L323.114,658.769 L324.34,658.256 L322.774,658.139 L322.373,657.729 L321.673,657.966 L320.606,657.239 L316.985,659.546 L314.879,659.85 L314.174,660.47 L313.528,660.341 L313.451,660.962 L311.406,661.196 L311.27,660.5 L310.907,660.524 L311.182,659.638 L310.279,659.198 L310.183,658.226 L311.059,658.178 L311.293,657.401 L311.95,657.186 L311.809,655.164 L312.786,653.754 L315.823,652.706 L316.452,651.559 L316.332,651.041 L311.244,646.986 L311.175,646.094 L309.948,644.54 L308.82,644.019 L307.661,645.362 L306.594,645.595 L305.57,646.677 L305.746,647.045 L305.101,647.944 L304.098,647.748 L302.567,650.246 L301.624,650.343 L300.656,649.618 L299.689,650.248 L298.374,649.341 L298.199,648.613 L299.49,646.705 L299.226,646.382 L299.953,645.691 L299.589,644.52 L300.245,643.328 L298.015,642.347 L297.527,644.337 L296.633,645.511 L297.231,646.653 L297.062,648.041 L294.953,649.282 L292.923,648.815 L292.959,647.714 L294.281,646.814 L294.199,646.162 L294.722,645.377 L294.304,645.436 L294.496,645.056 L294.024,644.745 L293.891,643.748 L292.267,642.942 L287.627,646.488 L286.899,645.68 L285.883,645.528 L285.314,642.579 L285.862,641.415 L285.351,640.697 L284.353,640.754 L284.483,639.319 L283.634,638.693 L282.904,636.627 L281.146,635.489 L279.88,637.165 L276.849,639.425 L275.858,640.722 L275.756,641.483 L271.354,643.75 L270.535,643.266 L270.877,640.98 L275.557,638.924 L276.675,638.162 L276.957,637.298 L274.512,634.553 L272.337,633.124 L270.683,632.58 L269.504,630.731 L268.42,630.533 L266.659,627.139 L267.052,625.85 L266.362,624.626 L264.894,624.354 L262.065,620.133 L261.086,616.955 L260.257,616.786 L258.015,613.845 L258.092,613.45 L258.485,613.604 L259.535,612.82 L260.978,613.122 L260.85,611.89 L259.912,611.195 L259.135,609.097 L256.774,608.634 L257.295,606.646 L255.483,604.908 L255.502,604.248 L254.439,603.493 L254.805,602.8 L253.357,601.211 L253.038,601.152 L252.886,602.188 L252.282,602.419 L252.051,603.407 L252.731,604.443 L252.147,606.961 L252.647,607.659 L252.596,608.66 L251.396,610.012 L249.136,610.206 L248.456,610.947 L246.257,611.65 L245.869,611.51 L245.743,610.424 L244.898,610.433 L244.737,611.523 L244.592,610.821 L241.624,610.732 L241.506,614.558 L241.818,615.345 L241.231,616.764 L244.453,616.88 L244.202,620.774 L244.704,620.836 L244.639,623.101 L245.621,623.188 L245.877,624.6 L247.471,624.669 L247.842,625.717 L247.165,625.692 L247.026,625.142 L245.913,625.212 L245.811,626.13 L245.374,626.167 L245.047,626.886 L243.389,626.967 L242.82,624.588 L242.419,624.531 L241.401,624.807 L241.699,625.28 L235.363,626.331 L236.805,629.684 L239.366,631.919 L236.333,632.494 L234.531,633.982 L231.491,634.926 L230.55,635.871 L229.804,635.664 L226.889,637.515 L225.556,636.897 L225.08,634.192 L224.688,634.842 L221.843,634.844 L220.054,635.583 L217.239,635.419 L210.437,637.832 L204.318,637.674 L203.07,637.115 L202.543,636.167 L201.345,635.931 L201.759,628.711 L201.079,626.895 L195.81,626.059 L194.305,624.539 L193.971,623.635 L193.234,623.491 L193.099,622.253 L192.577,621.968 L193.039,621.444 L192.688,620.497 L192.81,616.49 L196.319,614.139 L198.351,612.047 L198.675,611.327 L197.768,609.521 L198.368,608.478 L197.731,607.726 L196.111,607.134 L196.754,605.401 L195.196,602.933 L194.091,602.138 L192.278,602.028 L190.917,599.933 L190.474,598.083 L188.915,597.232 L189.54,595.38 L189.326,594.699 L188.358,594.133 L188.266,592.136 L187.752,591.989 L187.632,591.335 L185.859,590.462 L185.644,589.771 L184.633,588.948 L185.542,587.657 L185.284,586.129 L185.645,585.08 L183.583,584.456 L182.673,582.586 L181.841,581.813 L180.496,578.367 L180.64,577.606 L179.52,575.637 L179.701,574.734 L177.96,573.342 L177.064,571.757 L176.066,571.527 L175.18,570.581 L173.988,568.325 L172.935,567.549 L172.652,565.9 L171.066,564.88 L170.618,563.361 L169.253,562.82 L168.379,561.675 L168.787,560.842 L167.674,559.564 L168.557,559.422 L168.912,558.795 L168.162,556.311 L166.551,557.107 L165.752,556.926 L164.305,555.013 L163.327,555.169 L162.937,554.197 L161.04,552.656 L160.834,551.625 L159.625,551.072 L158.194,549.249 L159.074,547.001 L158.037,545.743 L158.381,544.792 L155.853,543.608 L155.062,541.332 L154.745,537.823 L153.889,536.441 L153.502,534.495 L151.637,532.016 L151.25,530.799 L151.598,530.272 L150.531,529.136 L150.469,527.797 L148.962,526.167 L149.005,525.462 L148.006,524.25 L147.727,522.216 L146.671,521.892 L146.19,520.913 L146.145,520.142 L146.929,519.86 L146.856,519.535 L145.783,518.085 L146.112,517.549 L145.681,516.074 L144.482,513.472 L143.729,512.873 L143.68,511.516 L142.879,509.587 L140.988,509.012 L140.977,507.332 L136.615,500.457 L137.979,501.182 L139.493,501.097 L142.019,500.222 L142.315,499.659 L144.782,498.223 L145.326,498.217 L146.354,499.654 L146.976,499.57 L147.763,501.1 L148.664,500.834 L149.075,501.472 L149.887,501.304 L149.876,499.784 L146.777,497.01 L145.811,496.979 L145.726,495.658 L144.411,494.37 L143.139,489.957 L138.86,482.299 L137.163,480.316 L136.604,478.246 L130.988,469.675 L129.927,467.329 L129.617,464.589 L127.833,463.895 L124.849,461.483 L122.234,460.407 L122.327,459.591 L119.993,459.438 L115.394,458.284 L113.812,456.062 L106.003,455.59 L100.131,452.971 L94.8384,450.071 L90.8941,446.006 L87.1293,441.275 L84.9073,440.826 L79.8455,442.531 L76.4599,440.287 L75.6977,439.334 L75.7322,438.144 L73.16,435.87 L71.2129,435.015 L67.8217,434.458 L66.7083,433.444 L66.8535,432.54 L63.811,431.606 L63.7268,431.148 L62.4742,430.637 L61.4353,430.653 L59.5509,431.887 L56.7235,432.317 L55.331,431.497 L52.4182,431.999 L47.4415,433.796 L47.1737,432.928 L45.9908,433 L45.583,432.645 L45.9133,431.327 L45.4545,430.306 L46.5017,429.415 L46.0314,428.392 L47.2121,426.543 L49.882,426.523 L52.4048,425.268 L54.0455,423.032 L54.3653,420.202 L53.7726,419.847 L54.6909,419.064 L61.0836,416.401 L63.2989,414.885 L66.4383,409.056 L63.9948,408.094 L64.1327,407.501 L64.6934,407.248 L64.879,404.043 L62.6627,404.096 L62.7034,402.705 L62.0893,402.482 L62.8933,402.468 L62.8898,401.488 L63.801,400.812 L63.8038,400.317 L61.6746,399.226 L61.8235,398.846 L60.7922,398.9 L59.0197,399.98 L56.9566,400.035 L56.8729,401.498 L55.7225,401.655 L55.3051,400.923 L53.4342,400.655 L54.2232,397.01 L54.2281,396.121 L53.6811,395.59 L54.0385,393.951 L55.4573,393.853 L56.9144,393.135 L57.3104,392.249 L56.738,389.707 L54.0323,389.471 L52.0387,388.782 L51.7431,388.306 L55.7595,386.118 L57.2347,384.229 L61.6485,384.496 L64.3841,383.852 L77.158,378.741 L85.539,377.604 L92.3937,374.467 L93.0403,374.047 L95.3074,369.035 L97.405,367.409 L99.6473,364.899 L101.079,363.862 L104.284,363.368 L103.821,361.913 L102.336,360.51 L103.218,358.529 L107.425,358.003 L109.479,356.271 L111.988,356.588 L112.955,353.05 L112.846,351.793 L115.283,348.891 L117.301,347.931 L119.796,346.02 L123.44,345.871 L125.198,346.628 L128.243,346.115 L129.892,346.387 L131.142,345.621 L131.828,346.051 L132.632,345.756 L132.964,347.134 L134.632,346.313 L135.601,347.101 L136.567,345.519 L135.431,345.091 L131.971,341.612 L131.54,340.227 L132.339,337.078 L128.957,335.12 L127.883,333.065 L127.323,330.788 L124.441,329.591 L120.635,325.555 L120.158,325.922 L118.274,323.926 L115.562,322.494 L112.801,318.99 L113.289,318.689 L111.89,315.78 L110.546,314.829 L109.382,315.071 L109.099,314.659 L109.267,314.101 L111.24,314.191 L110.713,312.948 L111.228,311.923 L115.422,310.472 L115.799,309.944 L115.611,308.116 L120.502,304.774 L120.541,303.535 L119.131,302.105 L118.742,300.947 L121.753,299.376 L122.272,297.504 L121.783,295.191 L122.086,294.785 L123.445,294.029 L125.46,294.33 L127.388,293.503 L128.96,291.127 L129.291,289.304 L131.088,288.131 L131.706,285.734 L130.978,284.209 L131.874,283.404 L131.805,282.753 L133.288,281.783 L134.056,283.167 L134.965,283.097 L134.572,281.389 L135.853,280.23 L135.754,279.138 L136.578,278.76 L135.369,279.182 L134.001,279.944 L131.737,279.702 L131.788,277.216 L129.266,275.79 L125.949,278.367 L124.264,277.889 L124.015,277.414 L125.717,275.653 L125.958,274.857 L125.591,273.958 L126.972,272.842 L126.905,272.154 L127.489,271.535 L127.081,270.675 L127.051,268.251 L127.856,266.201 L127.155,265.334 L129.607,261.041 L129.633,260.204 L131.732,258.711 L132.742,257.05 L132.68,255.538 L133.805,252.818 L130.262,248.414 L127.508,246.27 L127.091,244.801 L126.35,244.64 L124.386,242.923 L123.877,237.483 L122.544,235.087 L118.724,234.516 L118.935,232.643 L115.335,228.812 L114.255,228.35 L113.736,228.682 L112.855,227.993 L112.194,226.479 L109.404,226.026 L108.533,224.728 L106.483,223.983 L105.946,222.362 L104.408,221.933 L104.085,219.483 L103.247,217.615 L100.588,215.532 L105.149,212.949 L106.16,211.548 L106.697,209.418 L108.206,208.235 L110.112,205.216 L111.508,203.913 L113.554,203.753 L115.182,204.69 L117.138,204.583 L118.858,205.26 L121.007,205.046 L122.017,206.243 L123.996,206.669 L125.212,207.573 L127.331,208.099 L129.222,208.016 L133.389,210.055 L134.035,211.753 L135.692,214.082 L141.217,218.799 L146.701,215.432 L148.35,215.054 L149.689,212.721 L153.825,211.513 L154.489,210.889 L155.388,211.03 L157.204,209.117 L162.022,207.259 L163.613,205.751 L163.32,204.278 L163.953,202.99 L165.148,201.923 L171.126,200.549 L173.019,197.633 L176.936,196.747 L176.739,195.062 L179.386,194.595 L179.915,194.109 L183.175,188.328 L182.521,187.177 L183.501,184.546 L183.379,183.41 L188.721,183.013 L191.148,182.425 L197.71,183.228 L199.723,182.498 L201.928,179.693 L203.186,179.426 L208.698,180.65 L211.442,180.462 L213.618,178.779 L219.355,179.35 L220.724,177.222 L222.925,175.82 L227.603,175.027 L228.151,174.038 L228.53,171.296 L232.099,169.771 L232.291,168.96 L232.007,166.802 L230.515,165.741 L230.298,164.427 L230.373,161.891 L231.838,158.601 L231.167,157.622 L234.999,154.973 L236.322,153.038 L238.506,152.228 L238.878,151.596 L241.925,150.989 L246.927,146.653 L251.489,144.114 L253.184,144.046 L255.369,140.886 L259.182,138.621 L261.045,136.42 L261.911,136.216 L262.659,135.445 L265.39,135.646 L267.036,134.954 L269.136,136.474 L271.116,136.922 L273.545,136.612 L276.081,137.156 L279.284,136.371 L280.98,137.079 L283.071,137.318 L288.705,134.424 L290.881,132.77 L294.534,132.747 L298.1,131.648 L300.821,132.106 L304.545,129.11 L307.712,129.995 L313.911,130.178 L314.684,130.827 L314.15,132.796 L314.646,134.38 L315.174,134.753 L316.51,134.202 L317.931,135.153 L318.135,138.671 L321.282,140.583 L323.426,140.946 L325.547,141.882 L327.748,141.211 L329.574,141.289 L332.035,139.302 L334.484,139.413 L337.676,138.677 L341.679,138.709 L343.633,137.585 L343.874,136.773 L346.925,136.519 L349.133,137.793 L352.33,137.383 L352.426,136.019 L353.253,134.946 L353.198,134.035 L355.335,132.929 L357.471,129.763 L357.644,128.923 L358.785,128.354 L358.999,126.837 L360.103,126.343 L361.066,121.973 L360.842,121.275 L359.364,120.586 L358.789,118.613 L359.017,118.176 L359.953,117.569 L362.199,117.556 L364.527,116.77" fill-rule="evenodd"/>
  </g>
  <g transform="matrix(1,0,0,1,0,0)" stroke="none" font-weight="400" fill="#787878" font-family=".SF NS Text" font-size="54.1667" font-style="normal" fill-opacity="1">
   <path vector-effect="none" d="M364.527,116.77 L366.275,116.921 L367.212,117.528 L368.349,119.86 L371.836,122.245 L372.512,121.963 L372.924,120.103 L374.691,118.721 L378.018,119.457 L378.325,120.616 L375.051,123.967 L373.899,125.702 L373.979,127.024 L373.288,127.766 L374.953,128.494 L374.819,129.209 L375.603,129.609 L375.617,130.537 L374.214,131.047 L372.768,132.494 L371.113,133.41 L372.447,136.022 L371.499,137.162 L370.089,137.888 L369.939,139.433 L371.097,140.685 L370.979,142.556 L373.164,145.591 L374.403,146.068 L374.643,147.195 L376.749,147.461 L378.297,148.459 L377.874,150.345 L380.376,151.342 L380.504,151.862 L379.598,153.082 L381.184,154.665 L383.081,155.055 L385.198,154.871 L386.627,153.564 L389.14,152.708 L390.742,154.551 L391.229,155.679 L391.101,156.915 L392.29,158.005 L392.466,158.747 L395.547,160.037 L395.773,161.073 L394.428,162.846 L394.582,164.119 L396.051,164.856 L396.083,165.962 L396.849,166.949 L396.833,168.077 L399.865,172.387 L400.198,173.78 L399.962,174.673 L400.722,176.566 L401.863,177.51 L404.151,177.536 L406.577,180.181 L409.102,181.006 L409.53,182.036 L409.305,182.67 L412.154,184.974 L414.624,185.12 L416.789,184.436 L417.701,184.605 L418.718,185.883 L421.713,187.183 L422.452,187.995 L426.41,187.263 L428.496,187.66 L430.384,185.574 L432.756,185.35 L435.438,187.475 L438.734,189.224 L440.981,189.523 L441.564,191.609 L442.627,192.46 L443.886,192.28 L445.132,192.801 L449.236,191.702 L449.498,190.566 L450.626,189.152 L454.016,190.254 L455.755,190.521 L457.628,190.15 L458.71,190.862 L459.572,190.912 L459.473,193.622 L459.076,194.229 L459.393,196.791 L462.545,197.611 L462.849,198.631 L462.142,201.441 L463.359,201.87 L462.651,203.298 L463.421,206.686 L462.422,208.252 L461.547,208.605 L465.029,208.854 L466.334,207.904 L467.22,205.658 L469.832,204.043 L470.983,205.873 L471.139,207.308 L472.647,209.307 L475.496,210.468 L478.103,210.692 L481.987,213.384 L484.509,213.689 L482.808,216.794 L484.378,218.135 L484.577,218.922 L485.346,219.263 L486.154,218.995 L486.756,219.537 L487.647,220.597 L487.427,221.335 L489.616,221.292 L490.897,219.783 L492.658,218.694 L495.836,221.123 L496.95,223.087 L499.894,225.079 L504.914,224.429 L505.576,224.717 L507.208,226.907 L506.309,228.912 L506.784,229.963 L507.55,230.264 L507.94,231.281 L509.17,231.706 L509.368,233.28 L509.919,233.864 L513.458,234.153 L515.645,233.642 L519.141,231.989 L519.905,228.56 L520.671,227.952 L520.866,226.324 L519.83,225.354 L519.389,223.768 L521.324,221.806 L522.987,221.39 L524.645,219.366 L525.146,217.73 L527.617,216.199 L529.826,215.968 L533.793,218.242 L538.126,217.13 L539.008,218.36 L538.958,219.688 L540.078,221.247 L542.44,222.354 L544.575,222.78 L546.263,221.898 L547.689,219.578 L549.115,218.773 L550.279,217.301 L552.019,216.996 L552.282,215.944 L553.193,215.546 L556.216,217.71 L558.463,217.217 L563.266,215.232 L565.121,213.681 L566.248,211.592 L569.813,208.414 L573.134,207.959 L578.3,204.446 L580.07,200.315 L590.883,199.326 L591.023,198.593 L593.617,196.994 L594.292,196.032 L596.568,196.179 L599.061,195.497 L599.161,193.79 L600.445,193.124 L601.302,191.615 L600.932,189.399 L601.409,188.1 L603.285,188.321 L604.722,189.546 L605.463,189.686 L605.339,190.549 L609.547,189.735 L609.837,191.474 L611.303,193.426 L612.841,193.187 L614.251,191.893 L614.876,192.674 L616.912,193.335 L617.901,195.23 L619.361,196.381 L619.637,197.177 L622.966,198.608 L623.776,199.419 L623.341,200.056 L623.649,200.698 L628.929,204.695 L629.397,205.485 L631.414,206.53 L632.696,208.482 L635.592,209.916 L635.834,210.423 L635.497,211.807 L634.386,212.964 L633.2,213.492 L630.883,213.535 L629.849,214.221 L629.397,215.359 L628.414,216.304 L627.621,220.879 L630.558,223.488 L631.95,223.318 L634.196,225.078 L636.953,225.46 L639.631,228.688 L641.32,228.677 L641.972,227.57 L643.114,227.124 L645.128,227.947 L648.099,230.045 L651.135,231.146 L651.672,232.351 L653.63,233.262 L654.523,235.612 L654.231,237.197 L656.102,238.692 L655.081,241.613 L657.167,242.885 L657.746,244.037 L660.325,245.836 L663.518,245.278 L666.193,245.788 L666.762,247.703 L668.284,248.794 L668.454,250.06 L667.751,251.544 L668.043,252.584 L667.077,253.674 L667.459,255.136 L666.54,255.255 L666.318,255.699 L667.654,256.441 L668.451,258.066 L666.777,259.068 L665.874,260.493 L665.904,261.846 L665.088,262.724 L665.285,265.174 L664.159,265.968 L664.247,267.445 L666.627,268.773 L667.562,269.77 L668.471,269.966 L670.098,271.866 L670.58,273.992 L671.617,275.167 L673.11,275.902 L676.774,276.217 L678.117,276.879 L678.602,277.524 L677.988,279.14 L681.824,280.493 L684.377,284.111 L686.708,285.007 L689.071,284.918 L689.406,285.811 L690.158,286.327 L693.661,285.366 L692.694,284.315 L694.876,282.554 L695.007,281.761 L697.405,280.847 L698.407,279.604 L701.041,282.415 L702.205,284.597 L704.017,284.538 L705.709,283.389 L707.616,284.653 L709.166,285.1 L710.443,283.968 L712.273,283.497 L712.29,281.705 L711.428,279.664 L710.586,278.882 L715.382,274.919 L716.823,275.519 L718.094,275.468 L719.887,277.705 L722.255,277.088 L725.219,277.139 L725.274,272.528 L723.92,269.804 L725.557,269.849 L728.005,269.22 L731.514,270.179 L732.637,270.031 L738.385,272.869 L739.656,272.903 L740.262,273.714 L744.37,274.361 L747.812,272.487 L751.418,272.462 L753.302,267.344 L759.302,265.15 L762.934,265.151 L766.171,264.126 L769.065,262.522 L769.824,260.676 L769.704,259.321 L768.783,257.51 L766.928,255.852 L773.938,252.886 L774.637,251.694 L780.885,249.607 L783.311,250.713 L789.163,249.806 L788.623,251.69 L789.182,256.969 L790.168,259.915 L790.931,260.807 L788.193,266.08 L787.147,269.808 L786.999,273.415 L789.056,282.437 L790.375,284.715 L793.81,286.416 L780.96,294.448 L778.593,296.628 L774.922,297.868 L769.231,298.584 L769.887,311.441 L768.784,313.254 L764.373,317.121 L771.74,325.172 L772.849,325.659 L785.109,315.879 L792.058,311.356 L795.24,311.656 L796.484,312.232 L797.106,314.42 L799.171,316.059 L800.717,316.332 L803.563,316.058 L805.172,316.528 L806.954,317.841 L807.55,319.124 L808.716,319.826 L809.695,321.897 L808.901,324.044 L806.651,326.981 L806.142,329.244 L806.85,330.891 L813.207,333.132 L814.306,333.888 L817.493,339.037 L824.011,338.942 L826.384,339.614 L828.312,341 L827.749,342.601 L822.672,347.197 L821.69,351.975 L821.084,353.045 L818.738,355.019 L814.755,357.119 L813.707,358.654 L812.804,362.651 L813.85,367.071 L814.455,374.734 L814.231,376.83 L813.737,378.493 L812.166,380.792 L807.486,385.458 L807.036,386.833 L813.67,386.973 L818.657,387.731 L823.633,387.042 L826.926,386.057 L833.723,385.916 L842.905,390.892 L847.953,394.267 L848.533,394.798 L848.54,396.184 L847.472,398.191 L847.299,399.874 L848.281,402.312 L848.147,403.927 L846.824,406.835 L843.767,408.549 L842.972,410.264 L847.02,413.753 L848.257,416.383 L849.084,420.019 L851.442,421.232 L857.409,421.912 L860.335,422.667 L862.537,423.996 L863.006,426.242 L864.858,428.622 L865.684,427.966 L868.291,428.346 L867.504,429.921 L869.686,432.355 L873.784,433.585 L873.964,435.902 L875.662,439.072 L878.151,440.745 L877.803,443.191 L878.751,444.413 L878.881,446.005 L879.943,447.24 L881.267,447.834 L881.164,449.778 L882.371,451.013 L884.799,450.924 L885.645,450.393 L887.003,450.852 L889.851,450.584 L890.597,451.36 L890.482,451.857 L893.896,453.057 L892.426,454.657 L892.567,456.263 L891.921,458.182 L893.971,460.544 L890.845,461.487 L890.129,462.101 L889.799,463.449 L889.746,465.187 L891.128,466.62 L890.716,468.222 L891.283,470.239 L890.4,471.315 L888.606,472.003 L886.317,474.372 L885.421,476.283 L883.38,477.59 L885,479.959 L883.221,481.88 L884.35,483.984 L885.567,484.942 L884.309,486.299 L884.064,487.572 L883.339,488.338 L883.629,489.318 L884.368,490.012 L883.808,490.834 L884.291,494.05 L883.752,494.354 L883.584,495.211 L881.519,495.533 L881.391,496.23 L879.999,496.5 L877.117,498.274 L873.021,502.613 L872.928,503.237 L873.67,504.576 L873.287,506.263 L874.268,508.496 L873.657,509.601 L873.71,510.953 L874.348,512.001 L877.406,513.84 L877.528,514.877 L878.248,514.89 L879.177,515.66 L879.712,520.269 L880.438,522.001 L880.193,522.454 L881.477,524.332 L881.423,524.916 L883.787,526.469 L884.298,529.822 L886.678,532.458 L886.458,534.307 L885.447,535.1 L885.726,536.155 L887.2,537.283 L889.342,537.956 L895.645,537.166 L898.531,535.917 L899.255,537.108 L898.536,539.061 L898.973,541.28 L898.602,542.29 L899.384,545.045 L901.536,547.602 L904.034,547.843 L906.204,549.964 L906.891,551.244 L909.791,551.703 L911.421,555.677 L910.024,557.687 L909.895,558.783 L908.535,558.61 L907.17,559.416 L905.137,561.932 L904.478,563.465 L903.603,563.961 L900.727,563.825 L900.437,565.947 L899.707,566.933 L893.55,569.595 L892.397,572.802 L890.811,572.739 L888.627,571.378 L887.542,573.185 L886.379,573.634 L884.056,573.482 L882.801,574.581 L881.593,574.828 L880.4,575.986 L879.475,579.869 L878.274,580.986 L877.747,582.506 L878.692,584.966 L878.618,586.168 L879.588,587.132 L879.002,588.735 L879.433,589.059 L882.058,589.092 L883.11,589.609 L885.232,588.616 L886.336,589.179 L887.932,589.099 L889.108,590.245 L889.426,591.205 L890.738,591.869 L892.13,594.87 L891.967,595.805 L893.242,597.369 L895.636,598.045 L898.325,599.495 L897.851,601.329 L895.978,601.918 L895.339,603.072 L894.278,603.564 L893.405,605.446 L891.722,606.908 L890.617,609.57 L888.474,610.866 L888.67,611.866 L886.348,614.943 L886.678,616.453 L887.534,617.241 L887.543,618.27 L885.636,619.346 L885.521,620.07 L887.253,622.029 L888.738,622.592 L890.668,624.287 L890.491,625.177 L889.487,625.83 L889.348,626.434 L891.953,628.891 L890.39,629.982 L890.752,631.168 L892.838,632.217 L893.252,633.034 L893.11,634.332 L896.163,635.743 L896.679,636.472 L901.592,635.657 L902.648,636.188 L903.354,637.726 L906.178,638.666 L909.146,639.076 L910.398,638.551 L912.998,638.977 L913.753,638.769 L913.995,637.566 L912.75,636.437 L912.671,634.755 L913.293,634.068 L915.357,633.37 L917.075,635.525 L919.15,636.836 L920.235,640.905 L920.755,641.207 L920.718,642.646 L921.727,644.233 L921.674,645.824 L923.726,647.564 L927.17,649.265 L929.835,651.348 L931.414,655.889 L931.42,657.547 L932.493,658.136 L932.483,658.942 L933.836,660.012 L938.254,659.819 L938.509,660.742 L937.218,662.559 L938.07,663.542 L938.326,664.682 L941.073,666.85 L940.865,667.855 L944.892,669.633 L946.634,669.871 L947.059,670.634 L947.84,670.64 L948.42,671.252 L949.642,674.598 L949.034,676.475 L949.729,678.086 L948.865,679.384 L949.712,680.777 L952.064,681.673 L953.147,685.173 L953.981,685.976 L954.545,688.267 L952.746,687.602 L951.786,688.26 L949.52,688.64 L944.981,688.757 L942.341,690.595 L939.054,691.446 L937.56,690.757 L934.129,690.727 L932.451,688.397 L931.024,688.054 L928.937,688.875 L928.825,690.354 L927.838,691.212 L925.665,690.964 L923.057,691.735 L921.67,691.249 L918.33,688.551 L916.295,685.583 L913.173,685.03 L911.706,684.223 L909.965,682.999 L909.078,680.701 L907.233,680.101 L906.203,676.901 L905.037,675.537 L905.55,674.002 L903.735,672.865 L902.397,672.57 L901.78,671.775 L901.712,669.541 L902.732,667.602 L903.553,667.052 L903.293,665.786 L901.564,664.743 L898.058,665.241 L893.376,667.243 L889.654,668.078 L887.32,667.525 L879.858,667.042 L877.182,667.544 L874.884,667.028 L873.197,667.214 L870.97,666.371 L868.778,664.882 L866.663,665.284 L864.821,665.117 L863.608,666.749 L862.11,667.155 L861.121,668.269 L861.654,666.662 L860.731,665.998 L860.938,665.425 L858.743,663.709 L858.802,661.394 L858.202,660.368 L855.408,660.337 L852.591,659.53 L851.687,657.879 L848.165,656.497 L845.922,656.807 L844.817,657.598 L842.882,657.187 L839.885,657.562 L838.984,658.637 L837.178,659.189 L836.49,660.698 L832.799,664.311 L826.116,665.228 L821.069,665.386 L814.729,664.57 L814.867,663.964 L814.116,663.087 L813.676,660.618 L811.828,659.376 L808.869,654.696 L807.796,654.23 L807.264,653.366 L805.741,653.467 L804.037,652.48 L802.171,649.879 L801.55,649.756 L800.726,650.244 L799.329,652.505 L797.952,652.559 L796.212,653.743 L794.282,653.055 L793.185,651.537 L794.339,649.322 L791.823,646.658 L791.412,644.237 L789.64,644.531 L788.783,645.27 L788.049,642.329 L784.528,641.302 L779.644,642.828 L777.951,642.833 L776.433,642.277 L774.292,643.625 L770.609,643.276 L770.275,642.582 L768.779,642.152 L767.949,644.177 L768.486,644.563 L768.589,645.36 L767.493,648.342 L766.487,648.575 L764.856,648.013 L763.647,648.328 L761.247,646.66 L760.472,647.655 L759.425,647.91 L758.752,649.407 L757.577,650.358 L757.469,651.353 L755.86,652.257 L755.285,653.705 L753.931,654.035 L752.365,653.627 L752.684,655.42 L751.685,656.192 L750.678,656.487 L749.059,655.591 L746.222,654.967 L744.596,655.251 L743.513,656.379 L743.224,658.43 L742.497,659.078 L741.622,658.93 L739.046,659.707 L738.028,659.041 L737.102,657.696 L735.731,657.086 L733.795,657.46 L732.211,657.144 L730.44,657.726 L728.596,657.505 L728.029,659.255 L726.835,659.438 L725.453,660.642 L725.255,661.468 L721.449,662.07 L720.176,664.082 L718.812,664.248 L713.525,668.181 L711.799,668.491 L709.296,667.685 L703.498,667.705 L699.571,669.642 L697.29,670.012 L696.865,671.498 L694.946,672.354 L693.848,673.845 L694.016,677.343 L691.427,677.187 L689.786,675.529 L688.235,674.721 L686.156,674.418 L683.526,674.925 L681.87,675.749 L680.77,674.374 L678.822,673.3 L677.238,671.38 L674.997,672.031 L673.589,673.354 L673.023,674.591 L670.806,674.603 L668.676,676.351 L665.915,677.486 L665.044,677.474 L663.524,676.566 L661.41,676.526 L659.664,677.115 L658.978,677.539 L659.434,679.676 L657.721,681.87 L656.398,682.131 L656.89,684.993 L656.422,685.721 L654.632,686.196 L654.129,686.974 L653.467,686.912 L653.578,686.566 L652.189,686.928 L649.682,688.648 L648.79,690.489 L649.661,692.52 L646.332,698.004 L642.824,698.195 L640.393,702.024 L639.178,702.775 L638.562,702.844 L638.804,701.918 L635.715,701.802 L637.163,702.444 L636.961,704.229 L638.447,705.1 L638.38,706.158 L640.631,709.88 L638.782,709.741 L637.341,708.741 L635.741,709.115 L634.556,710.41 L634.691,713.22 L635.338,714.611 L639.349,714.928 L638.546,716.393 L641.162,719.136 L639.127,720.619 L639.383,721.507 L639.098,722.735 L638.664,723.781 L637.03,724.782 L636.519,727.711 L639.13,728.956 L641.261,728.295 L642.726,729.469 L642.7,730.004 L641.937,730.304 L640.312,729.972 L639.177,730.716 L636.413,729.828 L631.005,725.856 L625.339,724.366 L624.483,724.408 L623.796,725.488 L620.47,726.994 L619.115,729.922 L619.58,732.58 L620.456,734.165 L620.109,735.16 L623.092,736.054 L622.787,739.32 L623.609,738.921 L624.044,739.547 L625.182,739.205 L628.073,739.705 L628.626,739.594 L629.105,738.766 L630.515,738.374 L634.003,737.879 L635.761,737.964 L636.232,738.338 L635.603,739.732 L636.916,741.412 L636.76,742.993 L635.041,745.039 L633.059,745.937 L632.387,752.668 L633.648,753.482 L634.204,756.616 L629.028,755.567 L627.161,754.711 L626.669,753.97 L626.338,750.707 L625.612,750.14 L622.896,749.378 L621.569,750.337 L621.003,751.435 L621.295,754.814 L620.494,756.015 L618.279,757.174 L617.788,758.379 L621.424,761.431 L622.383,763.844 L618.947,765.024 L618.209,767.284 L615.378,769.59 L614.838,770.498 L614.554,772.949 L611.756,777.229 L610.095,778.578 L607.074,780.059 L608.453,783.433 L607.444,783.887 L606.716,785.09 L607.413,786.026 L608.409,786.833 L611.799,786.333 L613.618,788.317 L614.905,788 L615.999,789.33 L615.81,790.977 L618.499,792.156 L618.691,792.888 L618.213,793.715 L620.929,795.564 L619.486,797.377 L620.066,798.3 L618.564,798.889 L618.956,800.67 L618.515,801.923 L618.69,802.772 L621.818,803.857 L621.977,804.573 L623.164,805.175 L625.373,805.635 L625.924,806.788 L627.684,808.065 L628.552,808.175 L629.897,807.464 L630.702,808.406 L630.693,808.873 L629.195,809.392 L628.973,810.235 L627.696,811.606 L629.162,812.928 L629.067,814.26 L630.195,814.978 L628.979,816.061 L629.001,817.528 L630.708,818.462 L631.695,820.397 L629.156,820.221 L627.434,820.613 L625,819.671 L624.422,820.166 L624.989,821.227 L624.762,822.726 L625.345,824.416 L625.15,824.855 L623.202,825.116 L620.88,822.782 L619.885,823.557 L618.341,822.994 L617.584,823.633 L618.527,824.706 L617.583,825.053 L617.557,825.866 L618.949,826.306 L621.147,827.863 L622.218,830.016 L623.943,831.711 L624.045,833.257 L625.777,835.255 L628.319,834.724 L631.123,836.491 L631.94,836.261 L632.597,835.303 L634.388,836.146 L636.417,834.659 L637.445,834.407 L638.708,836.336 L638.001,838.188 L640.059,841.938 L639.831,843.265 L639.416,843.747 L638.075,844.001 L637.321,848.97 L634.898,849.38 L632.655,850.371 L628.185,850.5 L626.214,852.169 L623.203,853.029 L616.559,857.04 L614.513,857.806 L611.654,857.841 L607.985,861.505 L605.52,862.406 L603.472,864.493 L598.286,865.512 L596.213,864.754 L593.389,864.485 L592.491,865.258 L592.399,866.544 L591.444,868.612 L590.493,868.813 L589.295,868.442 L587.942,868.959 L586.354,868.041 L585.483,868.05 L578.414,870.013 L577.272,871.046 L575.768,871.532 L572.596,873.715 L572.075,874.496 L572.82,877.488 L575.372,881.195 L575.618,882.736 L574.646,882.819 L574.397,883.23 L568.514,880.46 L566.283,878.611 L566.094,878.178 L566.595,877.557 L564.423,875.635 L561.429,871.829 L560.466,868.993 L560.632,867.538 L559.001,865.703 L557.749,865.753 L554.557,869.961 L554.264,874.859 L553.485,876.049 L551.391,876.015 L549.997,874.465 L546.534,875.928 L544.975,877.224 L542.951,876.836 L542.186,877.229 L540.053,877.272 L537.712,878.518 L535.922,876.439 L531.903,876.426 L532.143,874.703 L533.836,874.46 L534.711,873.084 L537.613,872.657 L537.967,871.556 L539.859,869.642 L539.93,868.769 L541.894,868.541 L541.862,866.145 L543.093,864.562 L541.237,862.473 L540.489,862.36 L539.319,865.013 L538.814,864.954 L537.725,865.918 L535.285,869.012 L531.665,870.99 L530.49,870.923 L529.892,872.774 L528.438,873.516 L528.454,874.951 L527.458,874.991 L525.64,872.98 L527.111,871.759 L527.023,870.935 L527.575,870.866 L528.139,870.061 L526.902,869.502 L526.048,870.039 L525.733,869.373 L523.762,869.299 L523.324,868.501 L523.535,866.785 L522.777,866.631 L520.226,866.921 L517.524,866.574 L516.686,868.6 L516.551,866.308 L514.318,863.092 L514,861.786 L512.218,862.541 L510.976,861.997 L508.596,862.584 L507.452,863.079 L506.843,864.131 L505.129,865.091 L505.034,864.278 L504.182,864.451 L501.884,862.949 L501.025,863.039 L501.12,862.106 L499.286,861.195 L499.24,860.14 L498.394,859.568 L497.057,860.547 L495.316,859.91 L494.357,860.379 L493.415,860.193 L493.635,858.324 L493.315,857.373 L492.129,855.967 L491.302,855.64 L489.884,855.576 L488.467,856.606 L486.588,856.383 L485.676,857.133 L485.278,856.802 L484.524,857.158 L482.767,856.387 L480.802,856.05 L480.457,856.378 L480.004,855.874 L478.38,856.744 L476.547,859.812 L475.812,860.048 L475.025,857.48 L474.996,854.875 L475.47,853.596 L475.076,853.214 L474.77,849.121 L471.804,844.648 L471.075,843.855 L469.053,843.558 L467.295,842.389 L465.611,842.07 L465.349,841.336 L464.692,841.063 L460.036,840.82 L458.236,840.266 L455.734,838.569 L453.732,835.028 L452.404,833.807 L456.487,831.81 L456.229,831.18 L456.853,830.375 L456.877,829.527 L458.973,829.847 L460.205,828.181 L461.429,827.998 L462.309,827.305 L461.869,826.72 L463.461,826.014 L463.126,825.297 L465.583,823.698 L464.821,822.718 L465.181,822.89 L465.625,821.552 L465.124,820.453 L465.656,818.923 L465.327,816.671 L465.743,815.299 L466.489,815.06 L466.806,814.19 L464.299,812.744 L463.575,811.597 L463.581,810.357 L463.221,810.491 L463.089,809.334 L463.604,808.974 L463.986,807.489 L464.595,807.172 L464.652,805.468 L463.896,803.753 L462.539,802.68 L462.859,802.214 L463.886,802.15 L463.296,801.736 L464.218,801.695 L462.626,799.825 L460.926,799.38 L459.074,797.551 L457.561,797.552 L456.341,795.763 L454.008,794.548 L453.776,793.126 L452.802,791.608 L451.706,792.415 L450.019,792.611 L450.503,791.357 L450.066,789.939 L446.628,788.359 L445.216,787.102 L440.823,786.606 L438.249,787.399 L436.832,786.174 L434.994,786.239 L432.849,784.293 L433.157,785.257 L432.23,784.632 L431.632,784.643 L431.35,785.099 L432.444,787.301 L429.311,787.568 L429.204,787.996 L427.63,788.455 L425.174,786.761 L425.237,785.504 L426.101,785.349 L426.077,784.921 L425.996,784.49 L425.321,784.471 L425.213,783.586 L424.047,784.055 L424.744,782.925 L424.661,780.036 L423.616,779.416 L422.479,779.638 L421.874,779.091 L420.003,778.777 L423.5,777.34 L424.654,776.105 L424.527,774.449 L423.167,773.802 L423.732,772.701 L422.894,770.739 L422.968,768.166 L422.482,768.028 L420.371,769.1 L419.316,767.644 L414.713,766.988 L412.76,765.85 L412.228,764.619 L411.281,764.027 L410.323,763.957 L409.45,765.321 L408.699,764.123 L407.213,765.66 L406.544,767.137 L405.313,765.884 L404.433,766.146 L406.114,764.281 L404.795,760.761 L406.726,757.336 L406.325,756.619 L404.849,756.128 L404.718,755.037 L402.937,752.432 L403.299,751.779 L402.772,750.933 L401.897,750.968 L400.639,751.771 L399.65,751.119 L399.033,749.362 L397.717,748.567 L397.022,746.404 L397.522,745.917 L397.573,743.959 L395.619,744.963 L395.375,745.719 L392.84,746.108 L391.737,746.715 L391.832,747.633 L389.708,748.016 L389.167,748.699 L386.678,749.248 L387.324,750.622 L384.982,751.319 L384.346,750.544 L383.23,750.122 L382.539,748.511 L381.383,748.359 L380.059,746.839 L378.329,747.023 L377.384,746.384 L375.52,742.967 L374.439,742.262 L373.501,740.668 L374.258,739.738 L373.396,738.665 L373.75,738.514 L373.153,737.149 L372.423,736.565 L369.425,737.773 L365.968,740.107 L362.953,740.612 L360.091,742.574 L360.242,742.752 L360.27,743.037 L360.088,742.626 L358.854,742.295 L359.023,741.661 L357.646,739.764 L357.422,738.624 L355.823,738.132 L355.693,737.235 L354.996,736.814 L353.1,736.872 L352.316,735.645 L350.475,734.727 L350.42,734.04 L349.738,733.561 L349.438,731.468 L349.736,730.971 L348.821,731.047 L345.771,727.912 L344.327,728.242 L342.869,726.889 L342.396,725.603 L339.77,725.297 L335.478,726.098 L332.711,725.853 L332.957,725.469 L332.624,724.426 L331.412,723.731 L330.723,722.679 L329.852,722.268 L329.52,722.641 L328.945,722.495 L326.945,720.824 L323.341,720.139 L322.217,718.638 L319.798,717.868 L320.357,714.654 L320.332,711.672 L320.957,711.29 L317.745,709.606 L317.474,707.819 L316.137,705.339 L319.24,702.904 L319.022,702.43 L319.446,702.24 L317.992,698.859 L318.02,696.728 L319.379,696.357 L320.049,693.227 L321.783,691.499 L321.706,690.926 L323.281,689.934 L323.492,688.775 L322.821,686.573 L321.998,686.79 L321.4,686.438 L319.891,686.9 L319.665,686.501 L317.736,686.626 L316.777,685.005 L313.754,684.598 L313.655,683.318 L314.331,682.773 L314.366,681.917 L316.048,680.118 L315.599,679.449 L316.517,678.093 L315.863,677.768 L315.155,678.014 L314.963,677.181 L313.695,676.78 L314.625,674.905 L314.047,673.622 L315.625,671.417 L315.225,671.116 L315.256,670.192 L313.679,670.763 L313.214,670.029 L316.204,669.009 L317.945,666.196 L325.304,661.881 L324.478,660.519 L322.413,659.554 L323.029,659.595 L323.114,658.769 L324.34,658.256 L322.774,658.139 L322.373,657.729 L321.673,657.966 L320.606,657.239 L316.985,659.546 L314.879,659.85 L314.174,660.47 L313.528,660.341 L313.451,660.962 L311.406,661.196 L311.27,660.5 L310.907,660.524 L311.182,659.638 L310.279,659.198 L310.183,658.226 L311.059,658.178 L311.293,657.401 L311.95,657.186 L311.809,655.164 L312.786,653.754 L315.823,652.706 L316.452,651.559 L316.332,651.041 L311.244,646.986 L311.175,646.094 L309.948,644.54 L308.82,644.019 L307.661,645.362 L306.594,645.595 L305.57,646.677 L305.746,647.045 L305.101,647.944 L304.098,647.748 L302.567,650.246 L301.624,650.343 L300.656,649.618 L299.689,650.248 L298.374,649.341 L298.199,648.613 L299.49,646.705 L299.226,646.382 L299.953,645.691 L299.589,644.52 L300.245,643.328 L298.015,642.347 L297.527,644.337 L296.633,645.511 L297.231,646.653 L297.062,648.041 L294.953,649.282 L292.923,648.815 L292.959,647.714 L294.281,646.814 L294.199,646.162 L294.722,645.377 L294.304,645.436 L294.496,645.056 L294.024,644.745 L293.891,643.748 L292.267,642.942 L287.627,646.488 L286.899,645.68 L285.883,645.528 L285.314,642.579 L285.862,641.415 L285.351,640.697 L284.353,640.754 L284.483,639.319 L283.634,638.693 L282.904,636.627 L281.146,635.489 L279.88,637.165 L276.849,639.425 L275.858,640.722 L275.756,641.483 L271.354,643.75 L270.535,643.266 L270.877,640.98 L275.557,638.924 L276.675,638.162 L276.957,637.298 L274.512,634.553 L272.337,633.124 L270.683,632.58 L269.504,630.731 L268.42,630.533 L266.659,627.139 L267.052,625.85 L266.362,624.626 L264.894,624.354 L262.065,620.133 L261.086,616.955 L260.257,616.786 L258.015,613.845 L258.092,613.45 L258.485,613.604 L259.535,612.82 L260.978,613.122 L260.85,611.89 L259.912,611.195 L259.135,609.097 L256.774,608.634 L257.295,606.646 L255.483,604.908 L255.502,604.248 L254.439,603.493 L254.805,602.8 L253.357,601.211 L253.038,601.152 L252.886,602.188 L252.282,602.419 L252.051,603.407 L252.731,604.443 L252.147,606.961 L252.647,607.659 L252.596,608.66 L251.396,610.012 L249.136,610.206 L248.456,610.947 L246.257,611.65 L245.869,611.51 L245.743,610.424 L244.898,610.433 L244.737,611.523 L244.592,610.821 L241.624,610.732 L241.506,614.558 L241.818,615.345 L241.231,616.764 L244.453,616.88 L244.202,620.774 L244.704,620.836 L244.639,623.101 L245.621,623.188 L245.877,624.6 L247.471,624.669 L247.842,625.717 L247.165,625.692 L247.026,625.142 L245.913,625.212 L245.811,626.13 L245.374,626.167 L245.047,626.886 L243.389,626.967 L242.82,624.588 L242.419,624.531 L241.401,624.807 L241.699,625.28 L235.363,626.331 L236.805,629.684 L239.366,631.919 L236.333,632.494 L234.531,633.982 L231.491,634.926 L230.55,635.871 L229.804,635.664 L226.889,637.515 L225.556,636.897 L225.08,634.192 L224.688,634.842 L221.843,634.844 L220.054,635.583 L217.239,635.419 L210.437,637.832 L204.318,637.674 L203.07,637.115 L202.543,636.167 L201.345,635.931 L201.759,628.711 L201.079,626.895 L195.81,626.059 L194.305,624.539 L193.971,623.635 L193.234,623.491 L193.099,622.253 L192.577,621.968 L193.039,621.444 L192.688,620.497 L192.81,616.49 L196.319,614.139 L198.351,612.047 L198.675,611.327 L197.768,609.521 L198.368,608.478 L197.731,607.726 L196.111,607.134 L196.754,605.401 L195.196,602.933 L194.091,602.138 L192.278,602.028 L190.917,599.933 L190.474,598.083 L188.915,597.232 L189.54,595.38 L189.326,594.699 L188.358,594.133 L188.266,592.136 L187.752,591.989 L187.632,591.335 L185.859,590.462 L185.644,589.771 L184.633,588.948 L185.542,587.657 L185.284,586.129 L185.645,585.08 L183.583,584.456 L182.673,582.586 L181.841,581.813 L180.496,578.367 L180.64,577.606 L179.52,575.637 L179.701,574.734 L177.96,573.342 L177.064,571.757 L176.066,571.527 L175.18,570.581 L173.988,568.325 L172.935,567.549 L172.652,565.9 L171.066,564.88 L170.618,563.361 L169.253,562.82 L168.379,561.675 L168.787,560.842 L167.674,559.564 L168.557,559.422 L168.912,558.795 L168.162,556.311 L166.551,557.107 L165.752,556.926 L164.305,555.013 L163.327,555.169 L162.937,554.197 L161.04,552.656 L160.834,551.625 L159.625,551.072 L158.194,549.249 L159.074,547.001 L158.037,545.743 L158.381,544.792 L155.853,543.608 L155.062,541.332 L154.745,537.823 L153.889,536.441 L153.502,534.495 L151.637,532.016 L151.25,530.799 L151.598,530.272 L150.531,529.136 L150.469,527.797 L148.962,526.167 L149.005,525.462 L148.006,524.25 L147.727,522.216 L146.671,521.892 L146.19,520.913 L146.145,520.142 L146.929,519.86 L146.856,519.535 L145.783,518.085 L146.112,517.549 L145.681,516.074 L144.482,513.472 L143.729,512.873 L143.68,511.516 L142.879,509.587 L140.988,509.012 L140.977,507.332 L136.615,500.457 L137.979,501.182 L139.493,501.097 L142.019,500.222 L142.315,499.659 L144.782,498.223 L145.326,498.217 L146.354,499.654 L146.976,499.57 L147.763,501.1 L148.664,500.834 L149.075,501.472 L149.887,501.304 L149.876,499.784 L146.777,497.01 L145.811,496.979 L145.726,495.658 L144.411,494.37 L143.139,489.957 L138.86,482.299 L137.163,480.316 L136.604,478.246 L130.988,469.675 L129.927,467.329 L129.617,464.589 L127.833,463.895 L124.849,461.483 L122.234,460.407 L122.327,459.591 L119.993,459.438 L115.394,458.284 L113.812,456.062 L106.003,455.59 L100.131,452.971 L94.8384,450.071 L90.8941,446.006 L87.1293,441.275 L84.9073,440.826 L79.8455,442.531 L76.4599,440.287 L75.6977,439.334 L75.7322,438.144 L73.16,435.87 L71.2129,435.015 L67.8217,434.458 L66.7083,433.444 L66.8535,432.54 L63.811,431.606 L63.7268,431.148 L62.4742,430.637 L61.4353,430.653 L59.5509,431.887 L56.7235,432.317 L55.331,431.497 L52.4182,431.999 L47.4415,433.796 L47.1737,432.928 L45.9908,433 L45.583,432.645 L45.9133,431.327 L45.4545,430.306 L46.5017,429.415 L46.0314,428.392 L47.2121,426.543 L49.882,426.523 L52.4048,425.268 L54.0455,423.032 L54.3653,420.202 L53.7726,419.847 L54.6909,419.064 L61.0836,416.401 L63.2989,414.885 L66.4383,409.056 L63.9948,408.094 L64.1327,407.501 L64.6934,407.248 L64.879,404.043 L62.6627,404.096 L62.7034,402.705 L62.0893,402.482 L62.8933,402.468 L62.8898,401.488 L63.801,400.812 L63.8038,400.317 L61.6746,399.226 L61.8235,398.846 L60.7922,398.9 L59.0197,399.98 L56.9566,400.035 L56.8729,401.498 L55.7225,401.655 L55.3051,400.923 L53.4342,400.655 L54.2232,397.01 L54.2281,396.121 L53.6811,395.59 L54.0385,393.951 L55.4573,393.853 L56.9144,393.135 L57.3104,392.249 L56.738,389.707 L54.0323,389.471 L52.0387,388.782 L51.7431,388.306 L55.7595,386.118 L57.2347,384.229 L61.6485,384.496 L64.3841,383.852 L77.158,378.741 L85.539,377.604 L92.3937,374.467 L93.0403,374.047 L95.3074,369.035 L97.405,367.409 L99.6473,364.899 L101.079,363.862 L104.284,363.368 L103.821,361.913 L102.336,360.51 L103.218,358.529 L107.425,358.003 L109.479,356.271 L111.988,356.588 L112.955,353.05 L112.846,351.793 L115.283,348.891 L117.301,347.931 L119.796,346.02 L123.44,345.871 L125.198,346.628 L128.243,346.115 L129.892,346.387 L131.142,345.621 L131.828,346.051 L132.632,345.756 L132.964,347.134 L134.632,346.313 L135.601,347.101 L136.567,345.519 L135.431,345.091 L131.971,341.612 L131.54,340.227 L132.339,337.078 L128.957,335.12 L127.883,333.065 L127.323,330.788 L124.441,329.591 L120.635,325.555 L120.158,325.922 L118.274,323.926 L115.562,322.494 L112.801,318.99 L113.289,318.689 L111.89,315.78 L110.546,314.829 L109.382,315.071 L109.099,314.659 L109.267,314.101 L111.24,314.191 L110.713,312.948 L111.228,311.923 L115.422,310.472 L115.799,309.944 L115.611,308.116 L120.502,304.774 L120.541,303.535 L119.131,302.105 L118.742,300.947 L121.753,299.376 L122.272,297.504 L121.783,295.191 L122.086,294.785 L123.445,294.029 L125.46,294.33 L127.388,293.503 L128.96,291.127 L129.291,289.304 L131.088,288.131 L131.706,285.734 L130.978,284.209 L131.874,283.404 L131.805,282.753 L133.288,281.783 L134.056,283.167 L134.965,283.097 L134.572,281.389 L135.853,280.23 L135.754,279.138 L136.578,278.76 L135.369,279.182 L134.001,279.944 L131.737,279.702 L131.788,277.216 L129.266,275.79 L125.949,278.367 L124.264,277.889 L124.015,277.414 L125.717,275.653 L125.958,274.857 L125.591,273.958 L126.972,272.842 L126.905,272.154 L127.489,271.535 L127.081,270.675 L127.051,268.251 L127.856,266.201 L127.155,265.334 L129.607,261.041 L129.633,260.204 L131.732,258.711 L132.742,257.05 L132.68,255.538 L133.805,252.818 L130.262,248.414 L127.508,246.27 L127.091,244.801 L126.35,244.64 L124.386,242.923 L123.877,237.483 L122.544,235.087 L118.724,234.516 L118.935,232.643 L115.335,228.812 L114.255,228.35 L113.736,228.682 L112.855,227.993 L112.194,226.479 L109.404,226.026 L108.533,224.728 L106.483,223.983 L105.946,222.362 L104.408,221.933 L104.085,219.483 L103.247,217.615 L100.588,215.532 L105.149,212.949 L106.16,211.548 L106.697,209.418 L108.206,208.235 L110.112,205.216 L111.508,203.913 L113.554,203.753 L115.182,204.69 L117.138,204.583 L118.858,205.26 L121.007,205.046 L122.017,206.243 L123.996,206.669 L125.212,207.573 L127.331,208.099 L129.222,208.016 L133.389,210.055 L134.035,211.753 L135.692,214.082 L141.217,218.799 L146.701,215.432 L148.35,215.054 L149.689,212.721 L153.825,211.513 L154.489,210.889 L155.388,211.03 L157.204,209.117 L162.022,207.259 L163.613,205.751 L163.32,204.278 L163.953,202.99 L165.148,201.923 L171.126,200.549 L173.019,197.633 L176.936,196.747 L176.739,195.062 L179.386,194.595 L179.915,194.109 L183.175,188.328 L182.521,187.177 L183.501,184.546 L183.379,183.41 L188.721,183.013 L191.148,182.425 L197.71,183.228 L199.723,182.498 L201.928,179.693 L203.186,179.426 L208.698,180.65 L211.442,180.462 L213.618,178.779 L219.355,179.35 L220.724,177.222 L222.925,175.82 L227.603,175.027 L228.151,174.038 L228.53,171.296 L232.099,169.771 L232.291,168.96 L232.007,166.802 L230.515,165.741 L230.298,164.427 L230.373,161.891 L231.838,158.601 L231.167,157.622 L234.999,154.973 L236.322,153.038 L238.506,152.228 L238.878,151.596 L241.925,150.989 L246.927,146.653 L251.489,144.114 L253.184,144.046 L255.369,140.886 L259.182,138.621 L261.045,136.42 L261.911,136.216 L262.659,135.445 L265.39,135.646 L267.036,134.954 L269.136,136.474 L271.116,136.922 L273.545,136.612 L276.081,137.156 L279.284,136.371 L280.98,137.079 L283.071,137.318 L288.705,134.424 L290.881,132.77 L294.534,132.747 L298.1,131.648 L300.821,132.106 L304.545,129.11 L307.712,129.995 L313.911,130.178 L314.684,130.827 L314.15,132.796 L314.646,134.38 L315.174,134.753 L316.51,134.202 L317.931,135.153 L318.135,138.671 L321.282,140.583 L323.426,140.946 L325.547,141.882 L327.748,141.211 L329.574,141.289 L332.035,139.302 L334.484,139.413 L337.676,138.677 L341.679,138.709 L343.633,137.585 L343.874,136.773 L346.925,136.519 L349.133,137.793 L352.33,137.383 L352.426,136.019 L353.253,134.946 L353.198,134.035 L355.335,132.929 L357.471,129.763 L357.644,128.923 L358.785,128.354 L358.999,126.837 L360.103,126.343 L361.066,121.973 L360.842,121.275 L359.364,120.586 L358.789,118.613 L359.017,118.176 L359.953,117.569 L362.199,117.556 L364.527,116.77" fill-rule="evenodd"/>
  </g>
  <g transform="matrix(11.811,0,0,11.811,0,0)" stroke="#000000" stroke-linecap="square" font-weight="400" fill="none" stroke-linejoin="bevel" stroke-opacity="1" stroke-width="1" font-family=".SF NS Text" font-size="54.1667" font-style="normal"/>
  <g transform="matrix(11.811,0,0,11.811,0,0)" stroke="#000000" stroke-linecap="square" font-weight="400" fill="none" stroke-linejoin="bevel" stroke-opacity="1" stroke-width="1" font-family=".SF NS Text" font-size="54.1667" font-style="normal"/>
  <g transform="matrix(11.811,0,0,11.811,0,0)" stroke="#000000" stroke-linecap="square" font-weight="400" fill="none" stroke-linejoin="bevel" stroke-opacity="1" stroke-width="1" font-family=".SF NS Text" font-size="54.1667" font-style="normal"/>
  <g transform="matrix(1,0,0,1,0,0)" stroke="#000000" stroke-linecap="square" font-weight="400" fill="none" stroke-linejoin="bevel" stroke-opacity="1" stroke-width="1" font-family=".SF NS Text" font-size="54.1667" font-style="normal"/>
  <g transform="matrix(11.811,0,0,11.811,0,0)" stroke="#000000" stroke-linecap="square" font-weight="400" fill="none" stroke-linejoin="bevel" stroke-opacity="1" stroke-width="1" font-family=".SF NS Text" font-size="54.1667" font-style="normal"/>
  <g transform="matrix(11.811,0,0,11.811,0,0)" stroke="#000000" stroke-linecap="square" font-weight="400" fill="none" stroke-linejoin="bevel" stroke-opacity="1" stroke-width="1" font-family=".SF NS Text" font-size="54.1667" font-style="normal"/>
  <g transform="matrix(1,0,0,1,0,0)" stroke="#000000" stroke-linecap="square" font-weight="400" fill="none" stroke-linejoin="bevel" stroke-opacity="1" stroke-width="1" font-family=".SF NS Text" font-size="54.1667" font-style="normal"/>
 </g>
</svg>
