<?xml version='1.0' encoding='UTF-8' standalone='no'?>
<svg height="84.6667mm" version="1.2" width="84.6667mm" xmlns="http://www.w3.org/2000/svg" baseProfile="tiny" viewBox="0 0 1000 1000" xmlns:xlink="http://www.w3.org/1999/xlink">
 <title>Qt SVG Document</title>
 <desc>Generated with Qt</desc>
 <defs/>
 <g stroke="black" stroke-linecap="square" fill="none" stroke-linejoin="bevel" stroke-width="1" fill-rule="evenodd">
  <g transform="matrix(1,0,0,1,0,0)" stroke="#000000" stroke-linecap="square" font-weight="400" fill="none" stroke-linejoin="bevel" stroke-opacity="1" stroke-width="1" font-family=".SF NS Text" font-size="54.1667" font-style="normal"/>
  <g transform="matrix(1,0,0,1,0,0)" stroke="#000000" stroke-linecap="square" font-weight="400" fill="none" stroke-linejoin="bevel" stroke-opacity="1" stroke-width="1" font-family=".SF NS Text" font-size="54.1667" font-style="normal"/>
  <g transform="matrix(11.811,0,0,11.811,0,0)" stroke="#000000" stroke-linecap="square" font-weight="400" fill="none" stroke-linejoin="bevel" stroke-opacity="1" stroke-width="1" font-family=".SF NS Text" font-size="54.1667" font-style="normal"/>
  <g transform="matrix(11.811,0,0,11.811,0,0)" stroke="#000000" stroke-linecap="square" font-weight="400" fill="none" stroke-linejoin="bevel" stroke-opacity="1" stroke-width="1" font-family=".SF NS Text" font-size="54.1667" font-style="normal"/>
  <g transform="matrix(11.811,0,0,11.811,0,0)" stroke="#000000" stroke-linecap="square" font-weight="400" fill="none" stroke-linejoin="bevel" stroke-opacity="1" stroke-width="1" font-family=".SF NS Text" font-size="54.1667" font-style="normal"/>
  <g transform="matrix(1,0,0,1,0,0)" stroke="#000000" stroke-linecap="square" font-weight="400" fill="none" stroke-linejoin="bevel" stroke-opacity="1" stroke-width="1" font-family=".SF NS Text" font-size="54.1667" font-style="normal"/>
  <g transform="matrix(1,0,0,1,0,0)" stroke="none" font-weight="400" fill="#ffffff" font-family=".SF NS Text" font-size="54.1667" font-style="normal" fill-opacity="1">
   <path vector-effect="none" d="M-2,-2 L1003,-2 L1003,1003 L-2,1003 L-2,-2" fill-rule="evenodd"/>
  </g>
  <g transform="matrix(1,0,0,1,0,0)" stroke="#000000" stroke-linecap="square" font-weight="400" fill="none" stroke-linejoin="bevel" stroke-opacity="1" stroke-width="1" font-family=".SF NS Text" font-size="54.1667" font-style="normal"/>
  <g transform="matrix(11.811,0,0,11.811,0,0)" stroke="#000000" stroke-linecap="square" font-weight="400" fill="none" stroke-linejoin="bevel" stroke-opacity="1" stroke-width="1" font-family=".SF NS Text" font-size="54.1667" font-style="normal"/>
  <g transform="matrix(11.811,0,0,11.811,0,0)" stroke="#000000" stroke-linecap="square" font-weight="400" fill="none" stroke-linejoin="bevel" stroke-opacity="1" stroke-width="1" font-family=".SF NS Text" font-size="54.1667" font-style="normal"/>
  <g transform="matrix(11.811,0,0,11.811,0,0)" stroke="#000000" stroke-linecap="square" font-weight="400" fill="none" stroke-linejoin="bevel" stroke-opacity="1" stroke-width="1" font-family=".SF NS Text" font-size="54.1667" font-style="normal"/>
  <g transform="matrix(11.811,0,0,11.811,0,0)" stroke="#000000" stroke-linecap="square" font-weight="400" fill="none" stroke-linejoin="bevel" stroke-opacity="1" stroke-width="1" font-family=".SF NS Text" font-size="54.1667" font-style="normal"/>
  <g transform="matrix(11.811,0,0,11.811,0,0)" stroke="#000000" stroke-linecap="square" font-weight="400" fill="none" stroke-linejoin="bevel" stroke-opacity="1" stroke-width="1" font-family=".SF NS Text" font-size="54.1667" font-style="normal"/>
  <g transform="matrix(11.811,0,0,11.811,0,0)" stroke="#000000" stroke-linecap="square" font-weight="400" fill="none" stroke-linejoin="bevel" stroke-opacity="1" stroke-width="1" font-family=".SF NS Text" font-size="54.1667" font-style="normal"/>
  <g transform="matrix(1,0,0,1,0,0)" stroke="none" font-weight="400" fill="#000000" font-family=".SF NS Text" font-size="54.1667" font-style="normal" fill-opacity="0">
   <rect y="0" height="1000" x="0" width="1000"/>
  </g>
  <g transform="matrix(1,0,0,1,0,0)" stroke="#e1e1e1" stroke-linecap="square" font-weight="400" fill="none" stroke-linejoin="round" stroke-opacity="1" stroke-width="59.0551" font-family=".SF NS Text" font-size="54.1667" font-style="normal">
   <path vector-effect="none" d="M657.397,334.131 L659.052,334.423 L661.033,336.311 L664.357,337.579 L665.187,337.477 L668.139,339.155 L669.116,339.234 L669.674,339.907 L672.071,339.842 L673.754,340.65 L673.897,341.24 L673.053,342.575 L673.535,343.143 L672.974,347.134 L671.769,349.799 L671.049,353.876 L671.549,354.955 L670.142,357.675 L671.252,357.464 L671.579,356.884 L672.41,357.371 L671.905,358.653 L672.849,359.382 L672.536,359.776 L673.749,360.003 L673.681,360.981 L674.932,362.518 L675.77,361.928 L676.666,361.98 L679.431,363.341 L680.792,363.652 L681.668,363.196 L682.681,364.079 L684.561,364.222 L684.042,365.982 L684.591,366.202 L683.059,366.603 L684.144,367.599 L683.06,367.789 L683.314,368.216 L684.403,368.267 L683.827,368.962 L684.471,370.824 L685.867,371.119 L687.686,370.644 L688.692,369.742 L689.567,366.7 L690.427,367.333 L694.444,366.451 L694.633,365.807 L695.721,365.999 L698.928,364.704 L698.939,364.296 L702.351,363.731 L704.119,362.1 L705.517,362.609 L706.309,361.643 L706.093,361.019 L707.186,358.736 L708.92,358.749 L710.277,359.57 L711.767,359.637 L712.407,358.729 L713.693,359.309 L714.553,358.763 L715.536,359.188 L716.128,358.535 L717.83,358.956 L719.832,358.416 L720.981,358.619 L721.57,359.442 L722.895,359.352 L725.162,360.488 L726.162,360.483 L728.148,359.864 L730.837,359.786 L734.221,357.593 L740.115,355.483 L743.619,355.04 L746.995,356.475 L747.453,357.108 L749.525,356.561 L750.864,356.999 L751.349,354.502 L752.363,353.714 L754.143,353.408 L756.833,350.141 L757.586,350.027 L762.055,346.837 L764.915,346.67 L764.909,347.429 L764.117,347.856 L764.089,349.093 L764.684,349.601 L765.369,348.805 L765.831,349.448 L767.512,349.376 L767.144,349.875 L767.459,350.204 L768.631,349.515 L769.128,349.972 L771.494,349.277 L773.346,349.726 L773.272,349.274 L773.853,349.019 L776.075,349.644 L777.615,349.07 L778.13,349.743 L780.062,350.135 L780.322,350.799 L784.03,351.667 L786.736,350.827 L789.108,351.15 L789.909,350.337 L791.89,350.146 L792.323,349.717 L793.166,350.613 L794.151,350.485 L792.847,350.974 L792.508,352.032 L790.821,353.007 L790.705,353.934 L792.097,354.81 L792.672,356.021 L792.362,357.431 L789.948,357.791 L791.166,359.475 L790.674,360.379 L788.65,361.728 L787.58,361.637 L786.147,363.345 L784.67,363.91 L784.404,364.256 L784.911,364.924 L782.026,366.737 L781.671,367.685 L779.808,367.855 L778.909,368.637 L777.546,368.729 L777.179,369.275 L774.987,369.074 L774.15,371.092 L772.537,370.086 L771.671,371.933 L770.618,372.113 L770.242,373.243 L770.924,374.043 L767.854,375.16 L766.705,374.778 L765.549,375.019 L764.89,377.33 L763.58,378.401 L762.031,378.558 L760.476,379.502 L759.842,380.634 L759.658,382.553 L760.428,383.294 L758.372,384.871 L758.311,385.917 L756.894,387.4 L756.918,388.838 L759.241,390.137 L758.957,390.777 L759.477,392.319 L758.228,396.431 L757.555,396.694 L757.594,397.539 L759.933,397.489 L763.925,398.642 L764.54,398.191 L764.232,397.713 L765.807,397.458 L767.129,395.823 L768.161,396.451 L769.7,395.268 L770.249,396.092 L769.553,397.332 L771.684,398.312 L772.057,398.959 L772.712,398.103 L776.619,397.385 L779.142,398.094 L778.306,398.94 L777.709,400.805 L776.143,400.9 L775.923,402.315 L771.064,404.234 L767.576,407.819 L766.383,407.918 L764.441,409.175 L764.125,410.56 L765.309,413.592 L764.545,413.631 L764.52,415.64 L763.03,416.127 L763.152,416.953 L762.179,419.486 L761.089,420.571 L759.808,420.495 L760.463,421.266 L759.44,421.996 L759.909,423.02 L759.584,425.043 L759.265,425.289 L758.267,424.745 L757.901,425.563 L756.487,426.246 L756.938,427.725 L755.756,429.501 L756.139,432.862 L755.045,436.141 L756.96,438.002 L755.487,439.539 L756.432,441.486 L756.227,442.381 L757.805,444.271 L757.842,446.18 L760.054,448.386 L760.019,449.303 L759.776,450.588 L757.505,454.124 L755.596,454.045 L754.401,456.618 L755.461,458.855 L756.403,459.366 L756.884,459.115 L757.605,459.843 L757.565,462.378 L758.232,463.004 L757.971,464.268 L759.357,466.567 L759.072,468.963 L758.022,470.197 L760.672,471.885 L762.296,471.735 L763.28,469.601 L764.512,469.549 L765.269,468.407 L767.635,466.576 L770.335,465.865 L771.611,464.086 L773.824,463.082 L774.363,461.988 L776.492,460.27 L777.793,457.696 L778.981,456.838 L781.003,456.884 L781.36,459.037 L781.846,459.428 L783.155,458.51 L785.768,457.736 L786.922,458.442 L788.052,457.902 L790.949,458.968 L793.05,458.307 L794.838,457.027 L799.663,456.728 L800.922,455.656 L802.436,455.386 L805.239,453.247 L806.946,454.912 L809.139,454.212 L811.984,454.396 L815.733,452.855 L817.988,449.638 L820.328,450.581 L821.342,450.369 L822.764,447.346 L824.23,446.397 L825.731,447.01 L827.352,445.145 L827.782,446.367 L826.752,447.64 L826.67,448.942 L828.513,448.301 L831.503,449.426 L834.228,448.164 L834.655,448.502 L834.398,448.995 L836.572,449.119 L836.649,449.576 L834.988,451.464 L835.758,452.596 L838.923,452.638 L841.7,451.944 L842.235,453.532 L845.689,455.741 L846.725,458.994 L845.597,459.494 L844.494,459.226 L843.742,459.968 L844.581,464.289 L847.521,466.209 L849.044,466.322 L851.462,467.513 L852.892,469.181 L853.612,469.294 L861.786,484.739 L864.49,485.647 L864.351,487.196 L865.523,487.415 L867.223,486.578 L867.636,487.578 L872.795,487.611 L873.545,488.159 L874.461,488.028 L874.571,488.635 L879.118,487.654 L879.099,488.193 L879.899,488.687 L879.519,491.616 L878.511,491.384 L879.184,492.289 L878.859,492.952 L879.854,493.231 L879.271,493.58 L879.164,495.719 L879.354,496.852 L880.519,498.206 L879.743,499.262 L879.896,500.993 L884.693,505.134 L885.585,504.781 L887.695,505.05 L888.216,507.233 L890.009,506.579 L891.486,506.886 L893.056,505.838 L893.649,503.741 L899.771,502.76 L902.242,500.779 L903.5,497.848 L905.752,495.654 L908.113,494.531 L909.185,494.919 L910.907,498.813 L910.802,500.049 L911.762,500.621 L910.552,501.361 L910.339,504.071 L906.881,505.624 L905.859,509.934 L906.096,511.993 L904.552,513.383 L902.772,514.144 L901.486,515.898 L899.21,517.698 L895.826,518.989 L893.031,520.651 L892.242,521.835 L890.352,522.235 L885.046,525.48 L882.22,530.612 L882.312,533.085 L882.885,533.732 L883.573,533.628 L885.293,532.848 L887.086,531.077 L887.766,531.386 L888.228,533.05 L890.595,531.583 L891.735,531.648 L892.64,532.277 L893.199,533.307 L892.334,537.592 L894.465,538.525 L893.997,542.321 L895.185,544.603 L894.432,546.649 L895.079,548.982 L896.487,548.393 L897.656,546.584 L898.716,546.01 L900.548,546.642 L901.471,546.325 L901.698,545.744 L900.744,543.534 L900.865,542.385 L903.966,544.698 L904.234,546.494 L905.098,547.664 L907.387,544.415 L909.376,542.809 L909.618,543.089 L908.719,545.146 L908.853,547.154 L910.225,549.497 L911.817,551.075 L912.391,551.031 L913.605,548.498 L915.433,548.741 L916.725,550.872 L919.881,552.375 L921.304,553.716 L922.964,557.171 L924.023,557.73 L926.492,557.721 L928.945,561.336 L930.711,559.454 L935.054,559.296 L933.605,561.308 L933.331,562.466 L935.288,563.063 L935.519,564.781 L937.608,565.688 L938.684,568.24 L938.669,570.017 L940.097,570.54 L940.504,571.677 L942.066,573.236 L942.877,573.217 L944.757,571.807 L948.373,573.337 L949.935,579.06 L948.294,581.095 L948.26,582.078 L948.87,583.602 L950.027,584.587 L950.048,586.467 L951.627,588.738 L950.105,591.316 L947.748,591.487 L946.806,592.553 L944.363,593.133 L944.539,593.902 L947.14,596.158 L946.296,598.037 L945.144,598.345 L943.706,597.995 L942.542,598.868 L942.315,599.702 L944.833,602.499 L945.291,604.737 L948.443,604.681 L950.596,606.35 L954.372,607.7 L954.545,609.256 L952.398,610.892 L949.666,611.014 L948.41,612.87 L946.674,613.975 L944.015,612.796 L942.596,613.375 L940.172,613.302 L937.723,611.878 L936.53,611.834 L934.811,613.694 L928.395,615.141 L926.297,616.879 L924.282,617.394 L921.63,620.175 L918.43,620.084 L916.56,619.169 L913.941,620.991 L913.736,621.743 L912.373,620.957 L910.837,622.393 L910.713,626.382 L910.026,627.564 L908.909,628.371 L904.83,629.762 L901.674,632.69 L901.363,634.867 L901.846,636.316 L899.582,639.711 L898.028,639.475 L895.768,637.401 L891.543,637.529 L890.876,636.406 L889.435,635.526 L887.951,635.73 L885.945,634.853 L883.381,635.691 L881.077,635.057 L879.478,636.083 L874.306,634.094 L870.212,633.577 L869.767,632.437 L869.213,632.409 L868.925,633.185 L869.528,634.233 L869.664,636.381 L874.631,644.571 L872.967,644.592 L871.923,644.189 L871.099,643.067 L868.706,642.477 L865.351,642.999 L861.711,641.391 L859.903,641.943 L856.845,641.674 L855.769,644.225 L855.733,647.088 L856.372,648.356 L855.686,648.845 L855.814,649.592 L854.759,649.768 L855.136,651.047 L853.697,651.465 L854.123,652.002 L854.125,654.246 L853.03,654.661 L852.094,656.856 L851.553,657.037 L851.578,657.992 L850.535,657.278 L849.547,658.258 L849.568,660.509 L850.622,659.883 L851.191,660.065 L851.772,661.436 L851.373,662.665 L851.77,663.318 L850.407,663.438 L848.266,662.309 L847.141,662.366 L846.604,661.524 L845.151,660.943 L843.857,661.361 L843.831,664.167 L842.017,664.019 L841.036,665.869 L838.998,665.568 L836.866,664.248 L832.735,664.505 L828.955,661.96 L827.268,661.332 L822.984,660.985 L821.534,659.669 L816.74,660.013 L815.44,659.355 L814.712,657.791 L815.154,654.492 L814.266,650.978 L811.969,649.637 L810.491,649.504 L808.985,650.087 L807.273,651.632 L804.379,652.876 L800.973,652.804 L780.31,645.179 L774.196,640.751 L775.941,639.727 L778.264,639.717 L778.893,638.672 L777.231,637.716 L771.282,636.585 L768.884,633.762 L767.616,633.355 L766.594,634.212 L767.778,635.772 L768.269,637.529 L766.46,637.755 L764.045,637.217 L756.085,632.852 L751.763,631.139 L751.469,627.017 L747.773,624.26 L739.093,620.808 L735.308,618.793 L729.445,617.582 L724.687,619.283 L721.269,618.393 L719.703,619.004 L718.493,618.901 L713.834,617.192 L711.18,617.646 L707.752,619.668 L705.416,622.538 L702.816,622.249 L698.151,619.61 L694.437,618.969 L684.173,619.11 L677.778,619.86 L671.481,621.464 L665.414,621.335 L662.205,620.367 L658.836,621.815 L656.33,621.749 L651.631,623.207 L641.133,623.91 L633.455,622.504 L632.591,623.884 L633.743,627.916 L632.638,629.516 L627.346,628.233 L624.167,626.854 L622.654,626.617 L620.725,627.043 L620.048,629.055 L617.48,632.013 L615.887,632.71 L610.699,632.994 L608.631,634.849 L607.338,635.355 L606.067,634.84 L604.227,634.911 L603.123,636.181 L601.622,636.907 L599.383,636.402 L597.379,634.936 L596.137,631.043 L594.496,630.122 L590.373,631.199 L589.126,630.026 L589.984,628.207 L589.267,626.015 L589.309,624.036 L591.341,622.324 L589.712,621.891 L582.628,622.962 L581.048,625.009 L576.99,626.661 L574.775,628.686 L572.851,629.414 L566.92,630.67 L560.792,630.585 L559.681,631.033 L559.541,632.162 L558.492,632.996 L556.3,633.756 L551.561,633.63 L549.564,633.317 L548.316,629.264 L547.251,628.724 L541.974,629.156 L539.946,628.431 L538.969,627.532 L537.67,627.352 L533.7,623.077 L532.212,622.265 L530.717,623.791 L529.183,624.188 L524.371,622.913 L522.842,623.696 L520.79,623.88 L518.353,622.035 L514.747,620.806 L511.353,622.268 L509.236,621.904 L505.991,620.754 L505.702,619.109 L503.911,618.439 L499.69,618.783 L494.969,617.867 L494.675,615.838 L493.213,614.697 L489.743,612.482 L486.807,611.823 L482.976,614.636 L476.364,614.704 L471.07,613.771 L465.061,613.944 L459.195,615.434 L454.596,614.744 L447.278,616.03 L441.321,615.6 L434.927,613.779 L431.087,613.3 L425.693,616.273 L417.134,617.36 L395.805,622.584 L389.504,623.21 L378.46,625.432 L371.86,624.087 L366.548,626.159 L362.111,626.162 L351.377,624.982 L348.129,623.817 L342.441,619.251 L339.385,618.825 L337.853,619.285 L335.346,622.97 L333.408,624.479 L327.613,624.474 L327.029,625.583 L327.26,626.842 L326.374,627.98 L324.768,627.673 L321.306,624.59 L319.523,624.587 L315.384,626.044 L313.031,626.132 L311.636,625.712 L308.903,623.03 L307.378,623.767 L305.421,622.285 L304.359,618.564 L301.356,615.971 L300.406,616.836 L299.726,619.508 L295.82,620.499 L295.634,622.04 L283.558,621.884 L257.322,623.482 L245.809,627.83 L239.795,628.884 L239.061,629.913 L237.298,630.983 L231.363,629.84 L228.502,628.677 L226.603,627.253 L216.85,625.514 L209.167,621.74 L202.964,616.406 L196.045,617.782 L192.236,617.488 L190.689,617.102 L185.834,614.494 L181.231,615.258 L173.118,612.732 L167.292,612.913 L163.594,610.754 L159.177,608.937 L153.524,607.278 L144.413,606.313 L139.833,606.835 L136.231,606.514 L132.688,603.313 L130.673,602.332 L125.735,601.626 L120.251,596.84 L104.945,592.018 L96.2426,587.928 L95.3619,586.516 L94.8826,583.973 L93.5943,583.146 L80.5189,583.588 L77.9478,582.209 L74.0816,581.077 L71.5612,581.894 L68.7921,584.883 L63.8928,587.34 L62.2929,587.37 L51.8031,584.668 L53.3399,579.563 L53.3921,577.832 L52.9366,576.577 L49.2895,573.221 L47.374,569.004 L45.4545,562.182 L45.9814,556.493 L47.1002,554 L49.1362,551.873 L51.0305,543.962 L54.0003,537.892 L57.3203,533.792 L57.7456,532.518 L61.0781,531.198 L62.9811,529.477 L63.1613,526.863 L64.5025,523.954 L64.5402,522.343 L63.3403,520.33 L67.3155,520.176 L66.7588,518.253 L65.7223,517.492 L66.5713,516.77 L65.4938,517.109 L64.6993,516.615 L63.4856,517.446 L63.5219,516.669 L62.9953,516.947 L62.9196,515.917 L62.1114,516.048 L61.839,515.21 L61.8828,513.496 L65.1551,511.117 L63.973,509.281 L64.6481,507.681 L67.1217,505.855 L69.1321,505.679 L71.1852,504.176 L72.0722,504.652 L73.8678,503.921 L74.5112,504.193 L75.3229,503.368 L82.8109,502.991 L84.0878,501.818 L87.9641,501.046 L90.0012,499.935 L93.5484,500.226 L94.5423,499.43 L95.49,496.127 L97.0008,494.823 L98.2789,494.732 L100.67,496.346 L102.932,496.595 L105.404,493.168 L105.362,491.687 L107.146,491.592 L107.319,490.633 L108.181,489.883 L107.375,489.764 L107.676,488.713 L107.007,489.178 L105.013,487.449 L104.833,486.323 L103.301,486.003 L104.141,485.065 L103.273,484.026 L101.66,485.346 L100.558,484.662 L99.5092,484.834 L96.9017,484.011 L96.9527,482.865 L95.6795,480.361 L91.3261,477.921 L90.742,477.107 L86.945,475.243 L85.816,473.338 L85.9395,472.034 L85.4201,471.507 L86.0298,470.551 L84.6527,470.185 L85.1085,468.047 L83.0108,466.036 L82.631,464.854 L78.7701,463.411 L77.2876,460.17 L75.6949,459.13 L72.3873,454.051 L71.3292,453.697 L71.19,452.74 L70.285,452.137 L69.891,451.107 L69.9947,448.054 L71.6126,447.417 L78.9834,450.069 L80.1616,449.858 L82.9386,448.008 L83.0771,447.064 L82.313,445.156 L84.3881,444.746 L88.2614,441.296 L89.124,438.798 L88.4394,438.077 L89.6528,437.417 L88.1419,434.97 L88.413,432.366 L89.372,430.921 L88.1836,430.121 L88.5852,427.906 L86.3636,426.72 L87.1307,424.903 L86.2895,424.154 L86.2782,423.561 L89.1452,422.454 L89.4553,423.422 L88.0344,423.693 L88.0729,424.839 L90.4601,425.168 L92.177,424.459 L90.9773,422.722 L91.0588,421.253 L91.6376,421.445 L92.2578,422.862 L93.2242,423.288 L95.2673,422.812 L95.3057,421.509 L96.3773,420.506 L99.3619,420.674 L103.111,419.373 L103.236,418.746 L101.698,418.292 L102.233,417.254 L104.399,417.568 L106.812,415.877 L107.33,415.164 L107.201,414.206 L107.838,414.296 L108.815,413.014 L109.268,410.86 L107.951,409.054 L106.365,409.442 L103.732,407.435 L104.483,406.481 L105.389,405.567 L106.237,405.468 L107.913,403.297 L109.698,402.195 L112.333,402.589 L112.422,403.405 L114.946,404.638 L115.235,403.294 L114.611,402.691 L116.151,402.131 L116.525,400.942 L118.889,400.711 L119.217,399.913 L118.932,399.138 L121.013,397.775 L120.444,396.791 L122.422,396.933 L123.481,395.278 L124.083,395.251 L125.114,396.356 L128.258,394.963 L128.009,393.136 L128.779,393.111 L129.748,392.222 L130.647,392.421 L130.046,389.302 L131.835,389.504 L132.861,388.646 L132.773,387.732 L134.481,388.013 L133.936,387.34 L134.746,385.933 L137.572,383.477 L138.695,383.292 L138.463,384.425 L142.095,383.013 L144.779,383.453 L144.428,382.741 L145.778,382.589 L148.088,380.601 L150.235,383.497 L152.452,383.92 L155.849,382.949 L155.937,384.069 L156.358,384.084 L157.029,385.742 L158.88,387.47 L159.45,386.94 L158.886,386.63 L159.034,385.711 L160.079,385.304 L160.564,384.075 L162.819,383.557 L163.743,382.368 L165.893,382.734 L166.367,384.884 L184.345,382.536 L201.638,378.257 L202.742,375.727 L202.888,374.218 L205.573,374.007 L206.399,371.583 L207.505,371.115 L208.42,369.204 L209.341,368.753 L215.255,367.033 L223.643,366.652 L225.36,367.729 L227.111,370.332 L228.434,370.82 L228.843,373.045 L231.052,373.844 L232.915,373.822 L233.845,373.102 L235.12,372.98 L237.027,371.687 L246.883,367.543 L250.695,369.429 L254.916,373.058 L257.078,376.396 L260.37,379.428 L263.818,383.844 L264.794,385.798 L264.538,389.032 L260.438,392.985 L259.62,396.115 L256.747,400.428 L258.702,402.071 L260.651,401.348 L262.182,399.411 L265.552,397.478 L265.749,396.703 L269.09,396.191 L269.375,395.762 L268.863,395.043 L267.678,394.632 L267.471,393.707 L269.014,394.374 L270.094,393.964 L277.49,389.704 L277.59,387.341 L278.413,385.286 L279.647,383.846 L280.879,383.217 L281.737,383.828 L284.47,384.112 L286.059,386.558 L291.909,388.966 L291.603,390.218 L288.313,393.077 L286.475,395.829 L288.708,401.091 L291.222,401.543 L292.156,401.414 L293.94,398.974 L293.902,397.995 L292.52,397.923 L292.538,396.823 L294.196,394.853 L306.674,390.346 L311.445,386.004 L317.32,385.039 L319.206,385.164 L320.345,384.169 L320.779,384.292 L321.06,386.04 L322.44,386.653 L324.872,385.035 L326.655,384.848 L326.481,383.939 L328.021,383.242 L328.507,384.134 L329.627,383.629 L328.894,385.095 L329.526,386.19 L327.285,388.899 L329.207,392.339 L330.234,390.843 L330.63,391.058 L331.055,390.458 L331.614,390.71 L331.469,391.93 L329.282,393.338 L329.535,395.147 L326.852,395.969 L327.908,397.116 L328.778,397.304 L329.336,396.158 L330.53,395.327 L333.408,394.227 L333.451,396.119 L332.272,396.799 L332.238,397.542 L335.189,398.56 L338.756,398.264 L338.741,397.477 L339.688,397.457 L340.361,394.261 L340.951,393.495 L340.699,393.24 L344.318,388.556 L348.201,386.461 L347.817,385.377 L348.173,384.931 L350.349,385.997 L351.283,385.576 L352.846,387.072 L353.298,386.07 L355.433,386.932 L356.429,386.153 L356.21,389.748 L357.297,388.317 L358.302,388.069 L358.914,386.898 L360.167,387.382 L368.184,387.939 L367.23,386.394 L368.751,385.848 L370.086,387.855 L369.908,385.522 L371.135,385.579 L371.527,387.217 L372.696,387.748 L372.809,389.301 L375.068,389.483 L374.146,391.398 L377.453,392.091 L377.722,393.272 L380.966,396.608 L381.78,396.254 L380.538,394.679 L380.174,393.064 L380.58,391.529 L380.35,389.966 L381.118,387.374 L381.772,387.36 L382.519,388.307 L383.122,387.841 L386.144,388.784 L388.011,386.493 L390.275,386.253 L389.676,387.232 L389.882,388.407 L393.199,390.249 L396.113,396.606 L396.838,399.744 L395.917,404.402 L396.792,405.382 L398.982,404.027 L406.469,404.554 L406.582,405.198 L409.494,405.7 L411.716,405.583 L413.941,404.299 L415.562,405.205 L414.759,410.216 L410.535,414.006 L410.927,416.584 L409.759,417.342 L409.982,418.598 L409.383,419.953 L408.697,419.76 L408.377,421.425 L406.693,423.673 L408.098,425.108 L413.099,424.079 L414.978,421.828 L416.027,421.316 L416.156,420.662 L418.203,420.085 L420.938,416.34 L426.716,417.124 L430.152,415.264 L428.472,417.347 L428.55,419.001 L428.132,419.517 L426.875,420.111 L426.474,419.486 L424.33,420.156 L423.833,421.644 L422.384,421.632 L421.141,422.403 L425.172,424.988 L426.644,423.481 L429.737,422.504 L442.888,421.291 L445.656,418.345 L447.679,418.34 L451.16,415.947 L454.916,416.112 L459.092,417.799 L461.102,417.931 L462.247,415.975 L463.832,415.575 L465.849,412.631 L466.374,416.237 L468.226,418.162 L466.292,420.587 L465.499,420.703 L465.43,423.01 L463.884,424.088 L462.951,425.724 L464.208,427.83 L462.306,431.647 L461.661,436.3 L460.545,437.346 L460.503,438.2 L462.593,439.833 L462.297,441.522 L463.858,442.277 L463.753,446.386 L464.22,447.183 L470.195,453.98 L473.948,454.87 L480.966,451.603 L486.73,447.791 L489.795,446.386 L491.146,444.283 L494.081,441.806 L494.51,439.632 L495.885,438.637 L496.191,437.339 L498.104,435.421 L498.331,434.382 L500.497,431.651 L502.021,428.39 L503.856,426.528 L504.333,424.759 L507.984,421.249 L507.66,420.129 L508.299,418.974 L510.941,420.017 L511.755,419.131 L513.412,419.577 L515.11,418.686 L517.572,419.13 L519.159,418.343 L519.72,417.095 L522.229,417.426 L525.88,416.829 L528.797,415.672 L529.844,416.08 L532.063,415.012 L534.802,414.736 L536.538,415.295 L538.868,418.057 L541.703,419.219 L542.687,418.565 L542.757,417.617 L546.764,414.777 L547.159,413.968 L549.104,413.31 L551.668,413.886 L553.42,411.786 L557.103,411.892 L557.591,412.722 L559.431,411.762 L562.565,411.847 L565.193,409.144 L566.896,409.051 L567.651,409.63 L567.648,406.472 L569.098,405.789 L568.429,404.489 L566.48,403.6 L564.87,405.916 L564.875,408.457 L562.389,411.316 L558.558,411.576 L557.483,411.102 L552.806,410.693 L550.782,409.94 L551.103,409.245 L550.727,408.788 L551.648,406.822 L551.809,404.696 L553.523,403.003 L555.931,402.146 L558.217,403.564 L559.579,403.571 L558.008,402.103 L559.671,400.009 L559.876,398.52 L564.65,395.77 L564.771,395.085 L568.438,392.799 L569.635,391.388 L569.52,390 L568.296,391.79 L565.318,393.184 L563.739,394.987 L562.342,395.779 L561.298,395.648 L559.813,397.418 L559.384,396.703 L559.75,395.796 L558.77,395.146 L559.278,392.808 L560.444,392.236 L560.813,391.063 L562.594,390.878 L563.001,388.339 L564.421,388.752 L563.435,383.936 L563.891,382.711 L565.135,382.79 L566.088,382.134 L567.108,382.435 L567.628,381.696 L569.229,381.928 L569.162,380.583 L570.064,379.156 L571.388,378.621 L571.991,377.788 L572.617,378.031 L573.984,377.58 L574.121,375.015 L575.872,372.669 L576.829,370.178 L578.189,369.847 L577.752,368.179 L580.348,365.786 L579.442,364.85 L579.911,362.647 L582.684,360.344 L585.385,361.465 L587.013,363.863 L586.959,364.441 L588.067,364.96 L588.887,363.885 L594.759,362.562 L596.834,363.725 L598.277,363.776 L598.676,364.671 L598.302,365.058 L598.756,365.424 L598.431,365.981 L599.435,366.767 L598.782,367.071 L598.929,367.877 L598.356,368.178 L597.384,370.233 L598.015,373.464 L596.802,373.846 L596.746,374.511 L597.496,375.802 L597.412,377.716 L601.204,381.486 L599.27,382.475 L597.762,386.539 L597.888,387.725 L596.776,388.049 L595.78,387.257 L592.431,387.185 L591.698,389.508 L595.323,391.081 L596.215,391.888 L596.499,392.948 L598.113,393.328 L598.616,394.254 L599.921,394.396 L604.483,398.973 L608.112,398.523 L610.296,399.621 L612.802,395.939 L615.616,394.735 L616.025,393.395 L618.917,390.232 L619.585,390.043 L619.971,388.328 L623.343,387.482 L623.298,386.971 L625.359,384.578 L625.399,382.371 L626.094,380.888 L625.259,380.856 L625.663,380.029 L625.347,376.006 L625.793,374.011 L625.211,372.619 L625.848,370.003 L625.802,366.75 L626.859,364.312 L626.247,359.772 L626.954,356.41 L629.493,355.489 L629.275,354.978 L629.948,354.845 L629.803,354.141 L630.468,353.346 L629.43,353.352 L628.587,352.941 L628.692,352.531 L632.298,351.281 L632.37,350.592 L636.139,349.79 L636.607,349.052 L638.328,348.446 L638.41,347.758 L642.754,343.276 L644.593,343.658 L645.364,344.898 L647.038,344.527 L649.773,340.021 L650.556,341.476 L651.377,340.302 L652.417,340.706 L652.751,339.033 L654.844,336.642 L655.821,336.215 L655.821,335.042 L657.397,334.131" fill-rule="evenodd"/>
  </g>
  <g transform="matrix(1,0,0,1,0,0)" stroke="none" font-weight="400" fill="#787878" font-family=".SF NS Text" font-size="54.1667" font-style="normal" fill-opacity="1">
   <path vector-effect="none" d="M657.397,334.131 L659.052,334.423 L661.033,336.311 L664.357,337.579 L665.187,337.477 L668.139,339.155 L669.116,339.234 L669.674,339.907 L672.071,339.842 L673.754,340.65 L673.897,341.24 L673.053,342.575 L673.535,343.143 L672.974,347.134 L671.769,349.799 L671.049,353.876 L671.549,354.955 L670.142,357.675 L671.252,357.464 L671.579,356.884 L672.41,357.371 L671.905,358.653 L672.849,359.382 L672.536,359.776 L673.749,360.003 L673.681,360.981 L674.932,362.518 L675.77,361.928 L676.666,361.98 L679.431,363.341 L680.792,363.652 L681.668,363.196 L682.681,364.079 L684.561,364.222 L684.042,365.982 L684.591,366.202 L683.059,366.603 L684.144,367.599 L683.06,367.789 L683.314,368.216 L684.403,368.267 L683.827,368.962 L684.471,370.824 L685.867,371.119 L687.686,370.644 L688.692,369.742 L689.567,366.7 L690.427,367.333 L694.444,366.451 L694.633,365.807 L695.721,365.999 L698.928,364.704 L698.939,364.296 L702.351,363.731 L704.119,362.1 L705.517,362.609 L706.309,361.643 L706.093,361.019 L707.186,358.736 L708.92,358.749 L710.277,359.57 L711.767,359.637 L712.407,358.729 L713.693,359.309 L714.553,358.763 L715.536,359.188 L716.128,358.535 L717.83,358.956 L719.832,358.416 L720.981,358.619 L721.57,359.442 L722.895,359.352 L725.162,360.488 L726.162,360.483 L728.148,359.864 L730.837,359.786 L734.221,357.593 L740.115,355.483 L743.619,355.04 L746.995,356.475 L747.453,357.108 L749.525,356.561 L750.864,356.999 L751.349,354.502 L752.363,353.714 L754.143,353.408 L756.833,350.141 L757.586,350.027 L762.055,346.837 L764.915,346.67 L764.909,347.429 L764.117,347.856 L764.089,349.093 L764.684,349.601 L765.369,348.805 L765.831,349.448 L767.512,349.376 L767.144,349.875 L767.459,350.204 L768.631,349.515 L769.128,349.972 L771.494,349.277 L773.346,349.726 L773.272,349.274 L773.853,349.019 L776.075,349.644 L777.615,349.07 L778.13,349.743 L780.062,350.135 L780.322,350.799 L784.03,351.667 L786.736,350.827 L789.108,351.15 L789.909,350.337 L791.89,350.146 L792.323,349.717 L793.166,350.613 L794.151,350.485 L792.847,350.974 L792.508,352.032 L790.821,353.007 L790.705,353.934 L792.097,354.81 L792.672,356.021 L792.362,357.431 L789.948,357.791 L791.166,359.475 L790.674,360.379 L788.65,361.728 L787.58,361.637 L786.147,363.345 L784.67,363.91 L784.404,364.256 L784.911,364.924 L782.026,366.737 L781.671,367.685 L779.808,367.855 L778.909,368.637 L777.546,368.729 L777.179,369.275 L774.987,369.074 L774.15,371.092 L772.537,370.086 L771.671,371.933 L770.618,372.113 L770.242,373.243 L770.924,374.043 L767.854,375.16 L766.705,374.778 L765.549,375.019 L764.89,377.33 L763.58,378.401 L762.031,378.558 L760.476,379.502 L759.842,380.634 L759.658,382.553 L760.428,383.294 L758.372,384.871 L758.311,385.917 L756.894,387.4 L756.918,388.838 L759.241,390.137 L758.957,390.777 L759.477,392.319 L758.228,396.431 L757.555,396.694 L757.594,397.539 L759.933,397.489 L763.925,398.642 L764.54,398.191 L764.232,397.713 L765.807,397.458 L767.129,395.823 L768.161,396.451 L769.7,395.268 L770.249,396.092 L769.553,397.332 L771.684,398.312 L772.057,398.959 L772.712,398.103 L776.619,397.385 L779.142,398.094 L778.306,398.94 L777.709,400.805 L776.143,400.9 L775.923,402.315 L771.064,404.234 L767.576,407.819 L766.383,407.918 L764.441,409.175 L764.125,410.56 L765.309,413.592 L764.545,413.631 L764.52,415.64 L763.03,416.127 L763.152,416.953 L762.179,419.486 L761.089,420.571 L759.808,420.495 L760.463,421.266 L759.44,421.996 L759.909,423.02 L759.584,425.043 L759.265,425.289 L758.267,424.745 L757.901,425.563 L756.487,426.246 L756.938,427.725 L755.756,429.501 L756.139,432.862 L755.045,436.141 L756.96,438.002 L755.487,439.539 L756.432,441.486 L756.227,442.381 L757.805,444.271 L757.842,446.18 L760.054,448.386 L760.019,449.303 L759.776,450.588 L757.505,454.124 L755.596,454.045 L754.401,456.618 L755.461,458.855 L756.403,459.366 L756.884,459.115 L757.605,459.843 L757.565,462.378 L758.232,463.004 L757.971,464.268 L759.357,466.567 L759.072,468.963 L758.022,470.197 L760.672,471.885 L762.296,471.735 L763.28,469.601 L764.512,469.549 L765.269,468.407 L767.635,466.576 L770.335,465.865 L771.611,464.086 L773.824,463.082 L774.363,461.988 L776.492,460.27 L777.793,457.696 L778.981,456.838 L781.003,456.884 L781.36,459.037 L781.846,459.428 L783.155,458.51 L785.768,457.736 L786.922,458.442 L788.052,457.902 L790.949,458.968 L793.05,458.307 L794.838,457.027 L799.663,456.728 L800.922,455.656 L802.436,455.386 L805.239,453.247 L806.946,454.912 L809.139,454.212 L811.984,454.396 L815.733,452.855 L817.988,449.638 L820.328,450.581 L821.342,450.369 L822.764,447.346 L824.23,446.397 L825.731,447.01 L827.352,445.145 L827.782,446.367 L826.752,447.64 L826.67,448.942 L828.513,448.301 L831.503,449.426 L834.228,448.164 L834.655,448.502 L834.398,448.995 L836.572,449.119 L836.649,449.576 L834.988,451.464 L835.758,452.596 L838.923,452.638 L841.7,451.944 L842.235,453.532 L845.689,455.741 L846.725,458.994 L845.597,459.494 L844.494,459.226 L843.742,459.968 L844.581,464.289 L847.521,466.209 L849.044,466.322 L851.462,467.513 L852.892,469.181 L853.612,469.294 L861.786,484.739 L864.49,485.647 L864.351,487.196 L865.523,487.415 L867.223,486.578 L867.636,487.578 L872.795,487.611 L873.545,488.159 L874.461,488.028 L874.571,488.635 L879.118,487.654 L879.099,488.193 L879.899,488.687 L879.519,491.616 L878.511,491.384 L879.184,492.289 L878.859,492.952 L879.854,493.231 L879.271,493.58 L879.164,495.719 L879.354,496.852 L880.519,498.206 L879.743,499.262 L879.896,500.993 L884.693,505.134 L885.585,504.781 L887.695,505.05 L888.216,507.233 L890.009,506.579 L891.486,506.886 L893.056,505.838 L893.649,503.741 L899.771,502.76 L902.242,500.779 L903.5,497.848 L905.752,495.654 L908.113,494.531 L909.185,494.919 L910.907,498.813 L910.802,500.049 L911.762,500.621 L910.552,501.361 L910.339,504.071 L906.881,505.624 L905.859,509.934 L906.096,511.993 L904.552,513.383 L902.772,514.144 L901.486,515.898 L899.21,517.698 L895.826,518.989 L893.031,520.651 L892.242,521.835 L890.352,522.235 L885.046,525.48 L882.22,530.612 L882.312,533.085 L882.885,533.732 L883.573,533.628 L885.293,532.848 L887.086,531.077 L887.766,531.386 L888.228,533.05 L890.595,531.583 L891.735,531.648 L892.64,532.277 L893.199,533.307 L892.334,537.592 L894.465,538.525 L893.997,542.321 L895.185,544.603 L894.432,546.649 L895.079,548.982 L896.487,548.393 L897.656,546.584 L898.716,546.01 L900.548,546.642 L901.471,546.325 L901.698,545.744 L900.744,543.534 L900.865,542.385 L903.966,544.698 L904.234,546.494 L905.098,547.664 L907.387,544.415 L909.376,542.809 L909.618,543.089 L908.719,545.146 L908.853,547.154 L910.225,549.497 L911.817,551.075 L912.391,551.031 L913.605,548.498 L915.433,548.741 L916.725,550.872 L919.881,552.375 L921.304,553.716 L922.964,557.171 L924.023,557.73 L926.492,557.721 L928.945,561.336 L930.711,559.454 L935.054,559.296 L933.605,561.308 L933.331,562.466 L935.288,563.063 L935.519,564.781 L937.608,565.688 L938.684,568.24 L938.669,570.017 L940.097,570.54 L940.504,571.677 L942.066,573.236 L942.877,573.217 L944.757,571.807 L948.373,573.337 L949.935,579.06 L948.294,581.095 L948.26,582.078 L948.87,583.602 L950.027,584.587 L950.048,586.467 L951.627,588.738 L950.105,591.316 L947.748,591.487 L946.806,592.553 L944.363,593.133 L944.539,593.902 L947.14,596.158 L946.296,598.037 L945.144,598.345 L943.706,597.995 L942.542,598.868 L942.315,599.702 L944.833,602.499 L945.291,604.737 L948.443,604.681 L950.596,606.35 L954.372,607.7 L954.545,609.256 L952.398,610.892 L949.666,611.014 L948.41,612.87 L946.674,613.975 L944.015,612.796 L942.596,613.375 L940.172,613.302 L937.723,611.878 L936.53,611.834 L934.811,613.694 L928.395,615.141 L926.297,616.879 L924.282,617.394 L921.63,620.175 L918.43,620.084 L916.56,619.169 L913.941,620.991 L913.736,621.743 L912.373,620.957 L910.837,622.393 L910.713,626.382 L910.026,627.564 L908.909,628.371 L904.83,629.762 L901.674,632.69 L901.363,634.867 L901.846,636.316 L899.582,639.711 L898.028,639.475 L895.768,637.401 L891.543,637.529 L890.876,636.406 L889.435,635.526 L887.951,635.73 L885.945,634.853 L883.381,635.691 L881.077,635.057 L879.478,636.083 L874.306,634.094 L870.212,633.577 L869.767,632.437 L869.213,632.409 L868.925,633.185 L869.528,634.233 L869.664,636.381 L874.631,644.571 L872.967,644.592 L871.923,644.189 L871.099,643.067 L868.706,642.477 L865.351,642.999 L861.711,641.391 L859.903,641.943 L856.845,641.674 L855.769,644.225 L855.733,647.088 L856.372,648.356 L855.686,648.845 L855.814,649.592 L854.759,649.768 L855.136,651.047 L853.697,651.465 L854.123,652.002 L854.125,654.246 L853.03,654.661 L852.094,656.856 L851.553,657.037 L851.578,657.992 L850.535,657.278 L849.547,658.258 L849.568,660.509 L850.622,659.883 L851.191,660.065 L851.772,661.436 L851.373,662.665 L851.77,663.318 L850.407,663.438 L848.266,662.309 L847.141,662.366 L846.604,661.524 L845.151,660.943 L843.857,661.361 L843.831,664.167 L842.017,664.019 L841.036,665.869 L838.998,665.568 L836.866,664.248 L832.735,664.505 L828.955,661.96 L827.268,661.332 L822.984,660.985 L821.534,659.669 L816.74,660.013 L815.44,659.355 L814.712,657.791 L815.154,654.492 L814.266,650.978 L811.969,649.637 L810.491,649.504 L808.985,650.087 L807.273,651.632 L804.379,652.876 L800.973,652.804 L780.31,645.179 L774.196,640.751 L775.941,639.727 L778.264,639.717 L778.893,638.672 L777.231,637.716 L771.282,636.585 L768.884,633.762 L767.616,633.355 L766.594,634.212 L767.778,635.772 L768.269,637.529 L766.46,637.755 L764.045,637.217 L756.085,632.852 L751.763,631.139 L751.469,627.017 L747.773,624.26 L739.093,620.808 L735.308,618.793 L729.445,617.582 L724.687,619.283 L721.269,618.393 L719.703,619.004 L718.493,618.901 L713.834,617.192 L711.18,617.646 L707.752,619.668 L705.416,622.538 L702.816,622.249 L698.151,619.61 L694.437,618.969 L684.173,619.11 L677.778,619.86 L671.481,621.464 L665.414,621.335 L662.205,620.367 L658.836,621.815 L656.33,621.749 L651.631,623.207 L641.133,623.91 L633.455,622.504 L632.591,623.884 L633.743,627.916 L632.638,629.516 L627.346,628.233 L624.167,626.854 L622.654,626.617 L620.725,627.043 L620.048,629.055 L617.48,632.013 L615.887,632.71 L610.699,632.994 L608.631,634.849 L607.338,635.355 L606.067,634.84 L604.227,634.911 L603.123,636.181 L601.622,636.907 L599.383,636.402 L597.379,634.936 L596.137,631.043 L594.496,630.122 L590.373,631.199 L589.126,630.026 L589.984,628.207 L589.267,626.015 L589.309,624.036 L591.341,622.324 L589.712,621.891 L582.628,622.962 L581.048,625.009 L576.99,626.661 L574.775,628.686 L572.851,629.414 L566.92,630.67 L560.792,630.585 L559.681,631.033 L559.541,632.162 L558.492,632.996 L556.3,633.756 L551.561,633.63 L549.564,633.317 L548.316,629.264 L547.251,628.724 L541.974,629.156 L539.946,628.431 L538.969,627.532 L537.67,627.352 L533.7,623.077 L532.212,622.265 L530.717,623.791 L529.183,624.188 L524.371,622.913 L522.842,623.696 L520.79,623.88 L518.353,622.035 L514.747,620.806 L511.353,622.268 L509.236,621.904 L505.991,620.754 L505.702,619.109 L503.911,618.439 L499.69,618.783 L494.969,617.867 L494.675,615.838 L493.213,614.697 L489.743,612.482 L486.807,611.823 L482.976,614.636 L476.364,614.704 L471.07,613.771 L465.061,613.944 L459.195,615.434 L454.596,614.744 L447.278,616.03 L441.321,615.6 L434.927,613.779 L431.087,613.3 L425.693,616.273 L417.134,617.36 L395.805,622.584 L389.504,623.21 L378.46,625.432 L371.86,624.087 L366.548,626.159 L362.111,626.162 L351.377,624.982 L348.129,623.817 L342.441,619.251 L339.385,618.825 L337.853,619.285 L335.346,622.97 L333.408,624.479 L327.613,624.474 L327.029,625.583 L327.26,626.842 L326.374,627.98 L324.768,627.673 L321.306,624.59 L319.523,624.587 L315.384,626.044 L313.031,626.132 L311.636,625.712 L308.903,623.03 L307.378,623.767 L305.421,622.285 L304.359,618.564 L301.356,615.971 L300.406,616.836 L299.726,619.508 L295.82,620.499 L295.634,622.04 L283.558,621.884 L257.322,623.482 L245.809,627.83 L239.795,628.884 L239.061,629.913 L237.298,630.983 L231.363,629.84 L228.502,628.677 L226.603,627.253 L216.85,625.514 L209.167,621.74 L202.964,616.406 L196.045,617.782 L192.236,617.488 L190.689,617.102 L185.834,614.494 L181.231,615.258 L173.118,612.732 L167.292,612.913 L163.594,610.754 L159.177,608.937 L153.524,607.278 L144.413,606.313 L139.833,606.835 L136.231,606.514 L132.688,603.313 L130.673,602.332 L125.735,601.626 L120.251,596.84 L104.945,592.018 L96.2426,587.928 L95.3619,586.516 L94.8826,583.973 L93.5943,583.146 L80.5189,583.588 L77.9478,582.209 L74.0816,581.077 L71.5612,581.894 L68.7921,584.883 L63.8928,587.34 L62.2929,587.37 L51.8031,584.668 L53.3399,579.563 L53.3921,577.832 L52.9366,576.577 L49.2895,573.221 L47.374,569.004 L45.4545,562.182 L45.9814,556.493 L47.1002,554 L49.1362,551.873 L51.0305,543.962 L54.0003,537.892 L57.3203,533.792 L57.7456,532.518 L61.0781,531.198 L62.9811,529.477 L63.1613,526.863 L64.5025,523.954 L64.5402,522.343 L63.3403,520.33 L67.3155,520.176 L66.7588,518.253 L65.7223,517.492 L66.5713,516.77 L65.4938,517.109 L64.6993,516.615 L63.4856,517.446 L63.5219,516.669 L62.9953,516.947 L62.9196,515.917 L62.1114,516.048 L61.839,515.21 L61.8828,513.496 L65.1551,511.117 L63.973,509.281 L64.6481,507.681 L67.1217,505.855 L69.1321,505.679 L71.1852,504.176 L72.0722,504.652 L73.8678,503.921 L74.5112,504.193 L75.3229,503.368 L82.8109,502.991 L84.0878,501.818 L87.9641,501.046 L90.0012,499.935 L93.5484,500.226 L94.5423,499.43 L95.49,496.127 L97.0008,494.823 L98.2789,494.732 L100.67,496.346 L102.932,496.595 L105.404,493.168 L105.362,491.687 L107.146,491.592 L107.319,490.633 L108.181,489.883 L107.375,489.764 L107.676,488.713 L107.007,489.178 L105.013,487.449 L104.833,486.323 L103.301,486.003 L104.141,485.065 L103.273,484.026 L101.66,485.346 L100.558,484.662 L99.5092,484.834 L96.9017,484.011 L96.9527,482.865 L95.6795,480.361 L91.3261,477.921 L90.742,477.107 L86.945,475.243 L85.816,473.338 L85.9395,472.034 L85.4201,471.507 L86.0298,470.551 L84.6527,470.185 L85.1085,468.047 L83.0108,466.036 L82.631,464.854 L78.7701,463.411 L77.2876,460.17 L75.6949,459.13 L72.3873,454.051 L71.3292,453.697 L71.19,452.74 L70.285,452.137 L69.891,451.107 L69.9947,448.054 L71.6126,447.417 L78.9834,450.069 L80.1616,449.858 L82.9386,448.008 L83.0771,447.064 L82.313,445.156 L84.3881,444.746 L88.2614,441.296 L89.124,438.798 L88.4394,438.077 L89.6528,437.417 L88.1419,434.97 L88.413,432.366 L89.372,430.921 L88.1836,430.121 L88.5852,427.906 L86.3636,426.72 L87.1307,424.903 L86.2895,424.154 L86.2782,423.561 L89.1452,422.454 L89.4553,423.422 L88.0344,423.693 L88.0729,424.839 L90.4601,425.168 L92.177,424.459 L90.9773,422.722 L91.0588,421.253 L91.6376,421.445 L92.2578,422.862 L93.2242,423.288 L95.2673,422.812 L95.3057,421.509 L96.3773,420.506 L99.3619,420.674 L103.111,419.373 L103.236,418.746 L101.698,418.292 L102.233,417.254 L104.399,417.568 L106.812,415.877 L107.33,415.164 L107.201,414.206 L107.838,414.296 L108.815,413.014 L109.268,410.86 L107.951,409.054 L106.365,409.442 L103.732,407.435 L104.483,406.481 L105.389,405.567 L106.237,405.468 L107.913,403.297 L109.698,402.195 L112.333,402.589 L112.422,403.405 L114.946,404.638 L115.235,403.294 L114.611,402.691 L116.151,402.131 L116.525,400.942 L118.889,400.711 L119.217,399.913 L118.932,399.138 L121.013,397.775 L120.444,396.791 L122.422,396.933 L123.481,395.278 L124.083,395.251 L125.114,396.356 L128.258,394.963 L128.009,393.136 L128.779,393.111 L129.748,392.222 L130.647,392.421 L130.046,389.302 L131.835,389.504 L132.861,388.646 L132.773,387.732 L134.481,388.013 L133.936,387.34 L134.746,385.933 L137.572,383.477 L138.695,383.292 L138.463,384.425 L142.095,383.013 L144.779,383.453 L144.428,382.741 L145.778,382.589 L148.088,380.601 L150.235,383.497 L152.452,383.92 L155.849,382.949 L155.937,384.069 L156.358,384.084 L157.029,385.742 L158.88,387.47 L159.45,386.94 L158.886,386.63 L159.034,385.711 L160.079,385.304 L160.564,384.075 L162.819,383.557 L163.743,382.368 L165.893,382.734 L166.367,384.884 L184.345,382.536 L201.638,378.257 L202.742,375.727 L202.888,374.218 L205.573,374.007 L206.399,371.583 L207.505,371.115 L208.42,369.204 L209.341,368.753 L215.255,367.033 L223.643,366.652 L225.36,367.729 L227.111,370.332 L228.434,370.82 L228.843,373.045 L231.052,373.844 L232.915,373.822 L233.845,373.102 L235.12,372.98 L237.027,371.687 L246.883,367.543 L250.695,369.429 L254.916,373.058 L257.078,376.396 L260.37,379.428 L263.818,383.844 L264.794,385.798 L264.538,389.032 L260.438,392.985 L259.62,396.115 L256.747,400.428 L258.702,402.071 L260.651,401.348 L262.182,399.411 L265.552,397.478 L265.749,396.703 L269.09,396.191 L269.375,395.762 L268.863,395.043 L267.678,394.632 L267.471,393.707 L269.014,394.374 L270.094,393.964 L277.49,389.704 L277.59,387.341 L278.413,385.286 L279.647,383.846 L280.879,383.217 L281.737,383.828 L284.47,384.112 L286.059,386.558 L291.909,388.966 L291.603,390.218 L288.313,393.077 L286.475,395.829 L288.708,401.091 L291.222,401.543 L292.156,401.414 L293.94,398.974 L293.902,397.995 L292.52,397.923 L292.538,396.823 L294.196,394.853 L306.674,390.346 L311.445,386.004 L317.32,385.039 L319.206,385.164 L320.345,384.169 L320.779,384.292 L321.06,386.04 L322.44,386.653 L324.872,385.035 L326.655,384.848 L326.481,383.939 L328.021,383.242 L328.507,384.134 L329.627,383.629 L328.894,385.095 L329.526,386.19 L327.285,388.899 L329.207,392.339 L330.234,390.843 L330.63,391.058 L331.055,390.458 L331.614,390.71 L331.469,391.93 L329.282,393.338 L329.535,395.147 L326.852,395.969 L327.908,397.116 L328.778,397.304 L329.336,396.158 L330.53,395.327 L333.408,394.227 L333.451,396.119 L332.272,396.799 L332.238,397.542 L335.189,398.56 L338.756,398.264 L338.741,397.477 L339.688,397.457 L340.361,394.261 L340.951,393.495 L340.699,393.24 L344.318,388.556 L348.201,386.461 L347.817,385.377 L348.173,384.931 L350.349,385.997 L351.283,385.576 L352.846,387.072 L353.298,386.07 L355.433,386.932 L356.429,386.153 L356.21,389.748 L357.297,388.317 L358.302,388.069 L358.914,386.898 L360.167,387.382 L368.184,387.939 L367.23,386.394 L368.751,385.848 L370.086,387.855 L369.908,385.522 L371.135,385.579 L371.527,387.217 L372.696,387.748 L372.809,389.301 L375.068,389.483 L374.146,391.398 L377.453,392.091 L377.722,393.272 L380.966,396.608 L381.78,396.254 L380.538,394.679 L380.174,393.064 L380.58,391.529 L380.35,389.966 L381.118,387.374 L381.772,387.36 L382.519,388.307 L383.122,387.841 L386.144,388.784 L388.011,386.493 L390.275,386.253 L389.676,387.232 L389.882,388.407 L393.199,390.249 L396.113,396.606 L396.838,399.744 L395.917,404.402 L396.792,405.382 L398.982,404.027 L406.469,404.554 L406.582,405.198 L409.494,405.7 L411.716,405.583 L413.941,404.299 L415.562,405.205 L414.759,410.216 L410.535,414.006 L410.927,416.584 L409.759,417.342 L409.982,418.598 L409.383,419.953 L408.697,419.76 L408.377,421.425 L406.693,423.673 L408.098,425.108 L413.099,424.079 L414.978,421.828 L416.027,421.316 L416.156,420.662 L418.203,420.085 L420.938,416.34 L426.716,417.124 L430.152,415.264 L428.472,417.347 L428.55,419.001 L428.132,419.517 L426.875,420.111 L426.474,419.486 L424.33,420.156 L423.833,421.644 L422.384,421.632 L421.141,422.403 L425.172,424.988 L426.644,423.481 L429.737,422.504 L442.888,421.291 L445.656,418.345 L447.679,418.34 L451.16,415.947 L454.916,416.112 L459.092,417.799 L461.102,417.931 L462.247,415.975 L463.832,415.575 L465.849,412.631 L466.374,416.237 L468.226,418.162 L466.292,420.587 L465.499,420.703 L465.43,423.01 L463.884,424.088 L462.951,425.724 L464.208,427.83 L462.306,431.647 L461.661,436.3 L460.545,437.346 L460.503,438.2 L462.593,439.833 L462.297,441.522 L463.858,442.277 L463.753,446.386 L464.22,447.183 L470.195,453.98 L473.948,454.87 L480.966,451.603 L486.73,447.791 L489.795,446.386 L491.146,444.283 L494.081,441.806 L494.51,439.632 L495.885,438.637 L496.191,437.339 L498.104,435.421 L498.331,434.382 L500.497,431.651 L502.021,428.39 L503.856,426.528 L504.333,424.759 L507.984,421.249 L507.66,420.129 L508.299,418.974 L510.941,420.017 L511.755,419.131 L513.412,419.577 L515.11,418.686 L517.572,419.13 L519.159,418.343 L519.72,417.095 L522.229,417.426 L525.88,416.829 L528.797,415.672 L529.844,416.08 L532.063,415.012 L534.802,414.736 L536.538,415.295 L538.868,418.057 L541.703,419.219 L542.687,418.565 L542.757,417.617 L546.764,414.777 L547.159,413.968 L549.104,413.31 L551.668,413.886 L553.42,411.786 L557.103,411.892 L557.591,412.722 L559.431,411.762 L562.565,411.847 L565.193,409.144 L566.896,409.051 L567.651,409.63 L567.648,406.472 L569.098,405.789 L568.429,404.489 L566.48,403.6 L564.87,405.916 L564.875,408.457 L562.389,411.316 L558.558,411.576 L557.483,411.102 L552.806,410.693 L550.782,409.94 L551.103,409.245 L550.727,408.788 L551.648,406.822 L551.809,404.696 L553.523,403.003 L555.931,402.146 L558.217,403.564 L559.579,403.571 L558.008,402.103 L559.671,400.009 L559.876,398.52 L564.65,395.77 L564.771,395.085 L568.438,392.799 L569.635,391.388 L569.52,390 L568.296,391.79 L565.318,393.184 L563.739,394.987 L562.342,395.779 L561.298,395.648 L559.813,397.418 L559.384,396.703 L559.75,395.796 L558.77,395.146 L559.278,392.808 L560.444,392.236 L560.813,391.063 L562.594,390.878 L563.001,388.339 L564.421,388.752 L563.435,383.936 L563.891,382.711 L565.135,382.79 L566.088,382.134 L567.108,382.435 L567.628,381.696 L569.229,381.928 L569.162,380.583 L570.064,379.156 L571.388,378.621 L571.991,377.788 L572.617,378.031 L573.984,377.58 L574.121,375.015 L575.872,372.669 L576.829,370.178 L578.189,369.847 L577.752,368.179 L580.348,365.786 L579.442,364.85 L579.911,362.647 L582.684,360.344 L585.385,361.465 L587.013,363.863 L586.959,364.441 L588.067,364.96 L588.887,363.885 L594.759,362.562 L596.834,363.725 L598.277,363.776 L598.676,364.671 L598.302,365.058 L598.756,365.424 L598.431,365.981 L599.435,366.767 L598.782,367.071 L598.929,367.877 L598.356,368.178 L597.384,370.233 L598.015,373.464 L596.802,373.846 L596.746,374.511 L597.496,375.802 L597.412,377.716 L601.204,381.486 L599.27,382.475 L597.762,386.539 L597.888,387.725 L596.776,388.049 L595.78,387.257 L592.431,387.185 L591.698,389.508 L595.323,391.081 L596.215,391.888 L596.499,392.948 L598.113,393.328 L598.616,394.254 L599.921,394.396 L604.483,398.973 L608.112,398.523 L610.296,399.621 L612.802,395.939 L615.616,394.735 L616.025,393.395 L618.917,390.232 L619.585,390.043 L619.971,388.328 L623.343,387.482 L623.298,386.971 L625.359,384.578 L625.399,382.371 L626.094,380.888 L625.259,380.856 L625.663,380.029 L625.347,376.006 L625.793,374.011 L625.211,372.619 L625.848,370.003 L625.802,366.75 L626.859,364.312 L626.247,359.772 L626.954,356.41 L629.493,355.489 L629.275,354.978 L629.948,354.845 L629.803,354.141 L630.468,353.346 L629.43,353.352 L628.587,352.941 L628.692,352.531 L632.298,351.281 L632.37,350.592 L636.139,349.79 L636.607,349.052 L638.328,348.446 L638.41,347.758 L642.754,343.276 L644.593,343.658 L645.364,344.898 L647.038,344.527 L649.773,340.021 L650.556,341.476 L651.377,340.302 L652.417,340.706 L652.751,339.033 L654.844,336.642 L655.821,336.215 L655.821,335.042 L657.397,334.131" fill-rule="evenodd"/>
  </g>
  <g transform="matrix(11.811,0,0,11.811,0,0)" stroke="#000000" stroke-linecap="square" font-weight="400" fill="none" stroke-linejoin="bevel" stroke-opacity="1" stroke-width="1" font-family=".SF NS Text" font-size="54.1667" font-style="normal"/>
  <g transform="matrix(11.811,0,0,11.811,0,0)" stroke="#000000" stroke-linecap="square" font-weight="400" fill="none" stroke-linejoin="bevel" stroke-opacity="1" stroke-width="1" font-family=".SF NS Text" font-size="54.1667" font-style="normal"/>
  <g transform="matrix(11.811,0,0,11.811,0,0)" stroke="#000000" stroke-linecap="square" font-weight="400" fill="none" stroke-linejoin="bevel" stroke-opacity="1" stroke-width="1" font-family=".SF NS Text" font-size="54.1667" font-style="normal"/>
  <g transform="matrix(1,0,0,1,0,0)" stroke="#000000" stroke-linecap="square" font-weight="400" fill="none" stroke-linejoin="bevel" stroke-opacity="1" stroke-width="1" font-family=".SF NS Text" font-size="54.1667" font-style="normal"/>
  <g transform="matrix(11.811,0,0,11.811,0,0)" stroke="#000000" stroke-linecap="square" font-weight="400" fill="none" stroke-linejoin="bevel" stroke-opacity="1" stroke-width="1" font-family=".SF NS Text" font-size="54.1667" font-style="normal"/>
  <g transform="matrix(11.811,0,0,11.811,0,0)" stroke="#000000" stroke-linecap="square" font-weight="400" fill="none" stroke-linejoin="bevel" stroke-opacity="1" stroke-width="1" font-family=".SF NS Text" font-size="54.1667" font-style="normal"/>
  <g transform="matrix(1,0,0,1,0,0)" stroke="#000000" stroke-linecap="square" font-weight="400" fill="none" stroke-linejoin="bevel" stroke-opacity="1" stroke-width="1" font-family=".SF NS Text" font-size="54.1667" font-style="normal"/>
 </g>
</svg>
